<svg width="673" height="175" viewBox="0 0 673 175" fill="none" xmlns="http://www.w3.org/2000/svg">
<path d="M394.542 17.0257H408.61V13.5794H394.542V3.80791H410.326V0.319077H390.535V28.3644H394.542V17.0257Z" fill="#354C2A"/>
<path d="M419.991 0.319077H415.985V28.3644H419.991V0.319077Z" fill="#354C2A"/>
<path d="M448.76 24.8755H432.415V15.8273H446.477V12.4165H432.415V3.80791H448.2V0.319077H428.409V28.3644H448.76V24.8755Z" fill="#354C2A"/>
<path d="M463.431 25.2798C459.829 25.2798 456.262 23.9183 454.177 22.032L452.695 25.1592C454.936 27.244 459.148 28.6835 463.431 28.6835C470.841 28.6835 474.288 24.9961 474.288 20.7131C474.288 10.4168 457.297 14.6998 457.297 7.84983C457.297 5.4034 459.34 3.40372 464.112 3.40372C466.594 3.40372 469.359 4.12701 471.806 5.68705L473.132 2.48188C470.806 0.879296 467.402 0 464.119 0C456.744 0 453.383 3.68736 453.383 8.01293C453.383 18.4298 470.373 14.1042 470.373 20.9542C470.359 23.3935 468.274 25.2798 463.431 25.2798Z" fill="#354C2A"/>
<path d="M485.307 28.3644H489.271V3.80791H498.894V0.319077H475.692V3.80791H485.307V28.3644Z" fill="#354C2A"/>
<path d="M501.737 28.3644L504.822 21.3513H519.727L522.812 28.3644H527.017L514.274 0.319077H510.31L497.61 28.3644H501.737ZM512.275 4.40355L518.323 18.1461H506.226L512.275 4.40355Z" fill="#354C2A"/>
<path d="M568.933 14.3453C568.933 6.01323 562.799 0.319077 553.786 0.319077H541.965V28.3644H553.786C562.806 28.3644 568.933 22.6773 568.933 14.3453ZM545.979 24.8755V3.80081H553.552C560.48 3.80081 564.933 8.04839 564.933 14.3382C564.933 20.628 560.487 24.8755 553.552 24.8755H545.979Z" fill="#354C2A"/>
<path d="M595.425 24.8755H579.08V15.8273H593.142V12.4165H579.08V3.80791H594.865V0.319077H575.066V28.3644H595.425V24.8755Z" fill="#354C2A"/>
<path d="M631.888 24.8755H616.706V0.319077H612.699V28.3644H631.888V24.8755Z" fill="#354C2A"/>
<path d="M639.589 21.3513H654.494L657.579 28.3644H661.784L649.041 0.319077H645.077L632.377 28.3644H636.504L639.589 21.3513ZM647.041 4.40355L653.09 18.1461H640.993L647.041 4.40355Z" fill="#354C2A"/>
<path d="M49.4108 97.0629L26.1732 41.2914H0L36.5688 126.902H60.4161L97.1055 41.2914H73.1376L49.4108 97.0629Z" fill="#354C2A"/>
<path d="M170.846 108.189H126.087V92.5317H164.116V74.4352H126.087V60.0048H169.257V41.2914H102.112V126.902H170.846V108.189Z" fill="#354C2A"/>
<path d="M265.746 41.2914H242.019V86.9084L204.231 41.2914H184.291V126.902H208.017V81.2852L245.806 126.902H265.746V41.2914Z" fill="#354C2A"/>
<path d="M323.34 41.2914H282.857V126.895H323.34C351.711 126.895 371.155 110.387 371.155 84.0933C371.155 57.7995 351.711 41.2914 323.34 41.2914ZM322.361 107.579H307.073V60.6147H322.361C336.912 60.6147 346.698 69.2942 346.698 84.0933C346.698 98.8924 336.912 107.579 322.361 107.579Z" fill="#354C2A"/>
<path d="M408.085 41.2914H383.869V126.895H408.085V41.2914Z" fill="#354C2A"/>
<path d="M502.376 81.5263L502.617 126.902H524.876L524.627 41.2914H504.694L475.344 90.7022L445.264 41.2914H425.324V126.902H447.703V82.7531L469.601 118.464H480.358L502.376 81.5263Z" fill="#354C2A"/>
<path d="M566.21 41.2914H541.994V126.895H566.21V41.2914Z" fill="#354C2A"/>
<path d="M634.809 41.2914H610.962L573.173 126.895H597.879L604.601 110.259H640.801L647.523 126.895H672.718L634.809 41.2914ZM611.699 92.4111L622.705 65.0183L633.71 92.4111H611.699Z" fill="#354C2A"/>
<path d="M110.685 150.168C109.621 149.594 108.373 149.31 106.934 149.31C106.714 149.31 106.26 149.331 105.572 149.367C105.005 149.424 104.445 149.452 103.877 149.452C103.48 149.452 102.934 149.431 102.239 149.395L101.119 149.367C101.083 149.367 101.062 149.424 101.062 149.53C101.062 149.636 101.083 149.693 101.119 149.693C101.807 149.693 102.289 149.764 102.551 149.899C102.814 150.033 102.948 150.303 102.948 150.707C102.948 150.813 102.913 151.104 102.842 151.579L100.608 164.208C100.516 164.755 100.396 165.159 100.24 165.421C100.084 165.683 99.8567 165.861 99.5589 165.953C99.261 166.045 98.8072 166.088 98.2116 166.088C98.1548 166.088 98.1265 166.144 98.1265 166.251C98.1265 166.357 98.1548 166.414 98.2116 166.414C98.6654 166.414 99.0199 166.407 99.2752 166.385L100.913 166.357C101.296 166.357 101.644 166.364 101.949 166.385C102.261 166.407 102.523 166.421 102.743 166.442C103.289 166.499 103.792 166.527 104.246 166.527C105.686 166.527 107.075 166.159 108.437 165.421C109.791 164.684 110.954 163.641 111.933 162.28C112.904 160.925 113.55 159.365 113.855 157.6C113.947 157.146 113.989 156.607 113.989 155.99C113.989 154.699 113.706 153.551 113.145 152.537C112.564 151.537 111.748 150.743 110.685 150.168ZM112.146 158.209C111.834 159.883 111.295 161.322 110.522 162.521C109.749 163.719 108.806 164.627 107.685 165.251C106.565 165.868 105.359 166.18 104.069 166.18C103.253 166.18 102.679 166.066 102.353 165.839C102.027 165.613 101.863 165.251 101.863 164.762C101.863 164.634 101.899 164.35 101.97 163.918L104.126 151.643C104.232 151.076 104.395 150.657 104.615 150.374C104.835 150.09 105.132 149.906 105.501 149.814C105.877 149.721 106.409 149.679 107.097 149.679C108.749 149.679 110.04 150.267 110.954 151.437C111.869 152.615 112.33 154.146 112.33 156.032C112.337 156.77 112.273 157.493 112.146 158.209Z" fill="#354C2A"/>
<path d="M121.038 155.529C120.166 155.529 119.329 155.777 118.528 156.266C117.726 156.756 117.053 157.437 116.492 158.302C115.939 159.167 115.564 160.117 115.358 161.152C115.266 161.592 115.223 162.081 115.223 162.627C115.223 163.882 115.521 164.889 116.124 165.655C116.726 166.421 117.549 166.804 118.606 166.804C119.421 166.804 120.237 166.57 121.031 166.095C121.832 165.62 122.534 164.96 123.13 164.102C123.732 163.244 124.137 162.266 124.356 161.159C124.463 160.635 124.52 160.131 124.52 159.656C124.52 158.458 124.215 157.465 123.605 156.692C123.009 155.919 122.144 155.529 121.038 155.529ZM123.108 162.351C122.889 163.514 122.449 164.435 121.782 165.109C121.116 165.783 120.378 166.116 119.556 166.116C118.591 166.116 117.833 165.662 117.28 164.755C116.726 163.847 116.45 162.762 116.45 161.507C116.45 160.982 116.507 160.472 116.613 159.982C116.847 158.855 117.301 157.94 117.974 157.238C118.648 156.536 119.4 156.188 120.237 156.188C121.201 156.188 121.938 156.657 122.456 157.593C122.974 158.529 123.236 159.628 123.236 160.883C123.25 161.351 123.201 161.847 123.108 162.351Z" fill="#354C2A"/>
<path d="M137.248 164.315C136.39 165.208 135.766 165.655 135.369 165.655C134.986 165.655 134.795 165.35 134.795 164.726C134.795 164.528 134.823 164.279 134.88 163.989L135.78 159.131C135.908 158.401 135.972 157.855 135.972 157.493C135.972 156.82 135.83 156.323 135.546 156.004C135.263 155.685 134.823 155.529 134.22 155.529C133.327 155.529 132.469 155.983 131.639 156.883C130.809 157.784 130.072 159.039 129.427 160.663C129.271 161.06 129.115 161.478 128.973 161.904L129.604 158.316C129.71 157.663 129.767 157.146 129.767 156.763C129.767 156.366 129.703 156.075 129.576 155.905C129.448 155.735 129.235 155.65 128.951 155.65C128.058 155.65 127.016 156.337 125.81 157.72C125.753 157.756 125.753 157.805 125.796 157.869C125.839 157.933 125.888 157.961 125.945 157.961C125.98 157.961 126.009 157.954 126.03 157.933C126.413 157.515 126.782 157.195 127.136 156.976C127.491 156.756 127.774 156.649 127.994 156.649C128.356 156.649 128.54 156.947 128.54 157.55C128.54 157.748 128.512 158.004 128.455 158.316L127.335 164.4C127.299 164.655 127.25 164.939 127.186 165.244C127.122 165.556 127.072 165.769 127.037 165.896L126.931 166.471C126.931 166.527 126.966 166.563 127.037 166.591C127.108 166.619 127.264 166.634 127.498 166.634C127.696 166.634 127.859 166.598 127.987 166.527C128.115 166.456 128.186 166.364 128.207 166.251C128.569 164.251 129.051 162.507 129.639 161.025C130.228 159.543 130.859 158.408 131.518 157.628C132.185 156.848 132.823 156.451 133.44 156.451C134.277 156.451 134.695 156.997 134.695 158.089C134.695 158.564 134.631 159.082 134.504 159.642L133.71 163.982C133.603 164.634 133.547 165.145 133.547 165.506C133.547 165.925 133.61 166.222 133.738 166.393C133.866 166.563 134.085 166.648 134.39 166.648C134.83 166.648 135.284 166.471 135.766 166.13C136.248 165.783 136.808 165.251 137.447 164.52C137.503 164.464 137.503 164.407 137.461 164.343C137.418 164.279 137.362 164.251 137.312 164.251C137.305 164.265 137.284 164.279 137.248 164.315Z" fill="#354C2A"/>
<path d="M150.125 146.857C150.147 146.821 150.125 146.779 150.069 146.722C150.012 146.665 149.962 146.637 149.906 146.637H149.849L146.495 148.275C146.424 148.296 146.403 148.346 146.424 148.438C146.452 148.53 146.495 148.573 146.544 148.573H146.601C147.183 148.282 147.651 148.133 147.991 148.133C148.409 148.133 148.615 148.374 148.615 148.842C148.615 148.934 148.594 149.09 148.558 149.303L147.296 155.954C146.899 155.671 146.445 155.522 145.913 155.522C144.857 155.522 143.814 155.862 142.779 156.543C141.744 157.224 140.85 158.131 140.106 159.273C139.361 160.408 138.872 161.642 138.631 162.968C138.56 163.329 138.524 163.712 138.524 164.109C138.524 165.017 138.73 165.691 139.141 166.116C139.553 166.541 140.07 166.754 140.708 166.754C141.836 166.754 142.935 166.116 144.013 164.847C144.843 163.868 145.608 162.613 146.332 161.103L145.786 163.975C145.658 164.591 145.594 165.109 145.594 165.527C145.594 165.925 145.665 166.215 145.8 166.385C145.935 166.556 146.162 166.641 146.466 166.641C146.906 166.641 147.36 166.463 147.828 166.123C148.303 165.776 148.863 165.244 149.523 164.513C149.579 164.457 149.579 164.4 149.537 164.336C149.494 164.272 149.445 164.244 149.388 164.244C149.367 164.244 149.345 164.265 149.303 164.301C148.409 165.194 147.785 165.641 147.424 165.641C147.041 165.641 146.849 165.343 146.849 164.74C146.849 164.521 146.878 164.265 146.934 163.975L150.125 146.857ZM143.97 164.194C143.141 165.13 142.311 165.598 141.474 165.598C140.95 165.598 140.538 165.4 140.248 164.996C139.957 164.598 139.808 164.003 139.808 163.223C139.808 162.804 139.843 162.386 139.914 161.968C140.226 160.202 140.857 158.833 141.808 157.862C142.765 156.89 143.878 156.401 145.147 156.401C145.672 156.401 146.084 156.55 146.374 156.841C146.665 157.132 146.814 157.543 146.814 158.068C146.814 158.755 146.544 159.72 146.013 160.947C145.481 162.173 144.8 163.258 143.97 164.194Z" fill="#354C2A"/>
<path d="M156.997 155.529C156.032 155.529 155.111 155.82 154.224 156.401C153.345 156.983 152.6 157.727 152.005 158.642C151.402 159.55 151.019 160.464 150.856 161.372C150.764 161.918 150.721 162.4 150.721 162.819C150.721 163.982 151.012 164.932 151.593 165.655C152.175 166.385 153.033 166.747 154.16 166.747C155.472 166.747 156.77 166.237 158.06 165.215C158.117 165.159 158.117 165.109 158.075 165.052C158.032 164.996 157.982 164.974 157.926 164.974H157.869C157.054 165.577 156.11 165.875 155.061 165.875C154.132 165.875 153.409 165.535 152.891 164.854C152.373 164.173 152.111 163.258 152.111 162.11C152.111 161.599 152.168 161.074 152.267 160.528C153.231 160.393 154.16 160.181 155.033 159.876C156.054 159.514 156.89 159.082 157.557 158.578C158.224 158.075 158.614 157.557 158.741 157.011C158.755 156.94 158.77 156.841 158.77 156.713C158.77 156.352 158.614 156.061 158.309 155.855C157.997 155.635 157.564 155.529 156.997 155.529ZM157.16 157.578C156.976 158.252 156.415 158.819 155.465 159.266C154.628 159.67 153.579 159.961 152.338 160.167C152.551 159.089 152.927 158.174 153.487 157.451C154.097 156.656 154.877 156.266 155.82 156.266C156.203 156.266 156.529 156.337 156.805 156.486C157.082 156.628 157.217 156.869 157.217 157.195C157.217 157.358 157.195 157.486 157.16 157.578Z" fill="#354C2A"/>
<path d="M172.633 155.529C171.668 155.529 170.746 155.82 169.86 156.401C168.981 156.983 168.236 157.727 167.64 158.642C167.038 159.55 166.655 160.464 166.492 161.372C166.399 161.918 166.357 162.4 166.357 162.819C166.357 163.982 166.648 164.932 167.229 165.655C167.811 166.385 168.669 166.747 169.796 166.747C171.108 166.747 172.406 166.237 173.696 165.215C173.753 165.159 173.753 165.109 173.71 165.052C173.668 164.996 173.618 164.974 173.561 164.974H173.505C172.689 165.577 171.746 165.875 170.697 165.875C169.768 165.875 169.044 165.535 168.527 164.854C168.009 164.173 167.747 163.258 167.747 162.11C167.747 161.599 167.804 161.074 167.903 160.528C168.867 160.393 169.796 160.181 170.668 159.876C171.689 159.514 172.526 159.082 173.193 158.578C173.859 158.075 174.249 157.557 174.377 157.011C174.391 156.94 174.405 156.841 174.405 156.713C174.405 156.352 174.249 156.061 173.944 155.855C173.632 155.635 173.193 155.529 172.633 155.529ZM172.796 157.578C172.611 158.252 172.051 158.819 171.101 159.266C170.264 159.67 169.215 159.961 167.974 160.167C168.186 159.089 168.562 158.174 169.122 157.451C169.732 156.656 170.512 156.266 171.455 156.266C171.838 156.266 172.165 156.337 172.441 156.486C172.718 156.628 172.852 156.869 172.852 157.195C172.845 157.358 172.831 157.486 172.796 157.578Z" fill="#354C2A"/>
<path d="M180.979 146.857C180.993 146.821 180.979 146.779 180.922 146.722C180.865 146.665 180.802 146.637 180.731 146.637H180.674L177.32 148.275C177.249 148.296 177.221 148.346 177.249 148.438C177.277 148.53 177.327 148.573 177.398 148.573H177.455C178.036 148.282 178.49 148.133 178.816 148.133C179.199 148.133 179.39 148.36 179.39 148.814C179.39 148.885 179.369 149.048 179.334 149.303L176.575 163.982C176.448 164.712 176.384 165.208 176.384 165.485C176.384 165.903 176.455 166.201 176.604 166.385C176.745 166.57 176.979 166.662 177.284 166.662C177.724 166.662 178.178 166.485 178.66 166.144C179.142 165.797 179.702 165.265 180.341 164.535C180.397 164.478 180.404 164.421 180.369 164.357C180.334 164.294 180.284 164.265 180.234 164.265C180.199 164.265 180.163 164.287 180.128 164.322C179.27 165.215 178.646 165.662 178.249 165.662C178.086 165.662 177.951 165.584 177.837 165.428C177.731 165.272 177.674 165.059 177.674 164.79C177.674 164.662 177.71 164.4 177.781 164.003L180.979 146.857Z" fill="#354C2A"/>
<path d="M197.295 155.614C197.061 155.614 196.841 155.685 196.643 155.82C196.444 155.954 196.345 156.16 196.345 156.437C196.345 156.749 196.444 156.976 196.643 157.132C196.841 157.288 196.955 157.373 196.969 157.394C197.48 157.834 197.735 158.479 197.735 159.33C197.735 159.911 197.643 160.514 197.458 161.131C197.075 162.478 196.494 163.563 195.714 164.393C194.934 165.223 194.126 165.634 193.289 165.634C192.722 165.634 192.282 165.414 191.949 164.981C191.622 164.542 191.459 163.932 191.459 163.152C191.459 161.663 192.147 159.344 193.53 156.196C193.587 156.089 193.615 156.011 193.615 155.976C193.615 155.905 193.516 155.869 193.317 155.869H190.913C190.346 155.869 189.928 155.926 189.658 156.032C189.382 156.139 189.148 156.373 188.949 156.713C188.751 157.061 188.509 157.642 188.24 158.458C188.219 158.529 188.233 158.585 188.268 158.621C188.304 158.656 188.353 158.677 188.403 158.677C188.474 158.677 188.524 158.649 188.538 158.592C188.701 158.117 188.85 157.784 188.977 157.585C189.105 157.387 189.282 157.252 189.509 157.188C189.736 157.125 190.098 157.096 190.587 157.096H192.005C192.275 157.096 192.417 157.188 192.417 157.373C192.417 157.5 192.381 157.635 192.31 157.784C192.034 158.387 191.864 158.748 191.793 158.876C191.268 160.039 190.878 160.968 190.63 161.663C190.381 162.351 190.261 163.017 190.261 163.655C190.261 164.528 190.467 165.272 190.878 165.875C191.289 166.485 191.885 166.79 192.665 166.79C193.395 166.79 194.154 166.506 194.955 165.946C195.757 165.386 196.466 164.584 197.083 163.542C197.699 162.507 198.118 161.294 198.338 159.911C198.43 159.309 198.472 158.741 198.472 158.195C198.472 157.451 198.38 156.834 198.189 156.352C197.99 155.855 197.692 155.614 197.295 155.614Z" fill="#354C2A"/>
<path d="M205.181 164.372C204.798 164.776 204.437 165.088 204.089 165.315C203.742 165.542 203.465 165.655 203.245 165.655C202.884 165.655 202.699 165.364 202.699 164.783C202.699 164.549 202.728 164.287 202.784 163.996L203.876 158.323C204.004 157.706 204.068 157.188 204.068 156.77C204.068 156.373 203.997 156.082 203.862 155.912C203.727 155.742 203.501 155.657 203.196 155.657C202.756 155.657 202.288 155.827 201.777 156.16C201.267 156.5 200.707 157.018 200.083 157.727C200.026 157.763 200.026 157.812 200.068 157.876C200.111 157.94 200.161 157.968 200.217 157.968C200.253 157.968 200.281 157.961 200.302 157.94C200.685 157.522 201.054 157.202 201.409 156.983C201.763 156.763 202.047 156.657 202.267 156.657C202.43 156.657 202.564 156.734 202.664 156.89C202.763 157.046 202.813 157.266 202.813 157.557C202.813 157.756 202.784 158.011 202.728 158.323L201.607 163.996C201.48 164.577 201.416 165.081 201.416 165.499C201.416 165.939 201.487 166.237 201.636 166.414C201.784 166.584 202.011 166.669 202.316 166.669C203.174 166.669 204.195 165.981 205.401 164.598C205.458 164.563 205.465 164.513 205.429 164.45C205.394 164.386 205.337 164.357 205.266 164.357C205.224 164.343 205.195 164.357 205.181 164.372Z" fill="#354C2A"/>
<path d="M204.004 152.317C204.351 152.317 204.613 152.225 204.798 152.04C204.982 151.856 205.067 151.593 205.067 151.246C205.067 150.941 204.975 150.693 204.798 150.508C204.613 150.324 204.351 150.232 204.004 150.232C203.656 150.232 203.387 150.324 203.195 150.508C203.004 150.693 202.912 150.934 202.912 151.246C202.912 151.593 203.004 151.856 203.195 152.04C203.387 152.225 203.663 152.317 204.004 152.317Z" fill="#354C2A"/>
<path d="M218.058 164.315C217.2 165.208 216.576 165.655 216.179 165.655C215.796 165.655 215.605 165.35 215.605 164.726C215.605 164.528 215.633 164.279 215.69 163.989L216.59 159.131C216.718 158.401 216.782 157.855 216.782 157.493C216.782 156.82 216.64 156.323 216.356 156.004C216.073 155.685 215.633 155.529 215.03 155.529C214.137 155.529 213.279 155.983 212.449 156.883C211.619 157.784 210.882 159.039 210.237 160.663C210.081 161.06 209.925 161.478 209.783 161.904L210.414 158.316C210.52 157.663 210.577 157.146 210.577 156.763C210.577 156.366 210.513 156.075 210.386 155.905C210.258 155.735 210.045 155.65 209.762 155.65C208.868 155.65 207.826 156.337 206.62 157.72C206.563 157.756 206.563 157.805 206.606 157.869C206.649 157.933 206.698 157.961 206.755 157.961C206.79 157.961 206.819 157.954 206.84 157.933C207.223 157.515 207.592 157.195 207.946 156.976C208.301 156.756 208.584 156.649 208.804 156.649C209.166 156.649 209.35 156.947 209.35 157.55C209.35 157.748 209.322 158.004 209.265 158.316L208.145 164.4C208.109 164.655 208.06 164.939 207.996 165.244C207.932 165.556 207.882 165.769 207.847 165.896L207.741 166.471C207.741 166.527 207.776 166.563 207.847 166.591C207.918 166.619 208.074 166.634 208.308 166.634C208.506 166.634 208.67 166.598 208.797 166.527C208.925 166.456 208.996 166.364 209.017 166.251C209.379 164.251 209.861 162.507 210.449 161.025C211.038 159.543 211.669 158.408 212.329 157.628C212.995 156.848 213.633 156.451 214.25 156.451C215.087 156.451 215.505 156.997 215.505 158.089C215.505 158.564 215.442 159.082 215.314 159.642L214.52 163.982C214.413 164.634 214.357 165.145 214.357 165.506C214.357 165.925 214.42 166.222 214.548 166.393C214.676 166.563 214.896 166.648 215.2 166.648C215.64 166.648 216.094 166.471 216.576 166.13C217.058 165.783 217.618 165.251 218.257 164.52C218.313 164.464 218.313 164.407 218.271 164.343C218.228 164.279 218.172 164.251 218.122 164.251C218.122 164.265 218.094 164.279 218.058 164.315Z" fill="#354C2A"/>
<path d="M225.447 155.529C224.575 155.529 223.738 155.777 222.937 156.266C222.135 156.756 221.462 157.437 220.902 158.302C220.341 159.167 219.973 160.117 219.767 161.152C219.675 161.592 219.632 162.081 219.632 162.627C219.632 163.882 219.93 164.889 220.533 165.655C221.136 166.421 221.958 166.804 223.015 166.804C223.83 166.804 224.646 166.57 225.44 166.095C226.241 165.62 226.943 164.96 227.539 164.102C228.142 163.244 228.546 162.266 228.766 161.159C228.872 160.635 228.929 160.131 228.929 159.656C228.929 158.458 228.624 157.465 228.014 156.692C227.418 155.919 226.56 155.529 225.447 155.529ZM227.525 162.351C227.305 163.514 226.865 164.435 226.199 165.109C225.532 165.783 224.795 166.116 223.972 166.116C223.008 166.116 222.249 165.662 221.696 164.755C221.143 163.847 220.866 162.762 220.866 161.507C220.866 160.982 220.923 160.472 221.029 159.982C221.263 158.855 221.717 157.94 222.391 157.238C223.064 156.536 223.816 156.188 224.653 156.188C225.617 156.188 226.355 156.657 226.872 157.593C227.39 158.529 227.652 159.628 227.652 160.883C227.659 161.351 227.617 161.847 227.525 162.351Z" fill="#354C2A"/>
<path d="M244.423 155.954C243.976 155.671 243.437 155.529 242.799 155.529C241.998 155.529 241.196 155.742 240.395 156.167C239.594 156.593 238.892 157.21 238.282 158.025C237.672 158.833 237.247 159.798 237.013 160.904C236.906 161.415 236.85 161.961 236.85 162.542C236.85 163.726 237.133 164.726 237.708 165.542C238.282 166.357 239.14 166.768 240.289 166.768C241.65 166.768 243.069 166.123 244.543 164.833C244.579 164.797 244.572 164.74 244.529 164.669C244.487 164.599 244.437 164.563 244.38 164.563L244.324 164.591C243.813 165.01 243.331 165.336 242.877 165.577C242.423 165.811 241.891 165.932 241.296 165.932C240.296 165.932 239.537 165.556 239.034 164.797C238.523 164.038 238.268 163.074 238.268 161.89C238.268 161.415 238.332 160.819 238.459 160.089C238.679 158.904 239.076 157.94 239.644 157.195C240.218 156.451 240.97 156.075 241.891 156.075C242.331 156.075 242.671 156.181 242.927 156.387C243.182 156.593 243.345 156.827 243.416 157.082C243.615 157.607 243.919 157.876 244.317 157.876C244.572 157.876 244.763 157.784 244.891 157.6C245.019 157.415 245.082 157.21 245.082 156.976C245.097 156.578 244.87 156.238 244.423 155.954Z" fill="#354C2A"/>
<path d="M252.053 155.529C251.181 155.529 250.344 155.777 249.543 156.266C248.741 156.756 248.068 157.437 247.508 158.302C246.947 159.167 246.579 160.117 246.373 161.152C246.281 161.592 246.238 162.081 246.238 162.627C246.238 163.882 246.536 164.889 247.139 165.655C247.742 166.421 248.564 166.804 249.621 166.804C250.436 166.804 251.252 166.57 252.046 166.095C252.847 165.62 253.549 164.96 254.145 164.102C254.748 163.244 255.152 162.266 255.372 161.159C255.478 160.635 255.535 160.131 255.535 159.656C255.535 158.458 255.23 157.465 254.62 156.692C254.017 155.919 253.159 155.529 252.053 155.529ZM254.124 162.351C253.904 163.514 253.464 164.435 252.798 165.109C252.131 165.783 251.393 166.116 250.571 166.116C249.607 166.116 248.848 165.662 248.295 164.755C247.742 163.847 247.465 162.762 247.465 161.507C247.465 160.982 247.522 160.472 247.628 159.982C247.862 158.855 248.316 157.94 248.99 157.238C249.663 156.536 250.415 156.188 251.252 156.188C252.216 156.188 252.954 156.657 253.471 157.593C253.989 158.529 254.251 159.628 254.251 160.883C254.258 161.351 254.216 161.847 254.124 162.351Z" fill="#354C2A"/>
<path d="M265.285 155.529C264.342 155.529 263.413 155.876 262.505 156.578C261.598 157.28 260.811 158.224 260.144 159.415C259.903 159.855 259.697 160.301 259.513 160.762L262.066 146.849C262.08 146.814 262.066 146.771 262.009 146.715C261.952 146.658 261.889 146.63 261.818 146.63H261.761L258.435 148.268C258.364 148.289 258.336 148.339 258.35 148.431C258.364 148.523 258.414 148.566 258.485 148.566H258.542C259.123 148.275 259.591 148.126 259.931 148.126C260.35 148.126 260.555 148.367 260.555 148.835C260.555 148.927 260.534 149.083 260.499 149.296L257.634 164.357C257.598 164.577 257.577 164.719 257.577 164.797C257.577 165.4 257.818 165.875 258.3 166.229C258.783 166.584 259.414 166.761 260.194 166.761C261.066 166.761 262.002 166.478 263.002 165.917C264.002 165.357 264.909 164.528 265.718 163.436C266.526 162.344 267.079 161.053 267.37 159.564C267.462 159.075 267.505 158.663 267.505 158.337C267.505 157.479 267.306 156.798 266.902 156.295C266.519 155.784 265.973 155.529 265.285 155.529ZM265.86 160.415C265.64 161.578 265.292 162.585 264.824 163.443C264.349 164.301 263.81 164.953 263.2 165.407C262.591 165.861 261.974 166.088 261.357 166.088C260.626 166.088 260.045 165.91 259.598 165.556C259.151 165.201 258.932 164.733 258.932 164.152C258.932 164.01 258.939 163.889 258.96 163.797C259.229 162.379 259.634 161.124 260.172 160.046C260.711 158.961 261.328 158.124 262.045 157.522C262.754 156.919 263.498 156.621 264.285 156.621C264.888 156.621 265.328 156.827 265.611 157.238C265.895 157.649 266.037 158.209 266.037 158.919C266.023 159.372 265.966 159.869 265.86 160.415Z" fill="#354C2A"/>
<path d="M276.822 156.075C276.51 155.784 276.177 155.635 275.815 155.635C275.198 155.635 274.532 156.217 273.808 157.38C273.092 158.543 272.433 159.961 271.844 161.634C271.695 162.046 271.596 162.422 271.468 162.819L272.05 159.613C272.234 158.628 272.326 157.834 272.326 157.21C272.326 156.628 272.241 156.217 272.064 155.983C271.894 155.749 271.639 155.628 271.312 155.628C270.454 155.628 269.511 156.217 268.476 157.401C268.455 157.437 268.469 157.486 268.518 157.55C268.561 157.614 268.604 157.649 268.639 157.649L268.696 157.621C269.384 156.968 269.944 156.635 270.362 156.635C270.837 156.635 271.071 157.082 271.071 157.975C271.071 158.429 271.007 158.975 270.88 159.613L270.036 164.386L269.759 165.832L269.625 166.456C269.625 166.513 269.66 166.549 269.717 166.577C269.781 166.605 269.93 166.619 270.164 166.619C270.362 166.619 270.525 166.584 270.639 166.513C270.759 166.442 270.823 166.35 270.844 166.237C271.078 165.088 271.461 163.762 271.979 162.251C272.497 160.741 273.043 159.45 273.617 158.38C274.191 157.309 274.688 156.77 275.106 156.77C275.212 156.77 275.312 156.812 275.39 156.89C275.475 156.976 275.539 157.061 275.595 157.153C275.702 157.337 275.815 157.472 275.922 157.564C276.028 157.656 276.184 157.699 276.382 157.699C276.801 157.699 277.063 157.479 277.177 157.046C277.255 156.699 277.134 156.366 276.822 156.075Z" fill="#354C2A"/>
<path d="M287.657 164.315C286.799 165.208 286.168 165.655 285.75 165.655C285.402 165.655 285.232 165.357 285.232 164.755C285.232 164.535 285.261 164.279 285.317 163.989L286.899 155.338C286.92 155.302 286.87 155.274 286.764 155.252C286.657 155.238 286.594 155.252 286.572 155.309C286.516 155.635 286.353 155.933 286.083 156.196C286.033 156.245 285.991 156.266 285.941 156.309C285.849 156.196 285.778 156.061 285.658 155.976C285.246 155.678 284.771 155.522 284.225 155.522C283.296 155.522 282.318 155.947 281.275 156.791C280.24 157.635 279.332 158.713 278.559 160.025C277.787 161.337 277.311 162.634 277.127 163.925C277.092 164.329 277.07 164.599 277.07 164.747C277.07 166.095 277.616 166.768 278.708 166.768C279.8 166.768 280.949 166.109 282.148 164.79C283.098 163.748 283.942 162.45 284.693 160.932L284.169 163.989C284.062 164.641 284.005 165.159 284.005 165.542C284.005 165.939 284.069 166.229 284.197 166.4C284.325 166.57 284.53 166.655 284.821 166.655C285.261 166.655 285.714 166.478 286.197 166.137C286.679 165.79 287.239 165.258 287.877 164.528C287.913 164.492 287.913 164.443 287.877 164.379C287.842 164.315 287.792 164.286 287.742 164.286C287.7 164.294 287.671 164.301 287.657 164.315ZM281.68 164.563C280.9 165.251 280.169 165.598 279.495 165.598C278.715 165.598 278.325 165.059 278.325 163.989C278.325 163.677 278.354 163.336 278.411 162.953C278.595 161.755 278.949 160.649 279.488 159.649C280.027 158.649 280.651 157.855 281.36 157.273C282.07 156.692 282.764 156.401 283.431 156.401C283.977 156.401 284.395 156.557 284.686 156.862C284.977 157.174 285.126 157.578 285.126 158.089C285.126 158.344 285.105 158.543 285.069 158.692C284.849 159.748 284.431 160.812 283.8 161.897C283.169 162.989 282.467 163.875 281.68 164.563Z" fill="#354C2A"/>
<path d="M304.357 155.614C304.123 155.614 303.903 155.685 303.704 155.82C303.506 155.954 303.407 156.16 303.407 156.437C303.407 156.749 303.506 156.976 303.704 157.132C303.903 157.288 304.016 157.373 304.031 157.394C304.541 157.834 304.796 158.479 304.796 159.33C304.796 159.911 304.704 160.514 304.52 161.131C304.137 162.478 303.556 163.563 302.776 164.393C301.995 165.223 301.187 165.634 300.35 165.634C299.783 165.634 299.343 165.414 299.01 164.981C298.684 164.542 298.521 163.932 298.521 163.152C298.521 161.663 299.209 159.344 300.591 156.196C300.648 156.089 300.677 156.011 300.677 155.976C300.677 155.905 300.577 155.869 300.379 155.869H297.975C297.408 155.869 296.989 155.926 296.72 156.032C296.443 156.139 296.209 156.373 296.011 156.713C295.812 157.061 295.571 157.642 295.301 158.458C295.28 158.529 295.294 158.585 295.33 158.621C295.365 158.656 295.415 158.677 295.465 158.677C295.536 158.677 295.585 158.649 295.599 158.592C295.762 158.117 295.911 157.784 296.039 157.585C296.167 157.387 296.344 157.252 296.571 157.188C296.798 157.125 297.159 157.096 297.649 157.096H299.067C299.336 157.096 299.478 157.188 299.478 157.373C299.478 157.5 299.443 157.635 299.372 157.784C299.095 158.387 298.925 158.748 298.854 158.876C298.329 160.039 297.939 160.968 297.691 161.663C297.443 162.351 297.322 163.017 297.322 163.655C297.322 164.528 297.528 165.272 297.939 165.875C298.351 166.485 298.946 166.79 299.726 166.79C300.457 166.79 301.215 166.506 302.017 165.946C302.818 165.386 303.527 164.584 304.144 163.542C304.761 162.507 305.179 161.294 305.399 159.911C305.491 159.309 305.534 158.741 305.534 158.195C305.534 157.451 305.442 156.834 305.25 156.352C305.052 155.855 304.754 155.614 304.357 155.614Z" fill="#354C2A"/>
<path d="M312.235 164.372C311.852 164.776 311.491 165.088 311.143 165.315C310.796 165.542 310.519 165.655 310.299 165.655C309.938 165.655 309.753 165.364 309.753 164.783C309.753 164.549 309.782 164.287 309.839 163.996L310.931 158.323C311.058 157.706 311.122 157.188 311.122 156.77C311.122 156.373 311.051 156.082 310.916 155.912C310.782 155.742 310.555 155.657 310.25 155.657C309.81 155.657 309.342 155.827 308.832 156.16C308.321 156.5 307.761 157.018 307.137 157.727C307.08 157.763 307.08 157.812 307.123 157.876C307.165 157.94 307.215 157.968 307.272 157.968C307.307 157.968 307.335 157.961 307.357 157.94C307.74 157.522 308.108 157.202 308.463 156.983C308.817 156.763 309.101 156.657 309.321 156.657C309.484 156.657 309.619 156.734 309.718 156.89C309.817 157.046 309.867 157.266 309.867 157.557C309.867 157.756 309.838 158.011 309.782 158.323L308.661 163.996C308.534 164.577 308.47 165.081 308.47 165.499C308.47 165.939 308.541 166.237 308.69 166.414C308.839 166.584 309.066 166.669 309.37 166.669C310.228 166.669 311.25 165.981 312.455 164.598C312.512 164.563 312.519 164.513 312.483 164.45C312.448 164.386 312.391 164.357 312.32 164.357C312.285 164.343 312.257 164.357 312.235 164.372Z" fill="#354C2A"/>
<path d="M311.065 152.317C311.413 152.317 311.675 152.225 311.859 152.04C312.044 151.856 312.129 151.593 312.129 151.246C312.129 150.941 312.037 150.693 311.859 150.508C311.675 150.324 311.413 150.232 311.065 150.232C310.718 150.232 310.448 150.324 310.257 150.508C310.065 150.693 309.973 150.934 309.973 151.246C309.973 151.593 310.065 151.856 310.257 152.04C310.448 152.225 310.718 152.317 311.065 152.317Z" fill="#354C2A"/>
<path d="M325.361 146.857C325.382 146.821 325.361 146.779 325.304 146.722C325.247 146.665 325.198 146.637 325.141 146.637H325.084L321.73 148.275C321.659 148.296 321.638 148.346 321.659 148.438C321.688 148.53 321.73 148.573 321.78 148.573H321.837C322.418 148.282 322.886 148.133 323.226 148.133C323.645 148.133 323.85 148.374 323.85 148.842C323.85 148.934 323.829 149.09 323.794 149.303L322.531 155.954C322.134 155.671 321.681 155.522 321.149 155.522C320.092 155.522 319.05 155.862 318.014 156.543C316.979 157.224 316.086 158.131 315.341 159.273C314.597 160.408 314.107 161.642 313.866 162.968C313.795 163.329 313.76 163.712 313.76 164.109C313.76 165.017 313.965 165.691 314.377 166.116C314.788 166.541 315.306 166.754 315.944 166.754C317.071 166.754 318.17 166.116 319.248 164.847C320.078 163.868 320.844 162.613 321.567 161.103L321.021 163.975C320.893 164.591 320.83 165.109 320.83 165.527C320.83 165.925 320.901 166.215 321.035 166.385C321.17 166.556 321.397 166.641 321.702 166.641C322.141 166.641 322.595 166.463 323.063 166.123C323.538 165.776 324.099 165.244 324.758 164.513C324.815 164.457 324.815 164.4 324.772 164.336C324.73 164.272 324.68 164.244 324.623 164.244C324.602 164.244 324.581 164.265 324.538 164.301C323.645 165.194 323.021 165.641 322.659 165.641C322.276 165.641 322.085 165.343 322.085 164.74C322.085 164.521 322.113 164.265 322.17 163.975L325.361 146.857ZM319.206 164.194C318.376 165.13 317.546 165.598 316.71 165.598C316.185 165.598 315.774 165.4 315.483 164.996C315.192 164.598 315.043 164.003 315.043 163.223C315.043 162.804 315.079 162.386 315.15 161.968C315.462 160.202 316.093 158.833 317.043 157.862C318 156.89 319.114 156.401 320.383 156.401C320.908 156.401 321.319 156.55 321.61 156.841C321.9 157.132 322.049 157.543 322.049 158.068C322.049 158.755 321.78 159.72 321.248 160.947C320.716 162.173 320.035 163.258 319.206 164.194Z" fill="#354C2A"/>
<path d="M336.331 164.315C335.473 165.208 334.842 165.655 334.423 165.655C334.076 165.655 333.906 165.357 333.906 164.755C333.906 164.535 333.934 164.279 333.984 163.989L335.565 155.338C335.586 155.302 335.536 155.274 335.43 155.252C335.324 155.238 335.253 155.252 335.239 155.309C335.182 155.635 335.019 155.933 334.749 156.196C334.7 156.245 334.657 156.266 334.608 156.309C334.515 156.196 334.444 156.061 334.324 155.976C333.913 155.678 333.438 155.522 332.891 155.522C331.963 155.522 330.984 155.947 329.949 156.791C328.913 157.635 328.006 158.713 327.233 160.025C326.46 161.337 325.985 162.634 325.8 163.925C325.765 164.329 325.744 164.599 325.744 164.747C325.744 166.095 326.29 166.768 327.382 166.768C328.474 166.768 329.622 166.109 330.821 164.79C331.771 163.748 332.615 162.45 333.367 160.932L332.842 163.989C332.735 164.641 332.679 165.159 332.679 165.542C332.679 165.939 332.743 166.229 332.87 166.4C332.998 166.57 333.211 166.655 333.501 166.655C333.941 166.655 334.395 166.478 334.877 166.137C335.359 165.79 335.919 165.258 336.558 164.528C336.593 164.492 336.593 164.443 336.558 164.379C336.522 164.315 336.472 164.286 336.423 164.286C336.373 164.294 336.345 164.301 336.331 164.315ZM330.353 164.563C329.573 165.251 328.842 165.598 328.169 165.598C327.389 165.598 326.999 165.059 326.999 163.989C326.999 163.677 327.027 163.336 327.084 162.953C327.268 161.755 327.623 160.649 328.162 159.649C328.701 158.649 329.318 157.855 330.034 157.273C330.743 156.692 331.438 156.401 332.104 156.401C332.65 156.401 333.069 156.557 333.359 156.862C333.65 157.174 333.799 157.578 333.799 158.089C333.799 158.344 333.778 158.543 333.742 158.692C333.523 159.748 333.104 160.812 332.473 161.897C331.842 162.989 331.133 163.875 330.353 164.563Z" fill="#354C2A"/>
<path d="M353.406 155.614C353.151 155.614 352.952 155.685 352.803 155.834C352.662 155.976 352.584 156.16 352.584 156.38C352.584 156.486 352.626 156.699 352.718 157.004C352.974 157.897 353.101 158.677 353.101 159.351C353.101 159.677 353.059 160.067 352.966 160.528C352.747 161.422 352.208 162.663 351.357 164.251C350.811 165.265 350.229 166.229 349.627 167.173C349.655 166.513 349.669 166.003 349.669 165.655C349.669 163.762 349.52 162.06 349.229 160.542C348.939 159.025 348.513 157.827 347.946 156.954C347.386 156.082 346.712 155.642 345.925 155.642C345.436 155.642 345.003 155.813 344.627 156.146C344.251 156.486 343.897 157.004 343.549 157.713C343.528 157.819 343.585 157.876 343.713 157.876C343.805 157.876 343.861 157.848 343.876 157.791C344.237 157.103 344.712 156.756 345.294 156.756C346.28 156.756 347.052 157.713 347.627 159.621C348.201 161.528 348.485 164.194 348.485 167.612C348.485 168.13 348.478 168.534 348.471 168.889C347.513 170.229 346.726 171.122 346.109 171.541C345.691 171.846 345.188 172.08 344.592 172.236C344.003 172.392 343.415 172.47 342.833 172.47C342.195 172.47 341.876 172.725 341.876 173.235C341.876 173.526 341.968 173.739 342.145 173.874C342.33 174.008 342.557 174.079 342.826 174.079C344.046 174.079 345.57 173.001 347.393 170.846C349.222 168.69 350.832 166.222 352.222 163.45C353.612 160.677 354.314 158.529 354.314 156.997C354.335 156.075 354.03 155.614 353.406 155.614Z" fill="#354C2A"/>
<path d="M367.893 146.857C367.914 146.821 367.893 146.779 367.836 146.722C367.779 146.665 367.716 146.637 367.645 146.637H367.588L364.234 148.275C364.163 148.296 364.142 148.346 364.163 148.438C364.191 148.53 364.241 148.573 364.312 148.573H364.369C364.95 148.282 365.404 148.133 365.73 148.133C366.113 148.133 366.305 148.36 366.305 148.814C366.305 148.885 366.283 149.048 366.248 149.303L363.489 163.982C363.362 164.712 363.298 165.208 363.298 165.485C363.298 165.903 363.369 166.201 363.518 166.385C363.66 166.57 363.894 166.662 364.198 166.662C364.638 166.662 365.092 166.485 365.574 166.144C366.056 165.797 366.616 165.265 367.255 164.535C367.311 164.478 367.319 164.421 367.283 164.357C367.248 164.294 367.198 164.265 367.148 164.265C367.113 164.265 367.077 164.287 367.042 164.322C366.184 165.215 365.56 165.662 365.163 165.662C365 165.662 364.865 165.584 364.752 165.428C364.645 165.272 364.588 165.059 364.588 164.79C364.588 164.662 364.624 164.4 364.695 164.003L367.893 146.857Z" fill="#354C2A"/>
<path d="M374.772 155.529C373.9 155.529 373.063 155.777 372.261 156.266C371.46 156.756 370.787 157.437 370.226 158.302C369.666 159.167 369.297 160.117 369.092 161.152C369 161.592 368.957 162.081 368.957 162.627C368.957 163.882 369.255 164.889 369.858 165.655C370.46 166.421 371.283 166.804 372.339 166.804C373.155 166.804 373.97 166.57 374.765 166.095C375.566 165.62 376.268 164.96 376.864 164.102C377.466 163.244 377.871 162.266 378.09 161.159C378.197 160.635 378.253 160.131 378.253 159.656C378.253 158.458 377.949 157.465 377.339 156.692C376.743 155.919 375.878 155.529 374.772 155.529ZM376.842 162.351C376.623 163.514 376.183 164.435 375.516 165.109C374.85 165.783 374.112 166.116 373.297 166.116C372.332 166.116 371.574 165.662 371.021 164.755C370.467 163.847 370.191 162.762 370.191 161.507C370.191 160.982 370.248 160.472 370.354 159.982C370.588 158.855 371.042 157.94 371.715 157.238C372.389 156.536 373.141 156.188 373.978 156.188C374.942 156.188 375.686 156.657 376.197 157.593C376.715 158.529 376.977 159.628 376.977 160.883C376.984 161.351 376.935 161.847 376.842 162.351Z" fill="#354C2A"/>
<path d="M385.834 155.969C385.422 155.735 384.94 155.614 384.373 155.614C383.572 155.614 382.82 155.848 382.118 156.309C381.416 156.77 380.998 157.422 380.849 158.259C380.813 158.479 380.792 158.635 380.792 158.72C380.792 159.231 380.934 159.67 381.232 160.046C381.522 160.422 381.955 160.854 382.543 161.344C383.146 161.854 383.586 162.294 383.884 162.67C384.174 163.046 384.323 163.492 384.323 164.024C384.323 164.187 384.316 164.315 384.295 164.407C384.224 165.01 384.018 165.457 383.692 165.761C383.366 166.059 382.926 166.208 382.38 166.208C381.891 166.208 381.529 166.109 381.302 165.91C381.076 165.712 380.863 165.421 380.664 165.038C380.537 164.818 380.43 164.662 380.352 164.577C380.274 164.485 380.168 164.443 380.04 164.443C379.842 164.443 379.664 164.513 379.523 164.662C379.374 164.811 379.303 165.003 379.303 165.237C379.303 165.655 379.537 166.01 380.012 166.3C380.487 166.591 381.04 166.74 381.678 166.74C382.331 166.74 382.948 166.57 383.522 166.237C384.096 165.903 384.557 165.464 384.898 164.925C385.245 164.386 385.415 163.818 385.415 163.223C385.415 162.677 385.259 162.202 384.954 161.79C384.642 161.379 384.196 160.911 383.614 160.386C383.054 159.897 382.621 159.457 382.331 159.06C382.04 158.67 381.891 158.231 381.891 157.734C381.891 157.21 382.033 156.82 382.331 156.578C382.621 156.33 382.983 156.21 383.423 156.21C383.77 156.21 384.047 156.281 384.252 156.43C384.458 156.578 384.664 156.777 384.862 157.032C385.047 157.231 385.188 157.373 385.302 157.458C385.408 157.543 385.55 157.578 385.713 157.578C385.897 157.578 386.061 157.515 386.217 157.387C386.373 157.259 386.451 157.068 386.451 156.812C386.451 156.479 386.245 156.203 385.834 155.969Z" fill="#354C2A"/>
<path d="M400.349 155.969C399.938 155.735 399.456 155.614 398.888 155.614C398.087 155.614 397.336 155.848 396.634 156.309C395.931 156.77 395.513 157.422 395.364 158.259C395.329 158.479 395.307 158.635 395.307 158.72C395.307 159.231 395.449 159.67 395.747 160.046C396.038 160.422 396.47 160.854 397.059 161.344C397.662 161.854 398.101 162.294 398.399 162.67C398.69 163.046 398.839 163.492 398.839 164.024C398.839 164.187 398.832 164.315 398.81 164.407C398.74 165.01 398.534 165.457 398.208 165.761C397.882 166.059 397.442 166.208 396.896 166.208C396.407 166.208 396.045 166.109 395.818 165.91C395.591 165.712 395.378 165.421 395.18 165.038C395.052 164.818 394.946 164.662 394.868 164.577C394.79 164.485 394.683 164.443 394.556 164.443C394.357 164.443 394.18 164.513 394.038 164.662C393.889 164.811 393.818 165.003 393.818 165.237C393.818 165.655 394.052 166.01 394.527 166.3C395.003 166.591 395.556 166.74 396.194 166.74C396.846 166.74 397.463 166.57 398.038 166.237C398.612 165.903 399.073 165.464 399.413 164.925C399.761 164.386 399.931 163.818 399.931 163.223C399.931 162.677 399.775 162.202 399.47 161.79C399.158 161.379 398.711 160.911 398.13 160.386C397.57 159.897 397.137 159.457 396.846 159.06C396.556 158.67 396.407 158.231 396.407 157.734C396.407 157.21 396.548 156.82 396.846 156.578C397.137 156.33 397.499 156.21 397.938 156.21C398.286 156.21 398.562 156.281 398.768 156.43C398.974 156.578 399.179 156.777 399.378 157.032C399.562 157.231 399.704 157.373 399.817 157.458C399.924 157.543 400.066 157.578 400.229 157.578C400.413 157.578 400.576 157.515 400.732 157.387C400.888 157.259 400.966 157.068 400.966 156.812C400.959 156.479 400.761 156.203 400.349 155.969Z" fill="#354C2A"/>
<path d="M408.653 155.529C407.688 155.529 406.766 155.82 405.88 156.401C405.001 156.983 404.256 157.727 403.66 158.642C403.058 159.55 402.675 160.464 402.512 161.372C402.42 161.918 402.377 162.4 402.377 162.819C402.377 163.982 402.668 164.932 403.249 165.655C403.831 166.385 404.689 166.747 405.816 166.747C407.128 166.747 408.426 166.237 409.716 165.215C409.773 165.159 409.773 165.109 409.73 165.052C409.688 164.996 409.638 164.974 409.581 164.974H409.525C408.709 165.577 407.766 165.875 406.717 165.875C405.788 165.875 405.064 165.535 404.547 164.854C404.029 164.173 403.767 163.258 403.767 162.11C403.767 161.599 403.824 161.074 403.923 160.528C404.887 160.393 405.816 160.181 406.688 159.876C407.709 159.514 408.546 159.082 409.213 158.578C409.879 158.075 410.269 157.557 410.397 157.011C410.418 156.94 410.425 156.841 410.425 156.713C410.425 156.352 410.269 156.061 409.964 155.855C409.66 155.635 409.22 155.529 408.653 155.529ZM408.823 157.578C408.638 158.252 408.078 158.819 407.128 159.266C406.291 159.67 405.242 159.961 404.001 160.167C404.214 159.089 404.589 158.174 405.15 157.451C405.759 156.656 406.539 156.266 407.483 156.266C407.865 156.266 408.192 156.337 408.461 156.486C408.738 156.628 408.872 156.869 408.872 157.195C408.872 157.358 408.858 157.486 408.823 157.578Z" fill="#354C2A"/>
<path d="M422.955 164.265C422.934 164.265 422.913 164.287 422.877 164.322C422.019 165.215 421.395 165.662 420.991 165.662C420.608 165.662 420.417 165.357 420.417 164.733C420.417 164.535 420.445 164.286 420.502 163.996L421.402 159.138C421.53 158.408 421.594 157.862 421.594 157.5C421.594 156.827 421.452 156.33 421.169 156.011C420.885 155.692 420.445 155.536 419.842 155.536C418.949 155.536 418.091 155.99 417.261 156.89C416.432 157.791 415.694 159.046 415.049 160.67C414.893 161.067 414.737 161.486 414.595 161.911L415.226 158.323C415.333 157.671 415.389 157.153 415.389 156.77C415.389 156.373 415.325 156.082 415.198 155.912C415.07 155.742 414.865 155.657 414.574 155.657C413.68 155.657 412.638 156.344 411.44 157.727C411.383 157.763 411.383 157.812 411.425 157.876C411.468 157.94 411.518 157.968 411.574 157.968C411.61 157.968 411.638 157.961 411.652 157.94C412.035 157.522 412.404 157.202 412.758 156.983C413.113 156.763 413.397 156.656 413.616 156.656C413.978 156.656 414.163 156.954 414.163 157.557C414.163 157.756 414.134 158.011 414.077 158.323L412.957 164.407C412.922 164.662 412.872 164.946 412.808 165.251C412.744 165.563 412.695 165.776 412.659 165.903L412.553 166.478C412.553 166.534 412.588 166.57 412.659 166.598C412.73 166.627 412.886 166.641 413.12 166.641C413.319 166.641 413.482 166.605 413.609 166.534C413.737 166.463 413.808 166.371 413.829 166.258C414.191 164.258 414.673 162.514 415.262 161.032C415.85 159.55 416.481 158.415 417.141 157.635C417.807 156.855 418.446 156.458 419.062 156.458C419.899 156.458 420.318 157.004 420.318 158.096C420.318 158.571 420.254 159.089 420.126 159.649L419.332 163.989C419.226 164.641 419.169 165.152 419.169 165.513C419.169 165.932 419.233 166.229 419.36 166.4C419.488 166.57 419.708 166.655 420.013 166.655C420.452 166.655 420.906 166.478 421.388 166.137C421.871 165.79 422.431 165.258 423.069 164.528C423.126 164.471 423.126 164.414 423.083 164.35C423.055 164.294 423.005 164.265 422.955 164.265Z" fill="#354C2A"/>
<path d="M431.33 155.997L430.43 156.054C429.217 156.125 428.352 156.167 427.785 156.181L428.139 154.224C428.175 154.168 428.104 154.139 427.92 154.139C427.771 154.139 427.7 154.168 427.7 154.224C427.593 154.827 427.324 155.309 426.891 155.685C426.459 156.061 425.962 156.245 425.381 156.245C425.36 156.245 425.338 156.266 425.31 156.316C425.282 156.359 425.267 156.401 425.267 156.437C425.267 156.529 425.296 156.571 425.353 156.571C425.75 156.571 426.026 156.607 426.168 156.678C426.31 156.749 426.388 156.912 426.388 157.167C426.388 157.422 426.352 157.72 426.281 158.068L425.083 164.563C425.048 164.818 425.026 165.003 425.026 165.109C425.026 165.669 425.189 166.088 425.516 166.35C425.842 166.612 426.26 166.747 426.771 166.747C427.317 166.747 427.891 166.591 428.501 166.286C429.111 165.974 429.813 165.478 430.614 164.783C430.65 164.747 430.642 164.705 430.586 164.648C430.529 164.591 430.479 164.563 430.423 164.563H430.394C429.919 164.981 429.472 165.301 429.054 165.52C428.636 165.74 428.175 165.847 427.664 165.847C427.21 165.847 426.87 165.74 426.657 165.52C426.437 165.301 426.331 164.967 426.331 164.513C426.331 164.364 426.367 164.074 426.437 163.641L427.664 156.805C428.203 156.82 428.77 156.855 429.38 156.933C430.111 157.025 430.529 157.068 430.635 157.068C430.82 157.068 431.011 156.961 431.21 156.742C431.408 156.522 431.508 156.33 431.508 156.167C431.522 156.054 431.458 155.997 431.33 155.997Z" fill="#354C2A"/>
<path d="M436.216 152.317C436.564 152.317 436.826 152.225 437.003 152.04C437.18 151.856 437.28 151.593 437.28 151.246C437.28 150.941 437.188 150.693 437.003 150.508C436.819 150.324 436.556 150.232 436.216 150.232C435.869 150.232 435.599 150.324 435.408 150.508C435.216 150.693 435.124 150.934 435.124 151.246C435.124 151.593 435.216 151.856 435.408 152.04C435.599 152.225 435.869 152.317 436.216 152.317Z" fill="#354C2A"/>
<path d="M437.386 164.372C437.003 164.776 436.641 165.088 436.294 165.315C435.946 165.542 435.67 165.655 435.45 165.655C435.088 165.655 434.904 165.364 434.904 164.783C434.904 164.549 434.932 164.287 434.982 163.996L436.074 158.323C436.201 157.706 436.265 157.188 436.265 156.77C436.265 156.373 436.194 156.082 436.06 155.912C435.925 155.742 435.698 155.657 435.393 155.657C434.953 155.657 434.485 155.827 433.975 156.16C433.464 156.5 432.904 157.018 432.287 157.727C432.23 157.763 432.23 157.812 432.273 157.876C432.316 157.94 432.365 157.968 432.422 157.968C432.457 157.968 432.486 157.961 432.507 157.94C432.89 157.522 433.259 157.202 433.613 156.983C433.968 156.763 434.251 156.657 434.471 156.657C434.634 156.657 434.769 156.734 434.868 156.89C434.968 157.046 435.017 157.266 435.017 157.557C435.017 157.756 434.989 158.011 434.939 158.323L433.819 163.996C433.691 164.577 433.627 165.081 433.627 165.499C433.627 165.939 433.698 166.237 433.847 166.414C433.989 166.584 434.223 166.669 434.528 166.669C435.386 166.669 436.414 165.981 437.613 164.598C437.669 164.563 437.676 164.513 437.641 164.45C437.606 164.386 437.549 164.357 437.478 164.357C437.428 164.343 437.4 164.357 437.386 164.372Z" fill="#354C2A"/>
<path d="M450.512 146.857C450.526 146.821 450.512 146.779 450.455 146.722C450.398 146.665 450.349 146.637 450.292 146.637H450.235L446.881 148.275C446.81 148.296 446.789 148.346 446.81 148.438C446.838 148.53 446.881 148.573 446.931 148.573H446.987C447.569 148.282 448.03 148.133 448.377 148.133C448.796 148.133 449.008 148.374 449.008 148.842C449.008 148.934 448.987 149.09 448.952 149.303L447.689 155.954C447.299 155.671 446.839 155.522 446.307 155.522C445.25 155.522 444.208 155.862 443.165 156.543C442.123 157.224 441.237 158.131 440.492 159.273C439.747 160.408 439.251 161.642 439.017 162.968C438.946 163.329 438.911 163.712 438.911 164.109C438.911 165.017 439.116 165.691 439.528 166.116C439.939 166.541 440.457 166.754 441.095 166.754C442.222 166.754 443.321 166.116 444.399 164.847C445.229 163.868 445.995 162.613 446.718 161.103L446.172 163.975C446.044 164.591 445.98 165.109 445.98 165.527C445.98 165.925 446.051 166.215 446.186 166.385C446.321 166.556 446.541 166.641 446.853 166.641C447.292 166.641 447.746 166.463 448.214 166.123C448.689 165.776 449.249 165.244 449.902 164.513C449.959 164.457 449.959 164.4 449.916 164.336C449.873 164.272 449.824 164.244 449.767 164.244C449.746 164.244 449.725 164.265 449.682 164.301C448.789 165.194 448.165 165.641 447.803 165.641C447.42 165.641 447.229 165.343 447.229 164.74C447.229 164.521 447.257 164.265 447.307 163.975L450.512 146.857ZM444.357 164.194C443.527 165.13 442.697 165.598 441.861 165.598C441.336 165.598 440.925 165.4 440.634 164.996C440.343 164.598 440.194 164.003 440.194 163.223C440.194 162.804 440.23 162.386 440.301 161.968C440.605 160.202 441.244 158.833 442.194 157.862C443.151 156.89 444.264 156.401 445.534 156.401C446.058 156.401 446.47 156.55 446.76 156.841C447.051 157.132 447.2 157.543 447.2 158.068C447.2 158.755 446.931 159.72 446.392 160.947C445.867 162.173 445.186 163.258 444.357 164.194Z" fill="#354C2A"/>
<path d="M456.95 155.529C456.078 155.529 455.241 155.777 454.44 156.266C453.639 156.756 452.965 157.437 452.405 158.302C451.852 159.167 451.476 160.117 451.27 161.152C451.178 161.592 451.136 162.081 451.136 162.627C451.136 163.882 451.434 164.889 452.036 165.655C452.639 166.421 453.462 166.804 454.518 166.804C455.334 166.804 456.149 166.57 456.943 166.095C457.745 165.62 458.447 164.96 459.042 164.102C459.645 163.244 460.049 162.266 460.269 161.159C460.375 160.635 460.432 160.131 460.432 159.656C460.432 158.458 460.127 157.465 459.517 156.692C458.915 155.919 458.057 155.529 456.95 155.529ZM459.021 162.351C458.801 163.514 458.362 164.435 457.695 165.109C457.028 165.783 456.291 166.116 455.475 166.116C454.511 166.116 453.752 165.662 453.199 164.755C452.646 163.847 452.37 162.762 452.37 161.507C452.37 160.982 452.426 160.472 452.533 159.982C452.767 158.855 453.22 157.94 453.894 157.238C454.568 156.536 455.319 156.188 456.156 156.188C457.121 156.188 457.865 156.657 458.376 157.593C458.893 158.529 459.156 159.628 459.156 160.883C459.156 161.351 459.113 161.847 459.021 162.351Z" fill="#354C2A"/>
<path d="M468.012 155.969C467.601 155.735 467.119 155.614 466.552 155.614C465.75 155.614 464.999 155.848 464.297 156.309C463.595 156.77 463.176 157.422 463.027 158.259C462.992 158.479 462.971 158.635 462.971 158.72C462.971 159.231 463.112 159.67 463.41 160.046C463.701 160.422 464.134 160.854 464.722 161.344C465.325 161.854 465.764 162.294 466.062 162.67C466.353 163.046 466.502 163.492 466.502 164.024C466.502 164.187 466.495 164.315 466.474 164.407C466.403 165.01 466.197 165.457 465.871 165.761C465.545 166.059 465.105 166.208 464.559 166.208C464.07 166.208 463.708 166.109 463.481 165.91C463.254 165.712 463.041 165.421 462.843 165.038C462.715 164.818 462.609 164.662 462.531 164.577C462.453 164.485 462.347 164.443 462.219 164.443C462.02 164.443 461.843 164.513 461.701 164.662C461.552 164.811 461.481 165.003 461.481 165.237C461.481 165.655 461.715 166.01 462.191 166.3C462.666 166.591 463.219 166.74 463.857 166.74C464.509 166.74 465.126 166.57 465.701 166.237C466.275 165.903 466.736 165.464 467.076 164.925C467.424 164.386 467.594 163.818 467.594 163.223C467.594 162.677 467.438 162.202 467.133 161.79C466.821 161.379 466.374 160.911 465.793 160.386C465.233 159.897 464.8 159.457 464.509 159.06C464.219 158.67 464.07 158.231 464.07 157.734C464.07 157.21 464.212 156.82 464.509 156.578C464.8 156.33 465.162 156.21 465.601 156.21C465.949 156.21 466.225 156.281 466.431 156.43C466.637 156.578 466.842 156.777 467.041 157.032C467.225 157.231 467.367 157.373 467.481 157.458C467.587 157.543 467.729 157.578 467.892 157.578C468.076 157.578 468.239 157.515 468.395 157.387C468.551 157.259 468.629 157.068 468.629 156.812C468.622 156.479 468.424 156.203 468.012 155.969Z" fill="#354C2A"/>
<path d="M487.917 146.857C487.931 146.821 487.917 146.779 487.86 146.722C487.804 146.665 487.754 146.637 487.697 146.637H487.64L484.286 148.275C484.215 148.296 484.194 148.346 484.215 148.438C484.244 148.53 484.286 148.573 484.336 148.573H484.393C484.974 148.282 485.435 148.133 485.783 148.133C486.201 148.133 486.414 148.374 486.414 148.842C486.414 148.934 486.392 149.09 486.357 149.303L485.095 155.954C484.705 155.671 484.244 155.522 483.712 155.522C482.655 155.522 481.613 155.862 480.571 156.543C479.528 157.224 478.642 158.131 477.897 159.273C477.153 160.408 476.656 161.642 476.422 162.968C476.351 163.329 476.316 163.712 476.316 164.109C476.316 165.017 476.522 165.691 476.933 166.116C477.344 166.541 477.862 166.754 478.5 166.754C479.627 166.754 480.727 166.116 481.804 164.847C482.634 163.868 483.4 162.613 484.123 161.103L483.577 163.975C483.45 164.591 483.386 165.109 483.386 165.527C483.386 165.925 483.457 166.215 483.591 166.385C483.726 166.556 483.953 166.641 484.258 166.641C484.698 166.641 485.151 166.463 485.619 166.123C486.095 165.776 486.655 165.244 487.307 164.513C487.364 164.457 487.364 164.4 487.321 164.336C487.279 164.272 487.229 164.244 487.172 164.244C487.151 164.244 487.13 164.265 487.087 164.301C486.194 165.194 485.57 165.641 485.208 165.641C484.825 165.641 484.634 165.343 484.634 164.74C484.634 164.521 484.662 164.265 484.712 163.975L487.917 146.857ZM481.762 164.194C480.932 165.13 480.103 165.598 479.266 165.598C478.741 165.598 478.33 165.4 478.039 164.996C477.748 164.598 477.599 164.003 477.599 163.223C477.599 162.804 477.635 162.386 477.706 161.968C478.011 160.202 478.649 158.833 479.599 157.862C480.556 156.89 481.67 156.401 482.939 156.401C483.464 156.401 483.875 156.55 484.166 156.841C484.457 157.132 484.605 157.543 484.605 158.068C484.605 158.755 484.336 159.72 483.797 160.947C483.272 162.173 482.592 163.258 481.762 164.194Z" fill="#354C2A"/>
<path d="M494.788 155.529C493.824 155.529 492.902 155.82 492.016 156.401C491.136 156.983 490.392 157.727 489.796 158.642C489.193 159.55 488.811 160.464 488.647 161.372C488.555 161.918 488.513 162.4 488.513 162.819C488.513 163.982 488.803 164.932 489.385 165.655C489.966 166.385 490.824 166.747 491.952 166.747C493.264 166.747 494.561 166.237 495.852 165.215C495.909 165.159 495.909 165.109 495.866 165.052C495.824 164.996 495.774 164.974 495.717 164.974H495.661C494.845 165.577 493.902 165.875 492.852 165.875C491.924 165.875 491.2 165.535 490.683 164.854C490.165 164.173 489.903 163.258 489.903 162.11C489.903 161.599 489.959 161.074 490.059 160.528C491.023 160.393 491.952 160.181 492.824 159.876C493.845 159.514 494.682 159.082 495.349 158.578C496.015 158.075 496.405 157.557 496.533 157.011C496.554 156.94 496.561 156.841 496.561 156.713C496.561 156.352 496.405 156.061 496.1 155.855C495.788 155.635 495.356 155.529 494.788 155.529ZM494.951 157.578C494.767 158.252 494.207 158.819 493.257 159.266C492.42 159.67 491.37 159.961 490.129 160.167C490.342 159.089 490.718 158.174 491.278 157.451C491.888 156.656 492.668 156.266 493.611 156.266C493.994 156.266 494.32 156.337 494.59 156.486C494.866 156.628 495.001 156.869 495.001 157.195C495.008 157.358 494.987 157.486 494.951 157.578Z" fill="#354C2A"/>
<path d="M501.638 160.358C501.078 159.869 500.646 159.429 500.355 159.032C500.064 158.642 499.915 158.202 499.915 157.706C499.915 157.181 500.057 156.791 500.355 156.55C500.646 156.302 501.007 156.181 501.447 156.181C501.794 156.181 502.071 156.252 502.277 156.401C502.482 156.55 502.688 156.749 502.886 157.004C503.071 157.203 503.213 157.344 503.326 157.429C503.432 157.515 503.574 157.55 503.737 157.55C503.922 157.55 504.085 157.486 504.241 157.359C504.397 157.231 504.475 157.039 504.475 156.784C504.475 156.479 504.269 156.203 503.865 155.969C503.454 155.735 502.971 155.614 502.404 155.614C501.603 155.614 500.851 155.848 500.149 156.309C499.447 156.77 499.029 157.422 498.88 158.259C498.844 158.479 498.823 158.635 498.823 158.72C498.823 159.231 498.965 159.67 499.263 160.046C499.554 160.422 499.986 160.854 500.575 161.344C501.177 161.854 501.617 162.294 501.915 162.67C502.206 163.046 502.354 163.492 502.354 164.024C502.354 164.187 502.347 164.315 502.326 164.407C502.255 165.01 502.05 165.457 501.723 165.761C501.397 166.059 500.958 166.208 500.412 166.208C499.922 166.208 499.561 166.109 499.334 165.91C499.107 165.712 498.894 165.421 498.695 165.038C498.568 164.818 498.461 164.662 498.383 164.577C498.305 164.485 498.199 164.443 498.071 164.443C497.873 164.443 497.696 164.513 497.554 164.662C497.405 164.811 497.334 165.003 497.334 165.237C497.334 165.655 497.568 166.01 498.043 166.3C498.518 166.591 499.071 166.74 499.71 166.74C500.362 166.74 500.979 166.57 501.553 166.237C502.128 165.903 502.588 165.464 502.929 164.925C503.276 164.386 503.447 163.818 503.447 163.223C503.447 162.677 503.291 162.202 502.986 161.79C502.667 161.358 502.22 160.89 501.638 160.358Z" fill="#354C2A"/>
<path d="M512.906 155.692C511.757 155.692 510.474 156.139 509.063 157.018L509.609 153.976C509.63 153.941 509.616 153.905 509.566 153.884C509.524 153.855 509.481 153.841 509.446 153.841C509.353 153.841 509.311 153.87 509.311 153.919C509.254 154.245 509.141 154.536 508.971 154.792C508.8 155.047 508.609 155.281 508.396 155.501C508.191 155.72 508.084 155.848 508.084 155.884L507.708 157.975C507.226 158.344 506.737 158.748 506.226 159.216C506.17 159.238 506.177 159.28 506.24 159.351C506.304 159.422 506.361 159.457 506.418 159.457H506.446C506.857 159.124 507.24 158.833 507.602 158.564L505.297 171.463C505.191 172.065 505.085 172.498 504.985 172.76C504.886 173.023 504.737 173.207 504.539 173.321C504.34 173.427 504.021 173.519 503.581 173.597C503.51 173.611 503.482 173.675 503.496 173.789C503.517 173.895 503.56 173.945 503.631 173.923L508.212 173.243C508.283 173.221 508.311 173.172 508.297 173.079C508.276 172.987 508.24 172.945 508.191 172.945H508.162C507.801 172.98 507.574 173.001 507.481 173.001C507.12 173.001 506.857 172.923 506.687 172.767C506.524 172.611 506.439 172.363 506.439 172.016C506.439 171.831 506.467 171.59 506.524 171.278L507.403 166.357C507.758 166.421 508.318 166.449 509.091 166.449C510.034 166.449 510.97 166.13 511.885 165.492C512.807 164.854 513.587 164.003 514.232 162.939C514.877 161.876 515.282 160.734 515.445 159.514C515.501 159.153 515.53 158.826 515.53 158.536C515.53 157.607 515.303 156.905 514.863 156.422C514.409 155.94 513.757 155.692 512.906 155.692ZM514.133 160.415C513.913 162.017 513.445 163.294 512.715 164.251C511.984 165.208 511.013 165.683 509.793 165.683C508.999 165.683 508.269 165.527 507.602 165.208L508.956 157.628C509.169 157.493 509.368 157.373 509.552 157.273C510.353 156.827 511.155 156.607 511.956 156.607C512.793 156.607 513.381 156.841 513.715 157.316C514.048 157.791 514.218 158.436 514.218 159.252C514.218 159.606 514.19 159.996 514.133 160.415Z" fill="#354C2A"/>
<path d="M522.096 164.372C521.713 164.776 521.352 165.088 521.004 165.315C520.657 165.542 520.38 165.655 520.16 165.655C519.799 165.655 519.614 165.364 519.614 164.783C519.614 164.549 519.643 164.287 519.692 163.996L520.784 158.323C520.912 157.706 520.976 157.188 520.976 156.77C520.976 156.373 520.905 156.082 520.77 155.912C520.635 155.742 520.408 155.657 520.104 155.657C519.664 155.657 519.196 155.827 518.685 156.16C518.175 156.5 517.615 157.018 516.998 157.727C516.941 157.763 516.941 157.812 516.983 157.876C517.026 157.94 517.076 157.968 517.132 157.968C517.168 157.968 517.196 157.961 517.217 157.94C517.6 157.522 517.969 157.202 518.324 156.983C518.678 156.763 518.962 156.657 519.182 156.657C519.345 156.657 519.48 156.734 519.579 156.89C519.678 157.046 519.728 157.266 519.728 157.557C519.728 157.756 519.699 158.011 519.65 158.323L518.529 163.996C518.402 164.577 518.338 165.081 518.338 165.499C518.338 165.939 518.409 166.237 518.558 166.414C518.699 166.584 518.934 166.669 519.238 166.669C520.096 166.669 521.125 165.981 522.323 164.598C522.38 164.563 522.387 164.513 522.351 164.45C522.316 164.386 522.259 164.357 522.188 164.357C522.146 164.343 522.117 164.357 522.096 164.372Z" fill="#354C2A"/>
<path d="M520.118 150.516C519.926 150.7 519.834 150.941 519.834 151.253C519.834 151.601 519.926 151.863 520.118 152.047C520.309 152.232 520.579 152.324 520.926 152.324C521.274 152.324 521.536 152.232 521.713 152.047C521.89 151.863 521.99 151.601 521.99 151.253C521.99 150.948 521.898 150.7 521.713 150.516C521.529 150.331 521.266 150.239 520.926 150.239C520.579 150.239 520.309 150.331 520.118 150.516Z" fill="#354C2A"/>
<path d="M530.01 155.529C529.046 155.529 528.124 155.82 527.237 156.401C526.358 156.983 525.614 157.727 525.018 158.642C524.415 159.55 524.032 160.464 523.869 161.372C523.777 161.918 523.734 162.4 523.734 162.819C523.734 163.982 524.025 164.932 524.607 165.655C525.188 166.385 526.046 166.747 527.174 166.747C528.485 166.747 529.783 166.237 531.074 165.215C531.13 165.159 531.13 165.109 531.088 165.052C531.045 164.996 530.996 164.974 530.939 164.974H530.882C530.067 165.577 529.124 165.875 528.074 165.875C527.145 165.875 526.422 165.535 525.904 164.854C525.387 164.173 525.124 163.258 525.124 162.11C525.124 161.599 525.181 161.074 525.28 160.528C526.245 160.393 527.174 160.181 528.046 159.876C529.067 159.514 529.904 159.082 530.57 158.578C531.237 158.075 531.627 157.557 531.754 157.011C531.776 156.94 531.783 156.841 531.783 156.713C531.783 156.352 531.627 156.061 531.322 155.855C531.01 155.635 530.577 155.529 530.01 155.529ZM530.173 157.578C529.989 158.252 529.429 158.819 528.478 159.266C527.642 159.67 526.592 159.961 525.351 160.167C525.564 159.089 525.94 158.174 526.5 157.451C527.11 156.656 527.89 156.266 528.833 156.266C529.216 156.266 529.542 156.337 529.811 156.486C530.088 156.628 530.223 156.869 530.223 157.195C530.23 157.358 530.209 157.486 530.173 157.578Z" fill="#354C2A"/>
<path d="M540.051 155.642C539.434 155.642 538.76 156.224 538.044 157.387C537.328 158.55 536.669 159.968 536.08 161.642C535.931 162.053 535.832 162.429 535.704 162.826L536.286 159.621C536.47 158.635 536.555 157.841 536.555 157.217C536.555 156.635 536.47 156.224 536.3 155.99C536.13 155.756 535.874 155.635 535.548 155.635C534.69 155.635 533.747 156.224 532.712 157.408C532.69 157.444 532.705 157.493 532.754 157.557C532.797 157.621 532.839 157.656 532.875 157.656L532.932 157.628C533.619 156.976 534.18 156.642 534.598 156.642C535.073 156.642 535.307 157.089 535.307 157.983C535.307 158.436 535.243 158.982 535.116 159.621L534.272 164.393L533.995 165.839L533.86 166.463C533.86 166.52 533.889 166.556 533.953 166.584C534.016 166.612 534.165 166.627 534.399 166.627C534.598 166.627 534.761 166.591 534.874 166.52C534.995 166.449 535.059 166.357 535.08 166.244C535.314 165.095 535.697 163.769 536.215 162.258C536.732 160.748 537.278 159.457 537.853 158.387C538.427 157.316 538.924 156.777 539.342 156.777C539.448 156.777 539.548 156.82 539.626 156.898C539.711 156.983 539.774 157.068 539.831 157.16C539.938 157.344 540.051 157.479 540.157 157.571C540.264 157.663 540.42 157.706 540.618 157.706C541.037 157.706 541.299 157.486 541.413 157.054C541.483 156.692 541.37 156.366 541.058 156.075C540.753 155.784 540.413 155.642 540.051 155.642Z" fill="#354C2A"/>
<path d="M545.568 156.798C546.986 156.805 548.369 156.883 549.716 157.032C549.9 157.054 550.106 156.94 550.347 156.692C550.581 156.444 550.702 156.245 550.702 156.082C550.702 156.047 550.68 156.011 550.645 155.976C550.61 155.94 550.553 155.919 550.482 155.919L549.418 156.004C549.163 156.025 548.589 156.061 547.688 156.125C546.929 156.181 546.277 156.203 545.681 156.21L546.036 154.224C546.071 154.168 546 154.139 545.816 154.139C545.667 154.139 545.596 154.168 545.596 154.224C545.49 154.827 545.22 155.309 544.788 155.685C544.355 156.061 543.859 156.245 543.277 156.245C543.256 156.245 543.235 156.266 543.206 156.316C543.178 156.359 543.164 156.401 543.164 156.437C543.164 156.529 543.192 156.571 543.249 156.571C543.667 156.571 543.944 156.607 544.079 156.678C544.213 156.749 544.284 156.912 544.284 157.167C544.284 157.259 544.249 157.557 544.178 158.068L542.98 164.563C542.944 164.854 542.923 165.045 542.923 165.137C542.923 165.698 543.093 166.109 543.426 166.364C543.767 166.619 544.178 166.747 544.667 166.747C545.178 166.747 545.71 166.605 546.277 166.322C546.837 166.038 547.525 165.584 548.326 164.946C548.362 164.911 548.355 164.861 548.298 164.811C548.241 164.755 548.192 164.733 548.135 164.733H548.106C547.582 165.116 547.142 165.4 546.795 165.577C546.447 165.761 546.036 165.854 545.568 165.854C545.114 165.854 544.774 165.747 544.561 165.527C544.341 165.308 544.235 164.974 544.235 164.521C544.235 164.372 544.27 164.081 544.341 163.648L545.568 156.798Z" fill="#354C2A"/>
<path d="M560.431 164.315C559.573 165.208 558.942 165.655 558.523 165.655C558.176 165.655 558.006 165.357 558.006 164.755C558.006 164.535 558.034 164.279 558.084 163.989L559.665 155.338C559.686 155.302 559.637 155.274 559.53 155.252C559.424 155.238 559.353 155.252 559.339 155.309C559.282 155.635 559.119 155.933 558.849 156.196C558.8 156.245 558.757 156.266 558.708 156.309C558.615 156.196 558.545 156.061 558.424 155.976C558.013 155.678 557.538 155.522 556.992 155.522C556.063 155.522 555.084 155.947 554.049 156.791C553.013 157.635 552.106 158.713 551.333 160.025C550.56 161.337 550.085 162.634 549.9 163.925C549.865 164.329 549.844 164.599 549.844 164.747C549.844 166.095 550.39 166.768 551.482 166.768C552.574 166.768 553.723 166.109 554.921 164.79C555.871 163.748 556.715 162.45 557.467 160.932L556.942 163.989C556.836 164.641 556.779 165.159 556.779 165.542C556.779 165.939 556.843 166.229 556.97 166.4C557.098 166.57 557.311 166.655 557.601 166.655C558.041 166.655 558.495 166.478 558.977 166.137C559.459 165.79 560.019 165.258 560.658 164.528C560.693 164.492 560.693 164.443 560.658 164.379C560.622 164.315 560.573 164.286 560.523 164.286C560.48 164.294 560.452 164.301 560.431 164.315ZM554.46 164.563C553.68 165.251 552.95 165.598 552.276 165.598C551.496 165.598 551.106 165.059 551.106 163.989C551.106 163.677 551.134 163.336 551.191 162.953C551.368 161.755 551.73 160.649 552.269 159.649C552.808 158.649 553.425 157.855 554.141 157.273C554.85 156.692 555.545 156.401 556.212 156.401C556.758 156.401 557.176 156.557 557.467 156.862C557.757 157.174 557.906 157.578 557.906 158.089C557.906 158.344 557.885 158.543 557.85 158.692C557.63 159.748 557.211 160.812 556.58 161.897C555.942 162.989 555.24 163.875 554.46 164.563Z" fill="#354C2A"/>
<path d="M573.173 164.265C573.152 164.265 573.131 164.287 573.095 164.322C572.237 165.215 571.613 165.662 571.209 165.662C570.826 165.662 570.635 165.357 570.635 164.733C570.635 164.535 570.663 164.286 570.72 163.996L571.62 159.138C571.748 158.408 571.812 157.862 571.812 157.5C571.812 156.827 571.67 156.33 571.386 156.011C571.103 155.692 570.663 155.536 570.06 155.536C569.167 155.536 568.309 155.99 567.479 156.89C566.649 157.791 565.912 159.046 565.267 160.67C565.111 161.067 564.955 161.486 564.813 161.911L565.444 158.323C565.55 157.671 565.607 157.153 565.607 156.77C565.607 156.373 565.543 156.082 565.416 155.912C565.288 155.742 565.082 155.657 564.792 155.657C563.898 155.657 562.856 156.344 561.657 157.727C561.601 157.763 561.601 157.812 561.643 157.876C561.686 157.94 561.735 157.968 561.792 157.968C561.827 157.968 561.856 157.961 561.87 157.94C562.253 157.522 562.622 157.202 562.976 156.983C563.331 156.763 563.614 156.656 563.834 156.656C564.196 156.656 564.38 156.954 564.38 157.557C564.38 157.756 564.352 158.011 564.295 158.323L563.175 164.407C563.139 164.662 563.09 164.946 563.026 165.251C562.962 165.563 562.912 165.776 562.877 165.903L562.771 166.478C562.771 166.534 562.806 166.57 562.877 166.598C562.948 166.627 563.104 166.641 563.338 166.641C563.536 166.641 563.7 166.605 563.827 166.534C563.955 166.463 564.026 166.371 564.047 166.258C564.409 164.258 564.891 162.514 565.479 161.032C566.068 159.55 566.699 158.415 567.359 157.635C568.025 156.855 568.663 156.458 569.28 156.458C570.117 156.458 570.535 157.004 570.535 158.096C570.535 158.571 570.472 159.089 570.344 159.649L569.55 163.989C569.443 164.641 569.387 165.152 569.387 165.513C569.387 165.932 569.45 166.229 569.578 166.4C569.706 166.57 569.926 166.655 570.23 166.655C570.67 166.655 571.124 166.478 571.606 166.137C572.088 165.79 572.648 165.258 573.287 164.528C573.343 164.471 573.343 164.414 573.301 164.35C573.28 164.294 573.23 164.265 573.173 164.265Z" fill="#354C2A"/>
<path d="M575.492 164.648C575.166 164.648 574.903 164.74 574.712 164.925C574.52 165.109 574.428 165.35 574.428 165.662C574.428 165.988 574.52 166.251 574.712 166.442C574.903 166.634 575.159 166.733 575.492 166.733C575.839 166.733 576.102 166.641 576.286 166.442C576.47 166.251 576.563 165.995 576.563 165.662C576.563 165.357 576.47 165.109 576.286 164.925C576.102 164.733 575.839 164.648 575.492 164.648Z" fill="#354C2A"/>
</svg>
