<svg width="156" height="34" viewBox="0 0 156 34" fill="none" xmlns="http://www.w3.org/2000/svg">
<g clip-path="url(#clip0_36_5956)">
<path d="M31.0463 5.18809C28.1157 2.01163 24.1151 0.150815 19.8922 0H18.743C16.0483 0.0992292 13.4192 0.894116 11.091 2.31352C10.796 2.51222 10.4691 2.6537 10.126 2.73116C9.83737 2.79743 9.54261 2.8302 9.24708 2.82887C9.02829 2.82865 8.80978 2.81232 8.59318 2.78001H8.54335C8.39233 2.76898 8.24131 2.7611 8.1054 2.75479C7.96948 2.74849 7.83055 2.74692 7.70823 2.74692C7.13174 2.72386 6.55593 2.80818 6.00778 2.99592C5.56451 3.16716 5.1741 3.46074 4.87818 3.84537C4.27411 4.59553 4.04155 5.55057 3.96151 6.36692C3.90749 6.91587 3.91357 7.46945 3.97963 8.01696C3.87694 9.94595 3.31969 11.2698 2.7715 12.1145C2.478 12.5977 2.10112 13.0198 1.66002 13.3595C1.22213 13.6477 0.842494 14.0224 0.542496 14.4627C0.269942 14.8717 0.0935245 15.3419 0.02753 15.8354C-0.0430552 16.4592 0.0288772 17.0916 0.237443 17.6808C0.473219 18.371 0.825624 19.0115 1.27795 19.572C1.87643 20.1526 2.42146 20.7905 2.9059 21.4773C3.48794 22.2933 4.01717 23.1488 4.49007 24.0383C5.47284 26.2932 6.91586 28.2969 8.71817 29.9091C10.5205 31.5212 12.6386 32.703 14.9242 33.3717C17.2099 34.0403 19.608 34.1798 21.9507 33.7802C24.2934 33.3807 26.5242 32.4518 28.487 31.0586C30.4498 29.6654 32.0972 27.8414 33.3139 25.7144C34.5307 23.5873 35.2874 21.2085 35.5312 18.7444C35.7749 16.2803 35.4999 13.7903 34.7252 11.4487C33.9505 9.1071 32.6949 6.97041 31.0463 5.18809ZM30.7684 28.9301C28.9198 30.858 26.6513 32.2902 24.1568 33.1042C21.6624 33.9181 19.0162 34.0897 16.4444 33.6042C13.8726 33.1186 11.4517 31.9905 9.3886 30.3162C7.3255 28.6418 5.68156 26.4711 4.59729 23.9894C4.12112 23.0942 3.58784 22.2333 3.00104 21.4127C2.51296 20.7194 1.96334 20.0757 1.35949 19.49C0.919376 18.9443 0.576212 18.321 0.346175 17.6493C0.142945 17.0779 0.0730586 16.4642 0.142302 15.859C0.205324 15.3837 0.375044 14.9306 0.637636 14.5368C0.928942 14.1075 1.29841 13.7422 1.72495 13.4619C2.17826 13.1131 2.56584 12.6798 2.86815 12.1838C3.42087 11.3218 3.98869 9.97747 4.09138 8.02011V8.00909C4.02677 7.46569 4.02069 6.91645 4.07326 6.37165C4.15179 5.58366 4.37529 4.63808 4.96426 3.91629C5.24877 3.54773 5.62339 3.26622 6.04856 3.10151C6.5843 2.91943 7.14671 2.83779 7.70974 2.86039C7.83508 2.86039 7.96646 2.86038 8.10238 2.86826C8.23829 2.87614 8.38327 2.88087 8.53731 2.89348H8.57959C8.80105 2.92812 9.02466 2.9455 9.24859 2.94549C9.5532 2.9472 9.85707 2.9139 10.1547 2.8462C10.5093 2.7635 10.8472 2.61626 11.1529 2.41123C13.4645 1.00313 16.0742 0.214252 18.749 0.115043H19.8937C23.0444 0.228055 26.0947 1.29949 28.6697 3.19759C31.2446 5.0957 33.2318 7.73772 34.387 10.7988C35.5422 13.8598 35.815 17.2065 35.1718 20.4272C34.5287 23.6479 32.9976 26.6022 30.7669 28.9269" fill="#111210"/>
<path d="M30.2621 5.58534C28.828 4.08495 27.124 2.89493 25.2479 2.08359C23.3719 1.27224 21.3608 0.855548 19.3301 0.857428C17.9593 0.856273 16.5944 1.04385 15.2707 1.41532C13.9585 1.78301 12.6993 2.33267 11.527 3.0496C10.2449 3.9353 8.65773 3.66738 8.46141 3.63429H8.43876C8.327 3.63429 8.20317 3.62168 8.07632 3.62011H7.70935C6.99202 3.62011 6.52991 3.70993 6.19918 3.8502C5.92969 3.96698 5.69319 4.15357 5.51206 4.39233C4.52139 5.63735 4.77359 7.72236 4.79624 7.9225C4.79882 7.94204 4.8039 7.96112 4.81134 7.97924C4.80724 7.99253 4.8047 8.00629 4.80379 8.02021C4.58784 12.3384 2.24859 13.9916 2.1157 14.0877C1.77739 14.3128 1.48196 14.6014 1.24433 14.9387C1.03758 15.2384 0.904327 15.5863 0.856222 15.9521C0.65537 17.454 1.85142 18.9464 1.86954 18.9653C2.49413 19.5649 3.06158 20.2262 3.56395 20.94C4.17343 21.8001 4.72834 22.7008 5.22513 23.6365C6.15832 25.7919 7.53402 27.707 9.25488 29.2461C10.9757 30.7853 12.9997 31.911 15.1836 32.5436C17.3674 33.1762 19.6578 33.3001 21.8927 32.9068C24.1276 32.5134 26.2523 31.6123 28.1165 30.2672C29.9807 28.9221 31.5389 27.1659 32.6808 25.1228C33.8227 23.0797 34.5204 20.7998 34.7245 18.4442C34.9286 16.0886 34.6342 13.715 33.862 11.4913C33.0899 9.2676 31.8589 7.24817 30.2561 5.57589M30.1746 28.3045C28.4186 30.1342 26.2641 31.4928 23.8954 32.2642C21.5266 33.0356 19.0141 33.1968 16.5727 32.734C14.1312 32.2712 11.8335 31.1982 9.87601 29.6068C7.91853 28.0153 6.35954 25.9528 5.33235 23.5955C4.83107 22.6518 4.27058 21.7436 3.65456 20.877C3.14824 20.1598 2.57731 19.4949 1.94958 18.8913C1.89068 18.8188 0.773163 17.3957 0.961934 15.971C1.00891 15.6245 1.13589 15.2951 1.33192 15.0112C1.56075 14.6853 1.84544 14.4063 2.17158 14.1886C2.30447 14.094 4.69204 12.4109 4.9095 8.04228L4.92158 7.98239L4.90346 7.92881V7.91935C4.8793 7.72866 4.63163 5.68462 5.5921 4.47901C5.76201 4.24941 5.98562 4.06924 6.24147 3.95579C6.55407 3.82341 6.99655 3.73673 7.70331 3.73673H8.06726C8.18807 3.73673 8.30888 3.74461 8.42214 3.75249H8.44027C8.64263 3.78558 10.2661 4.05665 11.5814 3.15046C12.7446 2.4396 13.9935 1.89371 15.2949 1.52722C16.6095 1.15973 17.9646 0.973758 19.3255 0.974049C22.362 0.971991 25.3309 1.91024 27.8561 3.66999C30.3814 5.42975 32.3495 7.93189 33.5113 10.8596C34.6731 13.7873 34.9763 17.009 34.3826 20.1166C33.7889 23.2243 32.3249 26.0783 30.1761 28.3171" fill="#111210"/>
<path d="M19.4493 2.35449C16.6432 2.35356 13.8999 3.22108 11.5663 4.84734C9.23276 6.4736 7.41374 8.78554 6.33935 11.4907C5.26495 14.196 4.98346 17.1729 5.53045 20.0451C6.07745 22.9173 7.42838 25.5556 9.41236 27.6265C11.3963 29.6974 13.9243 31.1078 16.6764 31.6792C19.4285 32.2507 22.2812 31.9575 24.8737 30.8369C27.4662 29.7163 29.682 27.8185 31.2408 25.3835C32.7997 22.9486 33.6316 20.0859 33.6313 17.1576C33.6285 13.233 32.1335 9.46995 29.4746 6.69456C26.8156 3.91916 23.21 2.35825 19.4493 2.35449ZM19.4493 31.0986C16.8077 31.098 14.2255 30.28 12.0293 28.748C9.83314 27.216 8.12156 25.0388 7.11099 22.4917C6.10042 19.9447 5.83624 17.1421 6.35185 14.4384C6.86747 11.7346 8.13973 9.25113 10.0078 7.30192C11.8758 5.3527 14.2557 4.02529 16.8466 3.48751C19.4375 2.94973 22.1231 3.22573 24.5636 4.28063C27.0042 5.33552 29.0903 7.12194 30.5581 9.41399C32.0259 11.7061 32.8094 14.4008 32.8097 17.1576C32.8073 20.8545 31.3989 24.3992 28.8938 27.0132C26.3887 29.6271 22.9918 31.0965 19.4493 31.0986Z" fill="#111210"/>
<path d="M28.0542 17.3766L30.3195 14.9638C30.3575 14.9228 30.3873 14.8744 30.4073 14.8214C30.4272 14.7683 30.4369 14.7117 30.4358 14.6547C30.4347 14.5977 30.4228 14.5415 30.4007 14.4893C30.3787 14.4372 30.347 14.3901 30.3074 14.3508C30.2697 14.3101 30.2245 14.2778 30.1745 14.2557C30.1246 14.2336 30.0709 14.2223 30.0167 14.2223C29.9624 14.2223 29.9088 14.2336 29.8588 14.2557C29.8089 14.2778 29.7637 14.3101 29.726 14.3508L27.2146 17.0189L23.5192 17.6493L19.8586 15.5075V10.9672L23.7986 6.55443C23.872 6.46986 23.9103 6.35841 23.9052 6.24442C23.9001 6.13043 23.852 6.02318 23.7714 5.94611C23.7323 5.90705 23.6861 5.87652 23.6355 5.8563C23.5849 5.83608 23.531 5.82657 23.4769 5.82833C23.4228 5.83009 23.3695 5.84309 23.3203 5.86656C23.271 5.89003 23.2267 5.9235 23.19 5.96502L19.4433 10.1618L15.7011 5.96817C15.6637 5.92641 15.6188 5.89277 15.5689 5.8692C15.519 5.84563 15.4651 5.83259 15.4104 5.83083C15.3556 5.82907 15.3011 5.83863 15.2499 5.85896C15.1987 5.87928 15.1519 5.90997 15.1121 5.94926C15.072 5.9875 15.0396 6.03373 15.0168 6.08523C14.9941 6.13672 14.9814 6.19243 14.9796 6.24911C14.9778 6.30578 14.9868 6.36227 15.0062 6.41524C15.0256 6.46822 15.0549 6.51661 15.0925 6.55758L19.034 10.9608V15.4807L15.3115 17.6477L11.6266 17.0173L9.11222 14.3586C9.07449 14.318 9.02931 14.2857 8.97937 14.2636C8.92943 14.2415 8.87575 14.2301 8.82152 14.2301C8.76728 14.2301 8.7136 14.2415 8.66366 14.2636C8.61372 14.2857 8.56855 14.318 8.53081 14.3586C8.45434 14.4407 8.41155 14.5507 8.41155 14.6652C8.41155 14.7796 8.45434 14.8896 8.53081 14.9717L10.7961 17.3814L8.57159 19.0818C8.4866 19.1519 8.43028 19.2531 8.41402 19.3648C8.39776 19.4766 8.42277 19.5906 8.484 19.6839C8.52587 19.7392 8.57906 19.784 8.63968 19.8151C8.7003 19.8462 8.76682 19.8627 8.83436 19.8635C8.91908 19.8619 9.0011 19.8321 9.06843 19.7784L11.5315 17.8872L14.6742 18.4183L12.1069 22.1597L9.55168 24.2699C9.50829 24.3042 9.47189 24.3472 9.44462 24.3964C9.41735 24.4456 9.39975 24.4999 9.39286 24.5563C9.38597 24.6126 9.38992 24.6699 9.40449 24.7246C9.41905 24.7794 9.44394 24.8305 9.47769 24.8751C9.51786 24.9256 9.56816 24.9663 9.62503 24.9944C9.68191 25.0224 9.74399 25.0371 9.8069 25.0374C9.89941 25.0348 9.98876 25.0017 10.0621 24.9429L12.2685 23.121L13.4675 25.619C13.5021 25.6899 13.5551 25.7491 13.6206 25.7899C13.6861 25.8306 13.7613 25.8511 13.8375 25.849C13.9001 25.852 13.9625 25.8385 14.0188 25.8096C14.0672 25.7847 14.1104 25.7499 14.146 25.7075C14.1816 25.665 14.2087 25.6157 14.226 25.5622C14.2432 25.5088 14.2502 25.4524 14.2465 25.3961C14.2429 25.3398 14.2286 25.2849 14.2045 25.2344L12.8937 22.4891L15.6633 18.4388L19.034 16.4594V23.4031L15.0925 27.8159C15.0169 27.9004 14.9766 28.0127 14.9802 28.1282C14.9839 28.2437 15.0313 28.353 15.1121 28.4321C15.19 28.5019 15.2889 28.5409 15.3915 28.5424C15.5052 28.5411 15.6137 28.493 15.6935 28.4084L19.4387 24.2053L23.1855 28.4084C23.2652 28.493 23.3738 28.5411 23.4875 28.5424C23.59 28.5425 23.6889 28.5032 23.7654 28.4321C23.8458 28.3532 23.8936 28.2448 23.8987 28.1297C23.9037 28.0147 23.8657 27.9021 23.7925 27.8159L19.8525 23.4031V16.4909L23.1749 18.4357L25.9475 22.4985L24.6382 25.2391C24.6142 25.2897 24.6 25.3447 24.5964 25.4011C24.5928 25.4574 24.6 25.5139 24.6174 25.5674C24.6348 25.6208 24.6621 25.6701 24.6978 25.7125C24.7335 25.7549 24.7769 25.7895 24.8255 25.8144C24.8811 25.8435 24.943 25.857 25.0052 25.8538C25.0815 25.8552 25.1567 25.8344 25.2223 25.7938C25.2879 25.7532 25.3414 25.6943 25.3767 25.6237L26.5743 23.1226L28.7882 24.9476C28.8586 25.0086 28.9473 25.0421 29.0388 25.0422C29.1028 25.0443 29.1663 25.0307 29.2243 25.0025C29.2823 24.9743 29.3331 24.9323 29.3726 24.8798C29.4399 24.7897 29.4702 24.6754 29.4569 24.5619C29.4436 24.4485 29.3878 24.3452 29.3016 24.2746L26.7343 22.1565L24.1776 18.4183L27.3233 17.8872L29.7803 19.7784C29.8531 19.8315 29.9392 19.8611 30.028 19.8635C30.0931 19.8623 30.1571 19.8455 30.215 19.8143C30.2728 19.7831 30.3231 19.7385 30.3618 19.6839C30.3938 19.6382 30.417 19.5865 30.4299 19.5315C30.4428 19.4765 30.4452 19.4195 30.4369 19.3635C30.4286 19.3076 30.4098 19.254 30.3817 19.2056C30.3535 19.1573 30.3164 19.1152 30.2727 19.0818L28.0542 17.3766Z" fill="#111210"/>
<path d="M43.1892 21.3576H45.1297C45.1974 21.3519 45.2652 21.3672 45.3245 21.4017C45.3653 21.4285 45.385 21.4899 45.385 21.5813C45.3817 21.7025 45.345 21.8202 45.2792 21.9202C44.9119 21.7807 44.5223 21.7159 44.1315 21.7295H44.0288C44.0213 21.876 44.0167 22.1723 44.0167 22.6183H45.092C45.1165 22.6978 45.1292 22.7807 45.1297 22.8642C45.1336 22.8997 45.1238 22.9354 45.1026 22.9635C45.0747 22.986 45.0394 22.9962 45.0044 22.9918H44.0213C44.0213 23.5623 44.0213 23.9075 44.0334 24.0257H44.2116C44.598 24.0403 44.9838 23.9815 45.3502 23.8523C45.4114 23.9451 45.4446 24.0549 45.4454 24.1675C45.4477 24.2027 45.4407 24.2378 45.4249 24.269C45.4092 24.3002 45.3854 24.3262 45.3563 24.344C45.2437 24.389 45.123 24.4073 45.0029 24.3976H43.1046C43.0803 24.3372 43.0674 24.2724 43.0668 24.2069C43.0657 24.1908 43.0677 24.1746 43.073 24.1594C43.0782 24.1442 43.0864 24.1303 43.0971 24.1186C43.1257 24.0992 43.1596 24.0898 43.1937 24.0919H43.3447C43.3538 23.8996 43.3583 23.4011 43.3583 22.5963C43.3583 22.1613 43.3583 21.8477 43.3447 21.6586H43.1001C43.0759 21.5992 43.0631 21.5355 43.0623 21.471C43.0612 21.4544 43.0633 21.4378 43.0684 21.4221C43.0736 21.4064 43.0818 21.3919 43.0925 21.3796C43.1212 21.3601 43.155 21.3508 43.1892 21.3528" fill="#111210"/>
<path d="M49.7931 24.0272H49.8459C50.2311 24.0417 50.6156 23.9819 50.98 23.8507C51.0411 23.9435 51.0737 24.0534 51.0737 24.1659C51.0762 24.2007 51.0695 24.2356 51.0543 24.2667C51.0391 24.2979 51.0161 24.324 50.9876 24.3424C50.8742 24.3881 50.7524 24.4065 50.6312 24.396H48.8643C48.8398 24.3362 48.827 24.2719 48.8266 24.2069C48.8253 24.1906 48.8274 24.1743 48.8329 24.159C48.8384 24.1438 48.8471 24.13 48.8583 24.1186C48.8862 24.0988 48.9197 24.0894 48.9534 24.0918H49.1044C49.1135 23.8996 49.1165 23.4016 49.1165 22.5962C49.1165 22.1629 49.1165 21.8477 49.1029 21.6585H48.8598C48.8356 21.5997 48.8228 21.5365 48.822 21.4726C48.8205 21.4558 48.8225 21.439 48.828 21.4231C48.8335 21.4073 48.8423 21.393 48.8537 21.3812C48.8817 21.3614 48.9152 21.352 48.9489 21.3544H50.0724C50.0952 21.4036 50.1075 21.4573 50.1087 21.512C50.1131 21.551 50.1034 21.5903 50.0815 21.6223C50.0696 21.6332 50.0557 21.6414 50.0406 21.6466C50.0256 21.6517 50.0097 21.6536 49.9939 21.6522H49.787C49.787 21.8414 49.7764 22.1565 49.7764 22.5978C49.7764 23.4016 49.7764 23.8744 49.7885 24.0162" fill="#111210"/>
<path d="M60.3597 21.3574H61.2945C61.3188 21.4089 61.3312 21.4655 61.3308 21.5229C61.3352 21.5619 61.3255 21.6013 61.3036 21.6332C61.2918 21.6443 61.2779 21.6527 61.2628 21.6579C61.2477 21.6631 61.2318 21.6649 61.216 21.6632H61.1133C61.0207 21.95 60.8697 22.4264 60.6603 23.0926C60.5503 23.4938 60.4125 23.8862 60.248 24.2667C60.183 24.3833 60.0411 24.4416 59.8282 24.4416C59.7023 24.4505 59.5759 24.442 59.4521 24.4164C59.2984 24.0347 59.1653 23.6443 59.0534 23.247C58.8133 22.4827 58.6366 21.9531 58.5264 21.671H58.3467C58.3225 21.6117 58.3097 21.548 58.3089 21.4835C58.3077 21.4668 58.3099 21.45 58.3154 21.4342C58.3208 21.4185 58.3294 21.4041 58.3406 21.3921C58.3682 21.3726 58.4011 21.3632 58.4343 21.3653H59.4914C59.5145 21.4171 59.5264 21.4736 59.5261 21.5308C59.5306 21.5698 59.5209 21.6091 59.4989 21.6411C59.4871 21.6521 59.4732 21.6604 59.4581 21.6655C59.443 21.6707 59.4271 21.6725 59.4113 21.671H59.3087C59.3389 21.8286 59.4446 22.2274 59.6288 22.8593C59.8131 23.4913 59.9173 23.8049 59.9429 23.8049C59.9686 23.8049 60.0592 23.4897 60.2132 22.8672C60.3236 22.4741 60.4068 22.0733 60.4624 21.6679H60.2706C60.2476 21.6082 60.2353 21.5446 60.2344 21.4803C60.2323 21.4472 60.2426 21.4144 60.2631 21.3889C60.2917 21.3695 60.3256 21.3601 60.3597 21.3621" fill="#111210"/>
<path d="M64.7346 21.3574H65.902C65.9263 21.4089 65.9387 21.4655 65.9382 21.5229C65.9408 21.5424 65.9395 21.5621 65.9346 21.5811C65.9297 21.6 65.9212 21.6178 65.9095 21.6332C65.8976 21.6445 65.8835 21.6531 65.8681 21.6582C65.8527 21.6634 65.8365 21.6651 65.8204 21.6632H65.6166C65.6166 21.8523 65.6075 22.1675 65.609 22.6087C65.609 23.4109 65.609 23.9089 65.6196 24.098H65.905C65.9282 24.1471 65.9406 24.2009 65.9412 24.2556C65.9438 24.2751 65.9426 24.2949 65.9376 24.3138C65.9327 24.3328 65.9242 24.3505 65.9125 24.3659C65.9007 24.3776 65.8867 24.3864 65.8713 24.3918C65.8559 24.3973 65.8396 24.3992 65.8235 24.3975H64.6516C64.6261 24.3379 64.6128 24.2735 64.6123 24.2083C64.6108 24.1922 64.6128 24.176 64.618 24.1607C64.6232 24.1455 64.6316 24.1316 64.6425 24.1201C64.6703 24.0998 64.7038 24.0898 64.7376 24.0917H64.937C64.944 23.9026 64.9476 23.4051 64.9476 22.5993C64.9476 22.1643 64.9476 21.8507 64.934 21.6616H64.6516C64.6263 21.6025 64.613 21.5387 64.6123 21.474C64.6112 21.4575 64.6132 21.4408 64.6184 21.4251C64.6236 21.4094 64.6318 21.3949 64.6425 21.3826C64.6705 21.3628 64.7039 21.3534 64.7376 21.3558" fill="#111210"/>
<path d="M69.5566 21.359H70.4718C70.662 21.7404 70.8448 22.0919 71.0215 22.4181C71.2289 22.8081 71.4105 23.2125 71.5651 23.6284V22.6009C71.5651 22.1675 71.5651 21.8539 71.5515 21.6632H71.3099C71.2869 21.6041 71.2746 21.541 71.2737 21.4772C71.2723 21.4604 71.2746 21.4434 71.2804 21.4276C71.2861 21.4118 71.2952 21.3975 71.3069 21.3858C71.334 21.3654 71.3672 21.3559 71.4005 21.359H72.361C72.3837 21.4083 72.396 21.462 72.3972 21.5166C72.4017 21.5556 72.392 21.595 72.37 21.6269C72.3577 21.6381 72.3433 21.6466 72.3277 21.6517C72.3121 21.6569 72.2957 21.6586 72.2794 21.6569H72.0937C72.0876 21.8471 72.0846 22.1622 72.0846 22.6025V24.0918C72.0953 24.1834 72.079 24.2764 72.0378 24.3581C72.0076 24.3959 71.9245 24.4148 71.7916 24.4148C71.64 24.4259 71.4875 24.4153 71.3386 24.3833C71.1755 24.1731 71.0319 23.9473 70.9097 23.7088C70.6454 23.2482 70.4152 22.7671 70.2211 22.2699C70.2211 23.2912 70.2246 23.8969 70.2316 24.087H70.4491C70.4712 24.1365 70.4835 24.1901 70.4853 24.2446C70.4891 24.2836 70.4795 24.3227 70.4582 24.3549C70.446 24.3661 70.4319 24.3746 70.4166 24.38C70.4013 24.3854 70.3852 24.3876 70.3691 24.3865H69.4192C69.3955 24.3264 69.3828 24.2623 69.3814 24.1974C69.3797 24.1809 69.3819 24.1643 69.3877 24.149C69.3934 24.1336 69.4027 24.1199 69.4146 24.1091C69.441 24.0881 69.4738 24.078 69.5068 24.0807H69.694C69.694 23.89 69.7061 23.3936 69.7061 22.5883C69.7061 22.1549 69.7061 21.8413 69.6925 21.6506H69.4675C69.444 21.5916 69.4312 21.5285 69.4297 21.4646C69.4281 21.4477 69.4302 21.4307 69.436 21.4148C69.4417 21.3989 69.451 21.3847 69.463 21.3732C69.4901 21.3528 69.5233 21.3433 69.5566 21.3464M71.1196 20.7822C71.2102 20.6435 71.2933 20.5143 71.3643 20.3945C71.5394 20.4544 71.627 20.5521 71.627 20.6656C71.6205 20.73 71.5997 20.7919 71.5665 20.8466C71.5332 20.9013 71.4883 20.9472 71.4352 20.9808C71.3378 21.0724 71.2141 21.1278 71.0834 21.1384C70.9867 21.1384 70.8221 21.0155 70.5956 20.7696C70.502 20.9099 70.4189 21.0391 70.3479 21.1605C70.1727 21.1006 70.0852 21.0029 70.0852 20.8658C70.0934 20.8056 70.114 20.7479 70.1455 20.6968C70.177 20.6456 70.2188 20.6022 70.2679 20.5695C70.3672 20.4741 70.4955 20.4183 70.6303 20.4119C70.727 20.4119 70.8901 20.5364 71.1196 20.7806" fill="#111210"/>
<path d="M75.9718 21.3575H77.9138C77.9815 21.3521 78.0492 21.3674 78.1086 21.4017C78.1479 21.4284 78.1675 21.4899 78.1675 21.5813C78.1647 21.7024 78.1285 21.82 78.0633 21.9201C77.6959 21.7808 77.3063 21.7161 76.9156 21.7295H76.8129C76.8039 21.8765 76.7993 22.1728 76.7993 22.6183H77.8761C77.9001 22.6978 77.9123 22.7808 77.9123 22.8642C77.9166 22.8995 77.9074 22.9352 77.8866 22.9634C77.8588 22.986 77.8235 22.9962 77.7885 22.9918H76.7993C76.7993 23.5623 76.8039 23.9069 76.8129 24.0256H76.9896C77.3766 24.0404 77.7629 23.9816 78.1298 23.8523C78.1901 23.9453 78.2222 24.0551 78.2219 24.1675C78.2244 24.2023 78.2177 24.2372 78.2025 24.2683C78.1874 24.2994 78.1643 24.3256 78.1358 24.344C78.0233 24.3888 77.9026 24.4071 77.7824 24.3976L75.8857 24.407C75.8625 24.3463 75.8502 24.2817 75.8494 24.2163C75.8478 24.2001 75.8498 24.1836 75.8553 24.1683C75.8608 24.153 75.8697 24.1392 75.8811 24.1281C75.9087 24.1086 75.9416 24.0992 75.9748 24.1013H76.1258C76.1359 23.909 76.1409 23.4105 76.1409 22.6057C76.1409 22.1707 76.1409 21.8571 76.1258 21.668H75.8857C75.8627 21.6083 75.8504 21.5448 75.8494 21.4804C75.8478 21.4637 75.8498 21.4468 75.8553 21.431C75.8608 21.4151 75.8696 21.4008 75.8811 21.389C75.9087 21.3696 75.9416 21.3602 75.9748 21.3623" fill="#111210"/>
<path d="M81.7362 21.3575H82.6423C83.2846 21.3575 83.7256 21.4625 83.9652 21.6727C84.2053 21.8839 84.3246 22.2384 84.3246 22.7333C84.3246 23.2817 84.2008 23.6952 83.9531 23.9736C83.707 24.2525 83.2871 24.3928 82.6967 24.3928H81.6547C81.6287 24.3328 81.6149 24.2679 81.6139 24.2021C81.613 24.1859 81.6153 24.1697 81.6208 24.1545C81.6263 24.1393 81.6347 24.1255 81.6456 24.1139C81.6735 24.0941 81.707 24.0846 81.7407 24.0871H81.8917C81.8998 23.8948 81.9038 23.3963 81.9038 22.5915C81.9038 22.1565 81.9038 21.8429 81.8917 21.6538H81.6486C81.6228 21.5948 81.609 21.531 81.6078 21.4662C81.607 21.4496 81.6093 21.4329 81.6148 21.4172C81.6202 21.4015 81.6287 21.3871 81.6395 21.3748C81.6675 21.355 81.701 21.3456 81.7347 21.348M82.8401 21.7767C82.7516 21.7753 82.6632 21.7822 82.5758 21.7972C82.5668 22.0068 82.5638 22.4875 82.5638 23.2439C82.5638 23.5969 82.5834 23.805 82.6242 23.8743C82.665 23.9436 82.7752 23.9689 82.9474 23.9689C83.0363 23.9741 83.1253 23.9576 83.2071 23.9207C83.2889 23.8838 83.3613 23.8274 83.4185 23.7561C83.5273 23.6143 83.5816 23.3306 83.5816 22.9051C83.5816 22.4859 83.5167 22.1912 83.3913 22.0288C83.324 21.9461 83.2391 21.8809 83.1435 21.8382C83.0478 21.7956 82.944 21.7767 82.8401 21.783" fill="#111210"/>
<path d="M87.8555 23.0187C87.8555 22.4403 87.9838 22.0132 88.2436 21.7311C88.3825 21.589 88.5482 21.4785 88.7301 21.4066C88.9121 21.3347 89.1064 21.303 89.3007 21.3135C89.722 21.3135 90.0422 21.4175 90.2596 21.6287C90.4771 21.8399 90.5874 22.2055 90.5874 22.7445C90.5874 23.3244 90.4575 23.7531 90.2008 24.0336C90.0584 24.1771 89.8891 24.2882 89.7035 24.3601C89.5179 24.432 89.3201 24.463 89.1225 24.4513C88.7834 24.4748 88.448 24.3658 88.1817 24.1455C87.9642 23.9427 87.8555 23.5698 87.8555 23.0266M88.5894 22.8122C88.5894 23.2882 88.6473 23.6092 88.7631 23.7752C88.8168 23.8556 88.8892 23.9206 88.9734 23.9641C89.0576 24.0076 89.1509 24.0283 89.2448 24.0242C89.3364 24.0316 89.4281 24.0129 89.5103 23.9701C89.5925 23.9274 89.662 23.8622 89.7115 23.7815C89.823 23.5242 89.8713 23.242 89.8519 22.9604C89.8519 22.4703 89.7945 22.1472 89.6798 21.988C89.6241 21.9099 89.5509 21.8472 89.4667 21.8055C89.3824 21.7637 89.2897 21.7442 89.1965 21.7485C89.1051 21.7405 89.0133 21.7589 88.9313 21.8017C88.8493 21.8445 88.7801 21.9101 88.7314 21.9912C88.6362 22.1488 88.5894 22.4261 88.5894 22.8122Z" fill="#111210"/>
<path d="M99.3884 21.3133C99.6323 21.3 99.8767 21.3223 100.115 21.3795C100.168 21.3957 100.215 21.4304 100.247 21.4779C100.28 21.5254 100.296 21.5829 100.293 21.6411C100.293 21.7647 100.247 21.8835 100.165 21.972C99.8968 21.8346 99.6049 21.7558 99.3068 21.7404C99.1893 21.7285 99.0715 21.7591 98.9731 21.827C98.9402 21.859 98.9147 21.8983 98.8982 21.9419C98.8817 21.9855 98.8748 22.0324 98.8779 22.0792C98.8742 22.1343 98.883 22.1895 98.9034 22.2404C98.9239 22.2913 98.9555 22.3365 98.9957 22.3723C99.1419 22.4669 99.3022 22.5356 99.4699 22.5756C99.7167 22.6351 99.9507 22.742 100.16 22.8908C100.245 22.9644 100.313 23.0581 100.357 23.1641C100.4 23.2701 100.419 23.3855 100.412 23.5007C100.422 23.6399 100.396 23.7791 100.337 23.9046C100.279 24.0302 100.19 24.1376 100.08 24.2162C99.7862 24.3896 99.4504 24.4701 99.1135 24.4479C98.8844 24.457 98.6552 24.4332 98.4324 24.377C98.3698 24.3643 98.3136 24.3288 98.2737 24.2768C98.2339 24.2249 98.2131 24.1598 98.215 24.0933C98.2153 24.0299 98.2291 23.9675 98.2551 23.9103C98.2812 23.8531 98.3191 23.8026 98.366 23.7623C98.6474 23.9223 98.9609 24.0108 99.2811 24.0208C99.4155 24.0323 99.5503 24.005 99.6708 23.942C99.7093 23.9139 99.74 23.8756 99.7597 23.831C99.7793 23.7864 99.7872 23.7371 99.7825 23.6883C99.7843 23.623 99.7693 23.5584 99.739 23.5013C99.7088 23.4442 99.6643 23.3966 99.6104 23.3636C99.431 23.2602 99.2397 23.1813 99.041 23.1288C98.8147 23.0802 98.6057 22.9673 98.437 22.8026C98.3135 22.6531 98.2483 22.4608 98.2542 22.2636C98.2479 22.1308 98.272 21.9983 98.3246 21.8772C98.3771 21.7561 98.4565 21.6497 98.5563 21.567C98.8003 21.3881 99.0951 21.3003 99.3929 21.318" fill="#111210"/>
<path d="M104.014 21.3578H105.955C106.023 21.3523 106.091 21.3677 106.151 21.4019C106.19 21.4287 106.21 21.4901 106.21 21.5815C106.207 21.7025 106.17 21.82 106.106 21.9204C105.738 21.7805 105.348 21.7153 104.957 21.7281H104.854C104.846 21.8747 104.842 22.171 104.842 22.617H105.917C105.942 22.6964 105.954 22.7793 105.955 22.8628C105.959 22.8981 105.95 22.9338 105.929 22.9621C105.901 22.9847 105.865 22.9949 105.829 22.9905H104.842C104.842 23.561 104.846 23.9056 104.854 24.0243H105.032C105.419 24.0389 105.805 23.9801 106.172 23.8509C106.233 23.9438 106.266 24.0536 106.266 24.1661C106.268 24.2011 106.261 24.2361 106.246 24.2672C106.23 24.2984 106.207 24.3245 106.178 24.3426C106.065 24.3876 105.944 24.4059 105.823 24.3962H103.927C103.901 24.336 103.888 24.2712 103.886 24.2055C103.885 24.1892 103.887 24.1728 103.893 24.1575C103.899 24.1423 103.908 24.1285 103.919 24.1173C103.947 24.0975 103.98 24.0881 104.014 24.0905H104.165C104.174 23.8982 104.179 23.3997 104.179 22.5949C104.179 22.1599 104.179 21.8463 104.165 21.6572H103.924C103.899 21.598 103.885 21.5343 103.883 21.4696C103.882 21.4528 103.884 21.436 103.89 21.4202C103.896 21.4044 103.905 21.3901 103.916 21.3782C103.944 21.3585 103.977 21.349 104.011 21.3514" fill="#111210"/>
<path d="M109.821 21.3576H110.736C110.928 21.7406 111.11 22.092 111.287 22.4182C111.492 22.8093 111.673 23.2136 111.829 23.6286V22.6011C111.829 22.1661 111.829 21.8525 111.816 21.6634H111.574C111.552 21.6034 111.54 21.54 111.539 21.4758C111.538 21.4592 111.54 21.4426 111.545 21.4269C111.55 21.4112 111.559 21.3967 111.569 21.3844C111.597 21.3646 111.631 21.3552 111.665 21.3576H112.625C112.649 21.4093 112.661 21.4658 112.661 21.5231C112.665 21.5623 112.655 21.6017 112.633 21.6334C112.621 21.6447 112.606 21.6533 112.591 21.6584C112.576 21.6636 112.559 21.6653 112.543 21.6634H112.359C112.359 21.8525 112.35 22.1677 112.35 22.6089V24.0919C112.36 24.1841 112.344 24.2773 112.303 24.3598C112.272 24.3977 112.189 24.415 112.054 24.415C111.902 24.4257 111.75 24.4151 111.601 24.3835C111.44 24.1728 111.298 23.9476 111.175 23.7105C110.911 23.2485 110.68 22.7665 110.485 22.2685C110.485 23.2913 110.485 23.8981 110.496 24.0872H110.718C110.74 24.1367 110.752 24.1903 110.754 24.2448C110.758 24.2838 110.749 24.3232 110.727 24.3551C110.715 24.3661 110.701 24.3746 110.686 24.38C110.671 24.3854 110.655 24.3876 110.639 24.3866H109.689C109.664 24.3269 109.651 24.2626 109.65 24.1975C109.649 24.1813 109.651 24.165 109.656 24.1497C109.662 24.1345 109.671 24.1207 109.682 24.1093C109.709 24.0889 109.743 24.0789 109.777 24.0809H109.954C109.963 23.8918 109.967 23.3943 109.967 22.5885C109.967 22.1535 109.96 21.8399 109.952 21.6507H109.732C109.707 21.5915 109.694 21.5278 109.692 21.4632C109.691 21.4464 109.694 21.4295 109.699 21.4137C109.705 21.398 109.714 21.3837 109.725 21.3718C109.753 21.3524 109.786 21.3429 109.819 21.345" fill="#111210"/>
<path d="M117.291 21.3135C117.535 21.3002 117.779 21.3225 118.016 21.3797C118.07 21.3955 118.117 21.43 118.15 21.4776C118.182 21.5252 118.198 21.583 118.195 21.6413C118.195 21.7649 118.149 21.8837 118.066 21.9723C117.799 21.8349 117.508 21.756 117.21 21.7406C117.092 21.7288 116.974 21.7593 116.875 21.8273C116.842 21.8594 116.817 21.8987 116.801 21.9423C116.784 21.986 116.778 22.0328 116.781 22.0794C116.777 22.1345 116.786 22.1897 116.807 22.2406C116.827 22.2915 116.859 22.3367 116.899 22.3726C117.044 22.4673 117.204 22.536 117.372 22.5759C117.618 22.6354 117.852 22.7423 118.062 22.8911C118.147 22.9648 118.214 23.0585 118.258 23.1644C118.302 23.2704 118.322 23.3857 118.315 23.501C118.324 23.6401 118.298 23.7792 118.24 23.9047C118.182 24.0302 118.093 24.1376 117.983 24.2165C117.689 24.3899 117.352 24.4703 117.015 24.4481C116.786 24.4572 116.557 24.4333 116.334 24.3772C116.271 24.3645 116.215 24.329 116.175 24.2771C116.136 24.2251 116.115 24.1601 116.117 24.0935C116.118 24.0303 116.132 23.9681 116.158 23.911C116.184 23.8539 116.221 23.8033 116.268 23.7626C116.549 23.9223 116.863 24.0108 117.183 24.021C117.316 24.0286 117.448 23.9987 117.566 23.9344C117.604 23.9059 117.635 23.8674 117.654 23.8229C117.673 23.7784 117.681 23.7293 117.677 23.6806C117.679 23.6153 117.664 23.5506 117.634 23.4934C117.603 23.4363 117.559 23.3888 117.504 23.356C117.325 23.252 117.134 23.173 116.935 23.1212C116.709 23.0729 116.5 22.96 116.331 22.7949C116.206 22.6464 116.14 22.4536 116.147 22.2559C116.14 22.1231 116.165 21.9907 116.217 21.8696C116.27 21.7484 116.349 21.6421 116.449 21.5594C116.693 21.3803 116.989 21.2926 117.287 21.3104" fill="#111210"/>
<path d="M121.834 23.0186C121.834 22.4402 121.962 22.0131 122.221 21.731C122.36 21.5892 122.525 21.4788 122.707 21.407C122.889 21.3351 123.083 21.3032 123.278 21.3134C123.699 21.3134 124.018 21.4174 124.237 21.6286C124.456 21.8397 124.566 22.2054 124.566 22.7443C124.566 23.3243 124.436 23.753 124.178 24.0335C124.036 24.1768 123.867 24.2879 123.681 24.3598C123.496 24.4317 123.298 24.4628 123.101 24.4511C122.762 24.4756 122.426 24.3665 122.16 24.1454C121.942 23.9426 121.833 23.5696 121.833 23.0264M122.566 22.8121C122.566 23.2881 122.624 23.609 122.74 23.775C122.794 23.8555 122.866 23.9204 122.95 23.964C123.035 24.0075 123.128 24.0281 123.222 24.024C123.313 24.0318 123.405 24.0133 123.487 23.9705C123.569 23.9277 123.638 23.8623 123.687 23.7813C123.8 23.5245 123.849 23.2421 123.829 22.9602C123.829 22.4701 123.772 22.1471 123.655 21.9879C123.6 21.9096 123.527 21.8468 123.443 21.805C123.359 21.7632 123.267 21.7437 123.174 21.7483C123.082 21.7409 122.99 21.7596 122.908 21.8023C122.826 21.8451 122.756 21.9103 122.707 21.991C122.595 22.2482 122.547 22.5305 122.566 22.8121Z" fill="#111210"/>
<path d="M129.06 24.0916H129.362C129.385 24.1408 129.397 24.1946 129.398 24.2492C129.402 24.2882 129.392 24.3273 129.371 24.3595C129.36 24.3712 129.346 24.3801 129.331 24.3855C129.316 24.391 129.3 24.3929 129.284 24.3911H128.092C128.067 24.3312 128.054 24.267 128.053 24.2019C128.051 24.1855 128.053 24.1689 128.059 24.1536C128.065 24.1382 128.074 24.1245 128.086 24.1137C128.113 24.094 128.145 24.0841 128.178 24.0853H128.377C128.387 23.8962 128.39 23.3982 128.39 22.5944C128.39 22.1579 128.39 21.8459 128.377 21.6489H128.094C128.07 21.5893 128.058 21.5257 128.057 21.4613C128.056 21.4449 128.059 21.4284 128.064 21.4129C128.07 21.3974 128.078 21.3833 128.089 21.3715C128.115 21.3508 128.148 21.3407 128.181 21.3431H129.29C129.732 21.3431 130.045 21.4093 130.241 21.537C130.336 21.6052 130.413 21.6983 130.462 21.807C130.512 21.9157 130.534 22.0362 130.525 22.1563C130.525 22.5503 130.292 22.8214 129.827 22.9727C129.945 23.0231 130.049 23.1039 130.129 23.2075C130.23 23.3461 130.316 23.4956 130.386 23.6535C130.437 23.7852 130.512 23.9055 130.606 24.0081C130.678 24.0643 130.766 24.0937 130.856 24.0916C130.895 24.224 130.89 24.3154 130.844 24.3658C130.736 24.4321 130.61 24.4587 130.486 24.4415C130.331 24.4522 130.177 24.4269 130.033 24.3674C129.948 24.3154 129.871 24.1657 129.805 23.912C129.758 23.7131 129.683 23.5228 129.581 23.3478C129.547 23.2904 129.499 23.2434 129.442 23.2113C129.385 23.1793 129.321 23.1633 129.256 23.1649C129.191 23.1644 129.125 23.1718 129.062 23.187C129.062 23.6299 129.062 23.9324 129.071 24.0916M129.062 22.8025H129.234C129.381 22.8118 129.528 22.7744 129.655 22.6953C129.706 22.6555 129.746 22.6031 129.773 22.5428C129.799 22.4825 129.811 22.4163 129.806 22.3502C129.813 22.2706 129.803 22.1903 129.777 22.1151C129.751 22.04 129.709 21.9717 129.655 21.9152C129.553 21.8252 129.423 21.7785 129.29 21.7844C129.216 21.7823 129.141 21.7897 129.069 21.8065C129.069 21.8994 129.06 22.1658 129.06 22.5944L129.062 22.8025Z" fill="#111210"/>
<path d="M134.314 21.3574H135.481C135.505 21.4091 135.517 21.4656 135.518 21.5229C135.522 21.5621 135.511 21.6015 135.489 21.6332C135.477 21.6446 135.462 21.6531 135.447 21.6583C135.431 21.6634 135.415 21.6651 135.398 21.6632H135.192C135.192 21.8523 135.182 22.1675 135.184 22.6087C135.184 23.4109 135.184 23.9089 135.193 24.098H135.481C135.504 24.1473 135.516 24.201 135.518 24.2556C135.522 24.2948 135.511 24.3342 135.489 24.3659C135.477 24.3776 135.463 24.3864 135.447 24.3919C135.431 24.3973 135.415 24.3992 135.398 24.3975H134.227C134.202 24.3377 134.188 24.2735 134.187 24.2083C134.186 24.1921 134.188 24.1757 134.193 24.1604C134.199 24.1451 134.208 24.1313 134.219 24.1201C134.247 24.0998 134.28 24.0898 134.314 24.0917H134.512C134.519 23.9026 134.523 23.4051 134.523 22.5993C134.523 22.1643 134.523 21.8507 134.51 21.6616H134.227C134.202 21.6023 134.189 21.5386 134.187 21.474C134.186 21.4573 134.188 21.4405 134.194 21.4248C134.199 21.409 134.208 21.3946 134.219 21.3826C134.247 21.3628 134.28 21.3534 134.314 21.3558" fill="#111210"/>
<path d="M140.281 21.3148C140.415 21.3066 140.551 21.315 140.684 21.34C140.714 21.3574 140.854 21.7466 141.105 22.511C141.356 23.2753 141.534 23.8017 141.644 24.087H141.845C141.868 24.1362 141.88 24.1899 141.881 24.2446C141.885 24.2838 141.875 24.3232 141.853 24.3549C141.841 24.3665 141.827 24.3753 141.811 24.3808C141.796 24.3862 141.78 24.3881 141.764 24.3864H140.672C140.648 24.3264 140.636 24.2622 140.635 24.1973C140.634 24.181 140.636 24.1646 140.642 24.1493C140.647 24.134 140.656 24.1202 140.667 24.109C140.694 24.0881 140.727 24.078 140.761 24.0807H140.854C140.833 23.9751 140.779 23.7655 140.69 23.4408H139.784C139.704 23.756 139.654 23.9656 139.633 24.0807H139.834C139.857 24.1298 139.87 24.1835 139.871 24.2383C139.876 24.2773 139.866 24.3166 139.844 24.3486C139.832 24.3597 139.818 24.3682 139.803 24.3736C139.787 24.3791 139.771 24.3812 139.755 24.3801H138.825C138.802 24.3199 138.789 24.2558 138.789 24.191C138.787 24.1747 138.789 24.1583 138.795 24.143C138.8 24.1277 138.809 24.1139 138.82 24.1027C138.847 24.0812 138.88 24.0711 138.914 24.0744H139.027C139.128 23.7875 139.279 23.3221 139.48 22.6781C139.684 22.0366 139.82 21.6442 139.886 21.5055C139.923 21.4348 139.979 21.377 140.047 21.3396C140.115 21.3023 140.192 21.287 140.269 21.2959M139.87 23.0626H140.577C140.358 22.3156 140.237 21.9405 140.21 21.9405C140.182 21.9405 140.071 22.3156 139.87 23.0626Z" fill="#111210"/>
<path d="M146.128 24.0272H146.179C146.565 24.0418 146.95 23.982 147.315 23.8507C147.375 23.9438 147.408 24.0535 147.409 24.1659C147.411 24.2009 147.405 24.2361 147.389 24.2673C147.374 24.2985 147.35 24.3245 147.321 24.3424C147.209 24.3882 147.088 24.4065 146.968 24.396H145.202C145.178 24.3362 145.165 24.2719 145.165 24.2069C145.163 24.1906 145.165 24.1743 145.171 24.159C145.176 24.1438 145.185 24.13 145.196 24.1186C145.224 24.0988 145.258 24.0894 145.291 24.0918H145.442C145.451 23.8996 145.455 23.4016 145.455 22.5962C145.455 22.1629 145.455 21.8477 145.439 21.6585H145.202C145.178 21.5997 145.165 21.5365 145.165 21.4726C145.163 21.4558 145.165 21.439 145.171 21.4231C145.176 21.4073 145.185 21.393 145.196 21.3812C145.224 21.3614 145.258 21.352 145.291 21.3544H146.41C146.432 21.4039 146.444 21.4575 146.445 21.512C146.449 21.5512 146.439 21.5906 146.416 21.6223C146.405 21.6334 146.391 21.6418 146.377 21.6469C146.362 21.6521 146.346 21.6539 146.33 21.6522H146.124C146.124 21.8414 146.111 22.1565 146.111 22.5978C146.111 23.4016 146.111 23.8744 146.125 24.0162" fill="#111210"/>
<path d="M69.0432 26.8323H69.9493C70.5911 26.8323 71.0321 26.9379 71.2722 27.1475C71.5123 27.3571 71.6316 27.7148 71.6316 28.2097C71.6316 28.7565 71.5063 29.171 71.2601 29.4499C71.014 29.7289 70.5941 29.8676 70.0037 29.8676H68.9601C68.9357 29.8078 68.9228 29.7435 68.9224 29.6785C68.9211 29.6622 68.9233 29.6459 68.9288 29.6306C68.9342 29.6154 68.9429 29.6016 68.9541 29.5902C68.9813 29.5701 69.0145 29.5606 69.0477 29.5634H69.1987C69.2078 29.3711 69.2123 28.8726 69.2123 28.0678C69.2123 27.6329 69.2123 27.3177 69.1987 27.1301H68.9556C68.9314 27.0708 68.9186 27.0071 68.9179 26.9426C68.9161 26.9261 68.9181 26.9094 68.9236 26.8938C68.9291 26.8782 68.938 26.8641 68.9496 26.8528C68.9769 26.8328 69.0098 26.8228 69.0432 26.8244M70.1486 27.253C70.0597 27.2525 69.9708 27.2594 69.8829 27.2735C69.8748 27.4837 69.8713 27.9659 69.8723 28.7203C69.8723 29.0717 69.8904 29.2797 69.9342 29.3507C69.978 29.4216 70.0852 29.4452 70.2559 29.4452C70.3448 29.4509 70.4337 29.4348 70.5155 29.3981C70.5974 29.3614 70.6698 29.3052 70.727 29.234C70.8343 29.0922 70.8901 28.8101 70.8901 28.3846C70.8901 27.9591 70.8252 27.6707 70.6983 27.5068C70.6314 27.4239 70.5469 27.3585 70.4514 27.3158C70.356 27.2732 70.2523 27.2543 70.1486 27.2609" fill="#111210"/>
<path d="M75.2425 26.8326H77.1845C77.2525 26.8277 77.3204 26.8424 77.3808 26.8752C77.4033 26.8983 77.4203 26.9266 77.4306 26.9578C77.4408 26.989 77.4439 27.0222 77.4397 27.0549C77.4369 27.1759 77.4007 27.2935 77.3355 27.3937C76.9671 27.2563 76.5773 27.1922 76.1863 27.2046H76.0836C76.0746 27.3511 76.0715 27.6474 76.0715 28.0918H77.1468C77.1713 28.1713 77.184 28.2542 77.1845 28.3377C77.1882 28.3742 77.1785 28.4108 77.1573 28.4401C77.1294 28.4611 77.095 28.4707 77.0607 28.4669H76.0715C76.0715 29.0374 76.0756 29.3826 76.0836 29.5023H76.2603C76.6476 29.5181 77.0343 29.4582 77.4005 29.3258C77.4621 29.4184 77.4953 29.5283 77.4956 29.641C77.4986 29.6759 77.4919 29.7109 77.4764 29.7419C77.4609 29.7729 77.4371 29.7986 77.408 29.816C77.2951 29.8615 77.1738 29.8799 77.0531 29.8695H75.1564C75.131 29.8099 75.1172 29.7457 75.1156 29.6804C75.1144 29.6641 75.1168 29.6476 75.1225 29.6323C75.1283 29.617 75.1373 29.6033 75.1488 29.5922C75.176 29.572 75.2092 29.5625 75.2425 29.5654H75.3935C75.4015 29.3731 75.4056 28.8746 75.4056 28.0698C75.4056 27.6348 75.4055 27.3196 75.3935 27.1321H75.1503C75.1253 27.0729 75.1115 27.0092 75.1096 26.9445C75.1081 26.9279 75.1104 26.9112 75.1161 26.8956C75.1219 26.88 75.131 26.866 75.1428 26.8547C75.1701 26.8347 75.2031 26.8247 75.2364 26.8263" fill="#111210"/>
<path d="M85.1447 26.8326H86.306C86.3694 27.1194 86.4389 27.4063 86.5159 27.6899C86.593 27.9736 86.667 28.2699 86.7349 28.574C86.7637 28.7293 86.8052 28.8816 86.8587 29.0295C86.8688 29.0295 86.9433 28.7411 87.0822 28.1643C87.2212 27.5875 87.3188 27.1436 87.3752 26.8326H88.4927C88.5156 26.8845 88.5274 26.941 88.5275 26.9981C88.5319 27.0371 88.5222 27.0764 88.5003 27.1084C88.4886 27.1191 88.4749 27.1272 88.4601 27.1324C88.4453 27.1375 88.4297 27.1395 88.4142 27.1383H88.2526C88.2526 27.3884 88.2652 27.8087 88.2904 28.3991C88.3176 28.9885 88.3387 29.3778 88.3508 29.5685H88.5547C88.5774 29.6177 88.5897 29.6715 88.5909 29.7261C88.5932 29.7453 88.5919 29.7648 88.587 29.7835C88.582 29.8021 88.5736 29.8196 88.5622 29.8348C88.5503 29.8467 88.536 29.8557 88.5203 29.8612C88.5046 29.8666 88.488 29.8684 88.4716 29.8663H87.4991C87.4765 29.806 87.4642 29.742 87.4628 29.6772C87.4617 29.661 87.464 29.6447 87.4695 29.6295C87.4749 29.6143 87.4835 29.6005 87.4945 29.589C87.5221 29.5695 87.555 29.5601 87.5881 29.5622H87.6652C87.6742 29.2754 87.6606 28.5783 87.6244 27.4709C87.5141 27.9578 87.4069 28.3834 87.3042 28.7443C87.2458 28.9808 87.167 29.2113 87.0687 29.433C87.0359 29.4838 86.9905 29.5244 86.9372 29.5502C86.884 29.576 86.825 29.5862 86.7666 29.5795C86.6443 29.5883 86.5215 29.5804 86.4012 29.5559C86.3148 29.3808 86.2469 29.1963 86.1988 29.0059C86.087 28.656 85.9466 28.1375 85.7729 27.4504C85.7729 28.5725 85.7729 29.2764 85.7729 29.5622H85.9391C85.9618 29.6114 85.9741 29.6652 85.9753 29.7198C85.9776 29.739 85.9763 29.7585 85.9714 29.7771C85.9665 29.7958 85.958 29.8133 85.9466 29.8285C85.9351 29.8401 85.9213 29.8489 85.9061 29.8544C85.891 29.8598 85.8749 29.8617 85.859 29.86H84.965C84.9405 29.8002 84.9277 29.736 84.9272 29.6709C84.9262 29.6548 84.9284 29.6387 84.9336 29.6235C84.9388 29.6084 84.9469 29.5945 84.9574 29.5827C84.9861 29.5632 85.02 29.5538 85.0541 29.5559H85.1915C85.2056 29.3647 85.2263 28.9749 85.2534 28.3865C85.2806 27.7981 85.2927 27.3779 85.2897 27.1257H85.048C85.0262 27.0658 85.0144 27.0023 85.0133 26.9382C85.0114 26.9218 85.0131 26.9052 85.0183 26.8896C85.0236 26.874 85.0322 26.8599 85.0435 26.8484C85.0709 26.8284 85.1038 26.8184 85.1372 26.82" fill="#111210"/>
<path d="M92.1095 26.8325H94.0515C94.119 26.8272 94.1866 26.842 94.2464 26.875C94.2695 26.898 94.2871 26.9265 94.2976 26.958C94.3081 26.9895 94.3113 27.0232 94.3068 27.0563C94.3032 27.1769 94.2665 27.294 94.2011 27.3935C93.8339 27.2555 93.4449 27.1913 93.0548 27.2044H92.9506C92.9416 27.351 92.9386 27.6473 92.9386 28.0948H94.0078C94.0319 28.1733 94.0441 28.2552 94.044 28.3375C94.0464 28.3555 94.0454 28.3738 94.041 28.3914C94.0366 28.409 94.0289 28.4255 94.0183 28.44C93.9899 28.4612 93.9549 28.4708 93.9202 28.4668H92.9325C92.9325 29.0373 92.9325 29.3824 92.9446 29.5022H93.1213C93.5085 29.5171 93.8951 29.4573 94.2615 29.3257C94.3227 29.4183 94.3553 29.5283 94.3551 29.6409C94.3577 29.6757 94.3509 29.7105 94.3354 29.7414C94.3199 29.7724 94.2964 29.7981 94.2675 29.8158C94.1552 29.8617 94.0343 29.8801 93.9141 29.8694H92.0174C91.9919 29.8098 91.9785 29.7454 91.9781 29.6803C91.9768 29.664 91.979 29.6477 91.9845 29.6324C91.9899 29.6172 91.9986 29.6034 92.0098 29.592C92.0368 29.5713 92.07 29.5613 92.1034 29.5636H92.2545C92.2545 29.3714 92.2665 28.8749 92.2665 28.0696C92.2665 27.6346 92.2665 27.3226 92.2545 27.1319H92.0113C91.9861 27.0729 91.9727 27.009 91.9721 26.9444C91.9703 26.9279 91.9723 26.9111 91.9778 26.8956C91.9833 26.88 91.9922 26.8659 92.0038 26.8545C92.0308 26.8339 92.064 26.8238 92.0974 26.8262M92.7196 26.4085L93.4218 25.8774C93.5864 25.9972 93.6695 26.1154 93.6695 26.2336C93.6695 26.4085 93.3961 26.5378 92.851 26.6292L92.7196 26.4085Z" fill="#111210"/>
<path d="M98.6108 29.5684H98.8539C98.8767 29.6176 98.8891 29.6713 98.8902 29.726C98.8942 29.7645 98.8845 29.8032 98.863 29.8347C98.8509 29.8458 98.8367 29.8542 98.8214 29.8593C98.8061 29.8645 98.7899 29.8663 98.7739 29.8646H97.7409C97.7169 29.8048 97.7045 29.7405 97.7047 29.6755C97.7035 29.6594 97.7056 29.6433 97.7108 29.628C97.716 29.6128 97.7242 29.5989 97.7349 29.5873C97.7624 29.5678 97.7953 29.5584 97.8285 29.5605H97.9659C98.0581 29.4281 98.2951 28.9884 98.6727 28.2414C98.4553 27.8613 98.2194 27.4931 97.9659 27.1382H97.7832C97.7602 27.0786 97.7479 27.015 97.747 26.9507C97.7455 26.934 97.7478 26.9173 97.7535 26.9017C97.7593 26.8861 97.7684 26.8722 97.7802 26.8608C97.8072 26.8402 97.8404 26.8301 97.8738 26.8325H98.9536C98.977 26.8843 98.9894 26.9407 98.9898 26.998C98.9938 27.0372 98.9836 27.0765 98.9611 27.1083C98.949 27.1194 98.9349 27.1277 98.9195 27.1329C98.9042 27.138 98.8881 27.1398 98.872 27.1382H98.8086C98.9022 27.3557 99.0608 27.663 99.2798 28.0539C99.4429 27.7589 99.5872 27.453 99.7117 27.1382H99.5289C99.5066 27.0783 99.4944 27.0149 99.4927 26.9507C99.4913 26.934 99.4935 26.9173 99.4993 26.9017C99.505 26.8861 99.5142 26.8722 99.5259 26.8608C99.5516 26.8398 99.584 26.8297 99.6165 26.8325H100.538C100.562 26.8839 100.575 26.9405 100.575 26.998C100.579 27.0369 100.569 27.0758 100.548 27.1083C100.524 27.13 100.492 27.1408 100.459 27.1382H100.357C100.073 27.5593 99.8112 27.9953 99.5712 28.4447C99.9548 29.0499 100.195 29.3903 100.293 29.4612C100.37 29.5254 100.465 29.5629 100.563 29.5684C100.588 29.6168 100.6 29.6712 100.598 29.726C100.6 29.7468 100.597 29.7677 100.59 29.7871C100.582 29.8066 100.571 29.8239 100.556 29.8379C100.51 29.8656 100.457 29.8778 100.405 29.8725C100.074 29.8725 99.8718 29.8725 99.8008 29.8568C99.7326 29.8493 99.6696 29.8156 99.6241 29.7622C99.5531 29.6581 99.4891 29.5491 99.4323 29.436C99.3427 29.2689 99.1972 29.0063 98.9959 28.648C98.8484 28.9463 98.7207 29.2549 98.6138 29.5715" fill="#111210"/>
<path d="M104.133 26.8327H105.302C105.325 26.8848 105.337 26.941 105.338 26.9982C105.342 27.0374 105.332 27.0768 105.31 27.1085C105.284 27.1305 105.252 27.1412 105.219 27.1384H105.012C105.012 27.326 105.003 27.6412 105.012 28.084C105.012 28.8878 105.012 29.3842 105.021 29.5749H105.31C105.332 29.6243 105.344 29.6779 105.346 29.7325C105.35 29.7712 105.339 29.8099 105.317 29.8412C105.305 29.853 105.291 29.862 105.275 29.8674C105.26 29.8729 105.243 29.8747 105.227 29.8727H104.055C104.03 29.813 104.017 29.7487 104.016 29.6836C104.014 29.6674 104.017 29.6511 104.022 29.6359C104.028 29.6207 104.036 29.6068 104.047 29.5954C104.075 29.5759 104.108 29.5665 104.141 29.5686H104.34C104.34 29.3779 104.351 28.8815 104.351 28.0761C104.351 27.6412 104.351 27.326 104.339 27.1384H104.055C104.03 27.0792 104.017 27.0155 104.016 26.9509C104.014 26.9344 104.016 26.9177 104.021 26.9021C104.027 26.8865 104.036 26.8724 104.047 26.8611C104.075 26.8411 104.107 26.8311 104.141 26.8327" fill="#111210"/>
<path d="M110.303 29.4894C110.539 29.4908 110.771 29.4201 110.97 29.2861C111.054 29.3685 111.105 29.4812 111.112 29.6013C111.112 29.7037 111.014 29.7793 110.81 29.8314C110.581 29.8887 110.345 29.9157 110.109 29.9117C109.676 29.9117 109.354 29.8124 109.144 29.6154C108.934 29.4184 108.829 29.0481 108.829 28.5123C108.829 27.9213 108.955 27.4832 109.206 27.2042C109.347 27.06 109.515 26.9483 109.7 26.8764C109.884 26.8044 110.082 26.7738 110.278 26.7866C110.49 26.7751 110.703 26.798 110.908 26.8544C110.959 26.8698 111.004 26.9026 111.036 26.9477C111.067 26.9928 111.084 27.0476 111.082 27.1033C111.073 27.2181 111.025 27.3257 110.946 27.4059C110.704 27.2847 110.441 27.2191 110.173 27.2137C110.084 27.2085 109.996 27.2271 109.917 27.2676C109.838 27.3082 109.77 27.3694 109.72 27.4453C109.618 27.6029 109.569 27.8787 109.569 28.2774C109.569 28.7513 109.623 29.0717 109.732 29.2388C109.84 29.4043 110.034 29.4878 110.306 29.4878" fill="#111210"/>
<path d="M114.476 28.4937C114.476 27.9169 114.606 27.4866 114.863 27.2061C115.002 27.0642 115.168 26.9539 115.35 26.8821C115.532 26.8102 115.726 26.7783 115.92 26.7885C116.338 26.7885 116.659 26.8909 116.878 27.0942C117.097 27.2975 117.205 27.671 117.205 28.2116C117.205 28.7915 117.075 29.2202 116.82 29.4991C116.678 29.643 116.508 29.7545 116.322 29.8267C116.137 29.8988 115.938 29.93 115.74 29.9183C115.4 29.9402 115.064 29.8277 114.8 29.6031C114.582 29.3998 114.473 29.0263 114.473 28.4858M115.207 28.2699C115.207 28.7427 115.266 29.0673 115.381 29.2344C115.435 29.3143 115.508 29.3788 115.592 29.422C115.676 29.4652 115.769 29.4858 115.863 29.4818C115.954 29.4895 116.046 29.4712 116.128 29.4287C116.21 29.3862 116.28 29.3212 116.329 29.2407C116.441 28.9834 116.489 28.7012 116.47 28.4196C116.47 27.9295 116.412 27.6064 116.296 27.4472C116.241 27.369 116.168 27.3063 116.084 27.2645C116 27.2227 115.907 27.2032 115.814 27.2077C115.723 27.1995 115.631 27.2179 115.549 27.2607C115.467 27.3035 115.398 27.3691 115.349 27.4504C115.254 27.6111 115.206 27.8843 115.207 28.2699Z" fill="#111210"/>
<path d="M58.3633 17.3546L67.5813 17.2459L76.7994 17.1844L95.2355 17.1309L113.673 17.1829L122.89 17.2443L132.108 17.3546L122.89 17.4634L113.673 17.5249L95.2355 17.5769L76.7994 17.5249L67.5813 17.4618L58.3633 17.3546Z" fill="#111210"/>
<path d="M154.271 6.10712H154.446C154.481 6.1077 154.515 6.10346 154.549 6.09451C154.574 6.0879 154.598 6.07438 154.617 6.0553C154.636 6.03621 154.65 6.01224 154.657 5.98577C154.672 5.93429 154.672 5.87965 154.657 5.82817C154.651 5.80163 154.638 5.77743 154.619 5.75824C154.601 5.73905 154.577 5.72562 154.552 5.71944C154.517 5.70859 154.481 5.70327 154.444 5.70368H154.268L154.271 6.10712ZM153.88 5.39951H154.514C154.602 5.39817 154.689 5.41038 154.774 5.43576C154.837 5.45134 154.896 5.4827 154.946 5.52717C154.996 5.57156 155.031 5.63188 155.046 5.69895C155.07 5.79493 155.07 5.89609 155.046 5.99208C155.021 6.07499 154.967 6.14494 154.895 6.1875C154.858 6.21114 154.819 6.23018 154.778 6.24423H154.769C154.829 6.26284 154.882 6.30027 154.92 6.3514C154.962 6.40237 154.997 6.45911 155.024 6.52003L155.242 6.97864C155.241 6.98124 155.241 6.98391 155.242 6.98651H154.83C154.828 6.98754 154.827 6.98809 154.825 6.98809C154.823 6.98809 154.822 6.98754 154.821 6.98651L154.633 6.58779C154.614 6.54771 154.59 6.50971 154.564 6.47432C154.545 6.45107 154.522 6.43207 154.496 6.41851C154.47 6.40495 154.442 6.39713 154.413 6.39552C154.366 6.39552 154.319 6.39552 154.272 6.39552H154.253V6.99755H153.862L153.88 5.39951Z" fill="#111210"/>
<path fill-rule="evenodd" clip-rule="evenodd" d="M154.457 4.58301C154.762 4.5827 155.061 4.67699 155.315 4.85395C155.57 5.03091 155.768 5.2826 155.885 5.57717C156.002 5.87173 156.033 6.19594 155.974 6.50879C155.914 6.82163 155.767 7.10905 155.551 7.33468C155.335 7.56031 155.06 7.71402 154.76 7.77635C154.46 7.83869 154.15 7.80685 153.867 7.68487C153.585 7.5629 153.344 7.35625 153.174 7.09109C153.004 6.82593 152.913 6.51416 152.913 6.19523C152.913 5.98358 152.953 5.77397 153.03 5.57838C153.108 5.38278 153.221 5.20504 153.365 5.05531C153.508 4.90559 153.678 4.7868 153.866 4.70576C154.053 4.62472 154.254 4.58301 154.457 4.58301ZM154.457 4.78789C154.723 4.78789 154.984 4.87043 155.206 5.02507C155.428 5.17971 155.601 5.3995 155.703 5.65666C155.805 5.91382 155.831 6.19679 155.779 6.46979C155.727 6.74278 155.599 6.99355 155.41 7.19037C155.222 7.38719 154.981 7.52123 154.72 7.57553C154.458 7.62983 154.187 7.60196 153.941 7.49544C153.694 7.38892 153.484 7.20854 153.335 6.97711C153.187 6.74567 153.108 6.47357 153.108 6.19523C153.109 5.82211 153.251 5.46438 153.504 5.20055C153.756 4.93671 154.099 4.7883 154.457 4.78789Z" fill="#111210"/>
<path d="M45.024 12.2893H44.8141C44.7871 12.2894 44.7608 12.2985 44.7391 12.3152C44.7174 12.3319 44.7013 12.3554 44.6933 12.3823C44.5564 12.8656 44.4099 13.1808 44.2538 13.3279C44.1028 13.4571 43.8279 13.5249 43.4429 13.5249H42.058C41.6911 13.5249 41.5567 13.454 41.5129 13.4099C41.4159 13.2808 41.371 13.1175 41.3875 12.9544V8.10356C41.3875 7.73321 41.4449 7.45584 41.5521 7.3014C41.6114 7.22651 41.6875 7.16816 41.7737 7.13157C41.8599 7.09499 41.9534 7.08132 42.046 7.09179C42.0783 7.09097 42.109 7.07699 42.1316 7.05285C42.1541 7.0287 42.1668 6.9963 42.1668 6.96256V6.75611C42.167 6.73942 42.164 6.72286 42.158 6.70738C42.152 6.6919 42.1432 6.67781 42.1319 6.66594C42.1207 6.65406 42.1073 6.64464 42.0925 6.6382C42.0778 6.63177 42.0619 6.62846 42.046 6.62846H39.5617C39.5455 6.62803 39.5293 6.63103 39.5142 6.63727C39.4991 6.64352 39.4854 6.65288 39.4738 6.6648C39.4622 6.67672 39.4531 6.69095 39.4469 6.70664C39.4408 6.72233 39.4377 6.73915 39.4379 6.75611V6.96887C39.4379 7.00314 39.4509 7.03601 39.4742 7.06025C39.4974 7.08448 39.5289 7.0981 39.5617 7.0981C39.8169 7.0981 39.9936 7.15956 40.0812 7.27461C40.1688 7.38965 40.2247 7.57404 40.2247 8.02162V12.5919C40.2247 13.0033 40.1718 13.2932 40.0631 13.4587C40.0048 13.5373 39.928 13.5988 39.8401 13.6372C39.7522 13.6756 39.6563 13.6896 39.5617 13.6778C39.5451 13.6773 39.5285 13.6805 39.5131 13.687C39.4977 13.6935 39.4837 13.7033 39.4721 13.7157C39.4605 13.7282 39.4514 13.743 39.4456 13.7592C39.4397 13.7755 39.4371 13.7928 39.4379 13.8102V14.0056C39.4375 14.0227 39.4404 14.0398 39.4465 14.0558C39.4525 14.0717 39.4616 14.0862 39.4732 14.0985C39.4847 14.1107 39.4985 14.1203 39.5137 14.1268C39.529 14.1334 39.5453 14.1366 39.5617 14.1364H44.5981C44.6255 14.1359 44.6519 14.1263 44.6736 14.109C44.6954 14.0917 44.7112 14.0676 44.7189 14.0402L45.1433 12.4643C45.1484 12.4448 45.1492 12.4244 45.1458 12.4045C45.1424 12.3846 45.1349 12.3657 45.1237 12.3492C45.1115 12.3336 45.0963 12.3208 45.0792 12.3116C45.062 12.3024 45.0432 12.297 45.024 12.2956" fill="#111210"/>
<path d="M55.8926 6.62207H53.4371C53.4045 6.62207 53.3733 6.63547 53.3501 6.65936C53.3269 6.68326 53.3137 6.71572 53.3133 6.74972V6.96248C53.3137 6.9961 53.3264 7.02827 53.3489 7.05234C53.3714 7.0764 53.4019 7.0905 53.4341 7.09171C53.525 7.08446 53.6162 7.10015 53.7001 7.13746C53.7839 7.17477 53.8579 7.23259 53.9158 7.30604C54.0085 7.44473 54.0543 7.71579 54.0533 8.11924V12.4453C53.5866 13.1828 52.9644 13.5595 52.1943 13.5595C51.6717 13.5595 51.2761 13.4019 50.9861 13.0867C50.6962 12.7715 50.5572 12.3397 50.5572 11.7771V8.10348C50.5572 7.60232 50.6327 7.37854 50.6947 7.28555C50.7838 7.15317 50.962 7.09171 51.2308 7.09171C51.2634 7.09091 51.2944 7.07704 51.3175 7.05298C51.3405 7.02891 51.3538 6.9965 51.3546 6.96248V6.75603C51.3542 6.72203 51.341 6.68956 51.3178 6.66567C51.2946 6.64177 51.2634 6.62837 51.2308 6.62838H48.7118C48.6954 6.62796 48.6791 6.63094 48.6638 6.63715C48.6486 6.64336 48.6346 6.65267 48.6228 6.66454C48.611 6.67642 48.6016 6.69062 48.5951 6.70632C48.5886 6.72203 48.5852 6.73892 48.585 6.75603V6.96879C48.5857 7.00335 48.5995 7.03621 48.6232 7.06036C48.6469 7.08451 48.6787 7.09803 48.7118 7.09802C48.9716 7.09802 49.1452 7.16578 49.2343 7.29344C49.2978 7.39745 49.3748 7.61809 49.3748 8.12555V11.6888C49.3748 12.4768 49.6013 13.1167 50.0408 13.5942C50.4802 14.0717 51.0979 14.3191 51.8635 14.3191C52.2738 14.318 52.6796 14.2297 53.056 14.0595C53.4325 13.8893 53.7718 13.6409 54.0533 13.3294V14.0055C54.0531 14.0229 54.0562 14.0401 54.0625 14.0562C54.0689 14.0722 54.0782 14.0868 54.0901 14.099C54.1019 14.1112 54.116 14.1208 54.1315 14.1272C54.1469 14.1336 54.1635 14.1367 54.1801 14.1363H55.8926C55.9258 14.1359 55.9574 14.122 55.9808 14.0975C56.0043 14.0731 56.0176 14.0401 56.018 14.0055V13.7975C56.018 13.7625 56.0049 13.7289 55.9815 13.7038C55.958 13.6788 55.9262 13.6643 55.8926 13.6635C55.6344 13.6635 55.4683 13.6005 55.3777 13.4634C55.2871 13.3263 55.2267 13.0426 55.2267 12.6407V8.11924C55.2267 7.70844 55.277 7.4337 55.3777 7.29501C55.4784 7.15633 55.649 7.08856 55.8896 7.09171C55.9224 7.09093 55.9536 7.07711 55.9769 7.05308C56.0002 7.02906 56.0138 6.99664 56.015 6.96248V6.75603C56.0142 6.72189 56.0006 6.68942 55.9772 6.66557C55.9538 6.64171 55.9224 6.62837 55.8896 6.62838" fill="#111210"/>
<path d="M61.5392 5.67974C61.5501 5.69285 61.5635 5.7033 61.5787 5.71038C61.5938 5.71747 61.6102 5.72099 61.6268 5.72071C61.6391 5.71854 61.6512 5.71538 61.6631 5.71126L64.2394 4.83029C64.2591 4.82299 64.2768 4.81066 64.2908 4.79442C64.3047 4.77818 64.3146 4.75854 64.3194 4.73731C64.3263 4.71558 64.3269 4.69225 64.3213 4.67015C64.3156 4.64805 64.304 4.62813 64.2877 4.6128L63.8045 4.1211C63.7853 4.10051 63.7603 4.08681 63.7332 4.082C63.706 4.07718 63.6781 4.08149 63.6535 4.09431L61.3882 5.29835C61.3713 5.30884 61.3568 5.323 61.3456 5.33985C61.3344 5.35671 61.3268 5.37588 61.3233 5.39606C61.3208 5.41673 61.3229 5.43772 61.3294 5.4574C61.336 5.47708 61.3468 5.49492 61.361 5.50953L61.5392 5.67974Z" fill="#111210"/>
<path d="M65.0549 14.0387L65.3721 12.6818C65.3762 12.6626 65.3765 12.6427 65.3729 12.6235C65.3692 12.6042 65.3618 12.5859 65.3509 12.5699C65.3246 12.5401 65.2884 12.5221 65.2497 12.5194H65.0474C65.0231 12.5192 64.9993 12.5263 64.9789 12.54C64.9585 12.5538 64.9424 12.5735 64.9326 12.5967C64.8459 12.818 64.7289 13.025 64.5853 13.2113C64.4874 13.3279 64.3587 13.4118 64.2153 13.4524C63.9334 13.51 63.646 13.5328 63.359 13.5202H62.1433C62.0352 13.5313 61.9265 13.5053 61.8338 13.4461C61.7736 13.365 61.746 13.2628 61.7567 13.1609V10.696H63.3605C63.8045 10.696 63.9404 10.7622 63.9827 10.7874C64.025 10.8127 64.1201 10.9246 64.2077 11.2965C64.2145 11.3251 64.2301 11.3506 64.2523 11.3688C64.2744 11.3871 64.3018 11.3971 64.3301 11.3973H64.5339C64.5681 11.3969 64.6008 11.3825 64.6248 11.3571C64.6488 11.3317 64.6623 11.2975 64.6623 11.2618V9.50145C64.6623 9.46578 64.6488 9.43154 64.6248 9.40617C64.6008 9.3808 64.5681 9.36633 64.5339 9.36592H64.3301C64.2998 9.36529 64.2704 9.37637 64.2475 9.39704C64.2247 9.41771 64.2099 9.44648 64.2062 9.47781C64.1929 9.65405 64.1345 9.82333 64.0371 9.96794C63.9857 10.0152 63.8649 10.0751 63.584 10.0751H61.7552V7.2289H63.6354C64.176 7.2289 64.3572 7.31558 64.4192 7.36601C64.4811 7.41644 64.5958 7.58822 64.6804 7.98694C64.6869 8.01513 64.7024 8.04016 64.7244 8.05792C64.7464 8.07568 64.7734 8.0851 64.8012 8.08465H64.9326C64.9491 8.0853 64.9656 8.08242 64.981 8.07618C64.9963 8.06994 65.0103 8.06047 65.0221 8.04836C65.0338 8.03625 65.0431 8.02175 65.0492 8.00577C65.0554 7.98978 65.0584 7.97265 65.058 7.95542V6.75611C65.058 6.73908 65.0547 6.72222 65.0484 6.70652C65.042 6.69082 65.0327 6.67661 65.0211 6.66471C65.0094 6.65281 64.9955 6.64348 64.9803 6.63725C64.9652 6.63103 64.9489 6.62804 64.9326 6.62846H59.9279C59.9115 6.62804 59.8951 6.63101 59.8797 6.6372C59.8644 6.64339 59.8503 6.65267 59.8384 6.66453C59.8265 6.67638 59.8169 6.69057 59.8102 6.70629C59.8036 6.722 59.8 6.73893 59.7996 6.75611V6.97044C59.8007 7.005 59.8148 7.0377 59.8388 7.06156C59.8628 7.08542 59.8948 7.09853 59.9279 7.0981C60.1877 7.0981 60.3583 7.15956 60.4429 7.29194C60.5275 7.42432 60.5939 7.7143 60.5939 8.12721V12.6628C60.5939 13.1577 60.5184 13.3768 60.4504 13.4761C60.3689 13.6084 60.1998 13.6715 59.9325 13.6715C59.9156 13.671 59.8989 13.6742 59.8832 13.6806C59.8675 13.6871 59.8533 13.6968 59.8413 13.7092C59.8293 13.7216 59.8199 13.7363 59.8135 13.7526C59.8071 13.7688 59.8039 13.7863 59.8041 13.8038V14.0056C59.8043 14.023 59.8078 14.0401 59.8143 14.0561C59.8209 14.0721 59.8304 14.0866 59.8423 14.0987C59.8542 14.1109 59.8683 14.1205 59.8838 14.1269C59.8993 14.1334 59.9158 14.1366 59.9325 14.1364H64.9371C64.965 14.1366 64.9922 14.1272 65.0144 14.1095C65.0365 14.0918 65.0524 14.0668 65.0595 14.0387" fill="#111210"/>
<path d="M75.8979 6.62211H73.8712C73.8549 6.62169 73.8387 6.62468 73.8235 6.63091C73.8083 6.63713 73.7945 6.64647 73.7828 6.65837C73.7711 6.67026 73.7618 6.68448 73.7555 6.70017C73.7492 6.71587 73.7459 6.73273 73.7459 6.74976V6.96252C73.7463 6.99694 73.7597 7.0298 73.7831 7.054C73.8066 7.07819 73.8383 7.09175 73.8712 7.09175C74.3122 7.09175 74.3696 7.29663 74.3696 7.47629C74.3605 7.63332 74.3284 7.78798 74.2745 7.9349L72.7749 12.1286L71.1892 7.76154C71.1479 7.66196 71.1258 7.55485 71.1243 7.44634C71.1243 7.27929 71.1801 7.08545 71.6015 7.08545C71.6346 7.08508 71.6664 7.07149 71.6903 7.04746C71.7141 7.02344 71.7283 6.99079 71.7298 6.95621V6.75607C71.7287 6.72151 71.7146 6.6888 71.6906 6.66495C71.6666 6.64109 71.6346 6.62798 71.6015 6.62841H69.0795C69.0465 6.62799 69.0147 6.64115 68.9909 6.66505C68.9672 6.68895 68.9534 6.72165 68.9526 6.75607V6.96882C68.9541 7.0026 68.9676 7.03459 68.9905 7.0585C69.0135 7.08241 69.0441 7.09652 69.0765 7.09806C69.2758 7.08724 69.4714 7.15662 69.6232 7.2919C69.7576 7.41955 69.9252 7.74893 70.117 8.27057L72.2614 14.1505C72.2702 14.1749 72.2859 14.1959 72.3064 14.2108C72.3269 14.2257 72.3512 14.2338 72.3762 14.2341H72.577C72.6021 14.2343 72.6266 14.2264 72.6472 14.2114C72.6677 14.1964 72.6833 14.1752 72.6918 14.1505L74.7441 8.42975C75.0462 7.55036 75.4358 7.10278 75.8918 7.10278C75.9246 7.10242 75.956 7.08899 75.9796 7.06526C76.0032 7.04153 76.0172 7.00928 76.0187 6.97513V6.75607C76.0175 6.72178 76.0036 6.68931 75.98 6.6655C75.9563 6.64169 75.9247 6.62839 75.8918 6.62841" fill="#111210"/>
<path d="M80.4676 10.4927L81.2725 7.96011L82.0774 10.4927H80.4676ZM80.2546 11.2019H82.3085L82.9246 13.1198C82.9515 13.1957 82.9668 13.2754 82.9699 13.3562C82.9699 13.4492 82.9699 13.6714 82.4987 13.6714C82.4822 13.6714 82.4659 13.6749 82.4506 13.6816C82.4354 13.6882 82.4216 13.698 82.4101 13.7104C82.3985 13.7227 82.3895 13.7373 82.3834 13.7534C82.3774 13.7694 82.3745 13.7866 82.3749 13.8038V14.0055C82.3747 14.0226 82.3778 14.0396 82.3839 14.0555C82.39 14.0713 82.3991 14.0858 82.4106 14.0979C82.4221 14.1101 82.4359 14.1198 82.451 14.1264C82.4661 14.1329 82.4823 14.1363 82.4987 14.1363H84.9467C84.963 14.1363 84.9792 14.1329 84.9942 14.1263C85.0093 14.1197 85.0229 14.11 85.0343 14.0978C85.0457 14.0857 85.0546 14.0712 85.0606 14.0553C85.0666 14.0395 85.0694 14.0226 85.069 14.0055V13.7959C85.0696 13.7788 85.0669 13.7617 85.061 13.7456C85.0552 13.7296 85.0463 13.7149 85.0348 13.7026C85.0234 13.6902 85.0097 13.6804 84.9946 13.6737C84.9794 13.667 84.9632 13.6635 84.9467 13.6635C84.7554 13.6797 84.5642 13.6311 84.4015 13.5249C84.329 13.465 84.2113 13.3058 84.0753 12.8803L82.0532 6.62683C82.0447 6.60094 82.0286 6.5785 82.0072 6.56267C81.9858 6.54683 81.9602 6.53841 81.9339 6.53858H81.2196C81.1938 6.53883 81.1688 6.54747 81.1479 6.56329C81.1271 6.57911 81.1115 6.60132 81.1033 6.62683L79.1809 12.6155C79.042 13.0316 78.9076 13.3121 78.7762 13.4366C78.6281 13.5712 78.442 13.652 78.2461 13.6667C78.2165 13.6725 78.1898 13.6889 78.1705 13.7131C78.1512 13.7372 78.1406 13.7676 78.1404 13.7991V14.0055C78.1402 14.0228 78.1433 14.0399 78.1495 14.0558C78.1557 14.0718 78.165 14.0863 78.1767 14.0985C78.1883 14.1107 78.2022 14.1203 78.2175 14.1268C78.2328 14.1333 78.2492 14.1365 78.2657 14.1363H80.0628C80.0794 14.1365 80.0959 14.1333 80.1113 14.1268C80.1266 14.1204 80.1406 14.1108 80.1524 14.0986C80.1642 14.0864 80.1736 14.0719 80.18 14.056C80.1864 14.04 80.1897 14.0228 80.1897 14.0055V13.7959C80.1901 13.779 80.1873 13.7621 80.1814 13.7462C80.1756 13.7304 80.1668 13.7159 80.1556 13.7036C80.1443 13.6913 80.1309 13.6815 80.116 13.6746C80.1012 13.6677 80.0851 13.664 80.0689 13.6635C79.6913 13.6557 79.637 13.487 79.637 13.3247C79.661 13.0644 79.7195 12.8087 79.8106 12.5651L80.2546 11.2019Z" fill="#111210"/>
<path d="M95.9998 6.62238H93.8991C93.8668 6.62279 93.8359 6.63637 93.8131 6.66022C93.7902 6.68407 93.7772 6.7163 93.7768 6.75003V6.96279C93.7775 6.99655 93.7906 7.02873 93.8134 7.05275C93.8361 7.07677 93.8668 7.09082 93.8991 7.09202C94.1785 7.09202 94.3718 7.16294 94.4715 7.30635C94.5711 7.44976 94.6225 7.73659 94.6225 8.15107V12.0232L90.4771 6.66493C90.4658 6.65008 90.4512 6.6382 90.4347 6.63027C90.4182 6.62233 90.4001 6.61855 90.3819 6.61923H88.603C88.5865 6.6186 88.57 6.62142 88.5545 6.62753C88.5391 6.63364 88.525 6.64292 88.513 6.65482C88.501 6.66671 88.4915 6.68099 88.4849 6.6968C88.4783 6.71261 88.4748 6.72964 88.4746 6.74688V6.95964C88.4754 6.99154 88.4871 7.02208 88.5076 7.04578C88.5281 7.06947 88.556 7.08475 88.5864 7.08886C88.9201 7.11881 89.1557 7.2244 89.2946 7.40406C89.4336 7.58372 89.5045 7.88631 89.5045 8.30709V12.5543C89.5045 13.0917 89.423 13.3423 89.3535 13.4463C89.2584 13.5913 89.0636 13.667 88.7751 13.667C88.7583 13.667 88.7417 13.6704 88.7262 13.6772C88.7108 13.6839 88.6967 13.6938 88.6849 13.7063C88.6731 13.7188 88.6638 13.7335 88.6575 13.7498C88.6512 13.766 88.6481 13.7834 88.6483 13.8009V14.0058C88.6487 14.0406 88.6622 14.0739 88.686 14.0984C88.7097 14.1229 88.7417 14.1366 88.7751 14.1366H90.8894C90.9056 14.1366 90.9217 14.1332 90.9367 14.1266C90.9516 14.1199 90.9652 14.1102 90.9764 14.098C90.9877 14.0858 90.9965 14.0714 91.0023 14.0555C91.0081 14.0397 91.0108 14.0228 91.0102 14.0058V13.7978C91.011 13.7806 91.0085 13.7635 91.0028 13.7474C90.9971 13.7312 90.9884 13.7165 90.9771 13.704C90.9658 13.6915 90.9522 13.6815 90.9371 13.6746C90.9221 13.6677 90.9058 13.664 90.8894 13.6638C90.5979 13.6638 90.394 13.6024 90.2853 13.47C90.1766 13.3376 90.1101 13.117 90.1101 12.786V8.05809L94.8098 14.0814C94.8206 14.0971 94.8349 14.1097 94.8515 14.1182C94.8681 14.1267 94.8864 14.1309 94.9049 14.1303H95.1224C95.1387 14.1303 95.1548 14.1269 95.1699 14.1203C95.1849 14.1137 95.1985 14.104 95.2099 14.0918C95.2213 14.0796 95.2303 14.0652 95.2362 14.0493C95.2422 14.0335 95.2451 14.0165 95.2447 13.9995V8.10379C95.2447 7.60263 95.3368 7.38357 95.4108 7.28744C95.515 7.15978 95.7128 7.09202 96.0149 7.09202C96.0472 7.0912 96.0779 7.07722 96.1005 7.05307C96.1231 7.02892 96.1357 6.99652 96.1357 6.96279V6.75634C96.1359 6.73965 96.1329 6.72309 96.1269 6.70761C96.1209 6.69213 96.1121 6.67804 96.1008 6.66616C96.0896 6.65429 96.0762 6.64486 96.0614 6.63843C96.0467 6.63199 96.0309 6.62868 96.0149 6.62868" fill="#111210"/>
<path d="M106.557 10.4044C106.557 11.3721 106.319 12.1884 105.84 12.8235C105.629 13.1162 105.356 13.354 105.043 13.5185C104.729 13.683 104.384 13.7697 104.033 13.7719C103.682 13.774 103.335 13.6915 103.02 13.5309C102.705 13.3702 102.43 13.1357 102.215 12.8456C101.75 12.2152 101.518 11.38 101.518 10.3556C101.518 9.3312 101.753 8.50696 102.223 7.89391C102.441 7.5992 102.722 7.36266 103.045 7.20374C103.367 7.04483 103.721 6.9681 104.077 6.97985C104.423 6.97298 104.765 7.05337 105.074 7.21417C105.383 7.37498 105.651 7.61143 105.853 7.90337C106.316 8.5243 106.551 9.36902 106.551 10.4044M106.76 7.57557C106.404 7.20673 105.982 6.9162 105.517 6.72127C105.052 6.52633 104.554 6.43098 104.053 6.44087C103.548 6.42678 103.044 6.51807 102.573 6.70938C102.102 6.9007 101.672 7.18821 101.308 7.55508C100.948 7.91429 100.664 8.34789 100.473 8.82819C100.283 9.30849 100.191 9.82493 100.202 10.3445C100.193 10.8687 100.287 11.3893 100.478 11.8742C100.669 12.3591 100.953 12.798 101.312 13.164C102.041 13.9018 103.016 14.3145 104.031 14.3145C105.046 14.3145 106.021 13.9018 106.749 13.164C107.112 12.7998 107.398 12.3614 107.591 11.8763C107.783 11.3911 107.878 10.8696 107.868 10.3445C107.876 9.8285 107.782 9.31629 107.592 8.83988C107.401 8.36346 107.119 7.93307 106.763 7.57557" fill="#111210"/>
<path d="M119.72 7.21001H120.285C120.705 7.19301 121.117 7.34021 121.44 7.62291C121.58 7.75573 121.689 7.91909 121.762 8.10133C121.834 8.28357 121.867 8.48021 121.858 8.67723C121.873 8.87912 121.846 9.08204 121.778 9.27171C121.71 9.46138 121.603 9.63318 121.465 9.77502C121.326 9.91686 121.159 10.0253 120.976 10.0926C120.793 10.16 120.598 10.1847 120.405 10.165H119.721L119.72 7.21001ZM124.447 13.5817C124.242 13.5623 124.053 13.4646 123.913 13.3074C123.723 13.1246 123.46 12.7369 123.089 12.116C122.857 11.6828 122.593 11.2692 122.299 10.8789C122.183 10.7302 122.054 10.5936 121.913 10.4707C122.725 10.1224 123.154 9.49832 123.154 8.6536C123.157 8.36665 123.096 8.08295 122.976 7.82461C122.856 7.56628 122.681 7.3403 122.464 7.1643C122.021 6.78764 121.429 6.60011 120.692 6.60011H117.868C117.846 6.59989 117.825 6.60424 117.805 6.61289C117.785 6.62155 117.766 6.63434 117.751 6.6505C117.736 6.66666 117.723 6.68587 117.715 6.70699C117.707 6.72811 117.703 6.75071 117.704 6.77346V6.97676C117.703 6.99951 117.707 7.02211 117.715 7.04323C117.723 7.06435 117.736 7.08356 117.751 7.09972C117.766 7.11589 117.785 7.12867 117.805 7.13733C117.825 7.14599 117.846 7.15033 117.868 7.15012C118.127 7.15012 118.284 7.20212 118.355 7.31559C118.426 7.42906 118.487 7.62133 118.487 8.09097V12.614C118.487 13.0947 118.418 13.3106 118.355 13.402C118.276 13.5218 118.111 13.5754 117.868 13.5754C117.846 13.5751 117.825 13.5795 117.805 13.5881C117.785 13.5968 117.766 13.6096 117.751 13.6257C117.736 13.6419 117.723 13.6611 117.715 13.6822C117.707 13.7034 117.703 13.726 117.704 13.7487V13.9583C117.703 13.9811 117.707 14.0037 117.715 14.0248C117.723 14.0459 117.735 14.0652 117.751 14.0812C117.766 14.0973 117.784 14.1099 117.805 14.1183C117.825 14.1267 117.847 14.1307 117.868 14.1301H120.346C120.368 14.1316 120.39 14.1281 120.41 14.1199C120.431 14.1117 120.449 14.099 120.464 14.0827C120.48 14.0664 120.491 14.0468 120.499 14.0253C120.506 14.0038 120.509 13.981 120.507 13.9583V13.7487C120.507 13.7262 120.504 13.7038 120.496 13.6828C120.488 13.6618 120.477 13.6427 120.462 13.6265C120.447 13.6103 120.429 13.5974 120.409 13.5886C120.389 13.5799 120.368 13.5753 120.346 13.5754C120.106 13.5754 119.948 13.5218 119.866 13.3988C119.785 13.2759 119.715 13.0033 119.715 12.6109V10.8032H120.112C120.377 10.8018 120.634 10.8978 120.837 11.0743C121.068 11.2697 121.401 11.7267 121.826 12.4501C122.142 13.015 122.496 13.5563 122.884 14.0702C122.899 14.0894 122.918 14.1049 122.94 14.1158C122.961 14.1267 122.985 14.1326 123.009 14.1332H124.424C124.446 14.1335 124.467 14.1292 124.487 14.1206C124.508 14.1121 124.526 14.0995 124.541 14.0835C124.557 14.0675 124.569 14.0485 124.577 14.0276C124.586 14.0066 124.59 13.9842 124.59 13.9615V13.7519C124.59 13.7088 124.575 13.6673 124.547 13.6358C124.519 13.6042 124.48 13.5848 124.439 13.5817" fill="#111210"/>
<path d="M134.631 6.59863H132.2C132.178 6.59862 132.157 6.60314 132.137 6.61191C132.117 6.62068 132.099 6.63352 132.084 6.64968C132.069 6.66584 132.057 6.685 132.049 6.706C132.041 6.72701 132.038 6.74945 132.038 6.77199V6.97529C132.037 7.01887 132.053 7.06114 132.081 7.0934C132.109 7.12565 132.148 7.14543 132.189 7.14865C132.413 7.14865 132.553 7.21641 132.629 7.33619C132.689 7.43074 132.765 7.65138 132.765 8.12417V12.3998C132.312 13.1263 131.717 13.4793 130.962 13.4793C130.454 13.4793 130.066 13.3343 129.787 13.0286C129.507 12.7229 129.368 12.2942 129.368 11.7552V8.11787C129.368 7.62302 129.444 7.41656 129.506 7.3157C129.596 7.18016 129.823 7.15022 130 7.15022C130.043 7.14981 130.085 7.13136 130.116 7.0989C130.147 7.06643 130.164 7.02257 130.164 6.97686V6.77356C130.164 6.75087 130.16 6.72837 130.152 6.70734C130.144 6.68632 130.132 6.6672 130.117 6.65108C130.101 6.63496 130.083 6.62216 130.063 6.61343C130.043 6.6047 130.021 6.60021 130 6.60021H127.508C127.464 6.60104 127.423 6.61966 127.392 6.65209C127.362 6.68451 127.345 6.72813 127.345 6.77356V6.97686C127.345 7.02218 127.362 7.06557 127.393 7.09791C127.423 7.13025 127.464 7.149 127.508 7.15022C127.76 7.15022 127.92 7.21168 127.993 7.32673C128.065 7.44178 128.13 7.64192 128.13 8.11472V11.6543C128.103 12.3616 128.346 13.0511 128.805 13.5723C129.258 14.0609 129.87 14.3067 130.637 14.3067C131.034 14.3076 131.427 14.2261 131.793 14.067C132.159 13.9079 132.492 13.6744 132.771 13.38V13.9553C132.77 13.9782 132.774 14.001 132.783 14.0223C132.791 14.0435 132.803 14.0628 132.819 14.0789C132.835 14.0949 132.853 14.1075 132.874 14.1158C132.894 14.1241 132.916 14.1279 132.938 14.127H134.631C134.653 14.1273 134.674 14.1229 134.694 14.1144C134.714 14.1058 134.732 14.0931 134.747 14.077C134.762 14.061 134.774 14.0419 134.782 14.021C134.79 14.0001 134.793 13.9777 134.793 13.9553V13.7457C134.793 13.7005 134.776 13.6571 134.746 13.6247C134.716 13.5923 134.675 13.5735 134.631 13.5723C134.39 13.5723 134.231 13.514 134.153 13.3911C134.091 13.3028 134.017 13.0885 134.017 12.6031V8.12102C134.017 7.73018 134.065 7.46542 134.153 7.33304C134.207 7.25739 134.317 7.15022 134.631 7.15022C134.675 7.14939 134.716 7.13071 134.746 7.09825C134.777 7.06578 134.793 7.02216 134.793 6.97686V6.77356C134.793 6.75095 134.79 6.72844 134.782 6.70734C134.774 6.68625 134.762 6.66699 134.747 6.65071C134.732 6.63442 134.714 6.62143 134.694 6.61248C134.674 6.60354 134.653 6.59883 134.631 6.59863Z" fill="#111210"/>
<path d="M141.003 4.13047C140.978 4.10528 140.946 4.08884 140.912 4.08346C140.878 4.07809 140.843 4.08406 140.812 4.10053L138.558 5.28723C138.535 5.30064 138.515 5.31922 138.5 5.34159C138.485 5.36396 138.476 5.38956 138.472 5.41647C138.467 5.44302 138.47 5.47022 138.478 5.49573C138.486 5.52125 138.5 5.54434 138.518 5.56303L138.678 5.73166C138.693 5.74761 138.711 5.7602 138.73 5.76862C138.75 5.77703 138.771 5.78108 138.792 5.78051C138.809 5.78207 138.826 5.77823 138.841 5.76948L141.409 4.89955C141.436 4.89038 141.46 4.87412 141.479 4.85232C141.499 4.83052 141.512 4.80391 141.519 4.77504C141.524 4.74727 141.523 4.71861 141.516 4.69128C141.509 4.66395 141.496 4.63869 141.478 4.61745L141.003 4.13047Z" fill="#111210"/>
<path d="M141.024 6.59863H138.538C138.517 6.59904 138.496 6.60385 138.476 6.61279C138.456 6.62172 138.438 6.63461 138.424 6.65071C138.409 6.6668 138.397 6.6858 138.389 6.70661C138.381 6.72742 138.378 6.74964 138.378 6.77199V6.97529C138.378 6.99764 138.381 7.01986 138.389 7.04067C138.397 7.06148 138.409 7.08047 138.424 7.09657C138.438 7.11267 138.456 7.12556 138.476 7.13449C138.496 7.14343 138.517 7.14824 138.538 7.14865C138.793 7.14865 138.95 7.20065 139.027 7.32515C139.088 7.41026 139.163 7.61986 139.163 8.11314V12.6062C139.163 13.0018 139.118 13.2666 139.027 13.3942C138.937 13.5219 138.78 13.5707 138.538 13.5707C138.495 13.572 138.454 13.5908 138.424 13.6232C138.394 13.6557 138.378 13.6991 138.378 13.7441V13.9537C138.377 13.976 138.381 13.9983 138.389 14.0191C138.397 14.0399 138.408 14.0589 138.423 14.0749C138.438 14.0909 138.456 14.1036 138.476 14.1123C138.495 14.121 138.517 14.1255 138.538 14.1255H141.024C141.045 14.1253 141.066 14.1206 141.086 14.1119C141.106 14.1031 141.123 14.0904 141.138 14.0744C141.153 14.0584 141.165 14.0395 141.173 14.0188C141.18 13.9981 141.184 13.976 141.184 13.9537V13.7441C141.184 13.6992 141.167 13.656 141.137 13.6237C141.108 13.5913 141.067 13.5724 141.024 13.5707C140.859 13.5707 140.642 13.5408 140.544 13.3942C140.479 13.3012 140.4 13.0869 140.4 12.6062V8.12102C140.4 7.64823 140.479 7.42917 140.544 7.33304C140.609 7.2369 140.784 7.1518 141.024 7.1518C141.067 7.15017 141.108 7.13118 141.137 7.09885C141.167 7.06651 141.184 7.02335 141.184 6.97844V6.77514C141.184 6.73012 141.168 6.68672 141.138 6.6543C141.108 6.62188 141.067 6.60302 141.024 6.60178" fill="#111210"/>
<path d="M150.87 12.0608H150.666C150.632 12.0594 150.599 12.0699 150.572 12.0904C150.545 12.111 150.525 12.1405 150.515 12.1743C150.415 12.566 150.19 12.9103 149.876 13.1498C149.592 13.3453 149.183 13.4461 148.65 13.4461H146.358L150.687 7.0918C150.707 7.06198 150.717 7.02691 150.718 6.99094V6.77345C150.718 6.72816 150.701 6.68454 150.671 6.65207C150.641 6.61961 150.599 6.60093 150.556 6.6001H144.949C144.907 6.59995 144.867 6.61609 144.837 6.6453C144.806 6.67451 144.788 6.71464 144.784 6.7577L144.671 7.98222C144.669 8.03154 144.686 8.07961 144.718 8.11618C144.733 8.13226 144.752 8.14476 144.773 8.1529C144.793 8.16104 144.815 8.16463 144.837 8.16346H145.033C145.068 8.16459 145.101 8.1535 145.129 8.13202C145.156 8.11054 145.176 8.07994 145.184 8.04526C145.229 7.80219 145.362 7.58627 145.554 7.44167C145.658 7.37863 145.897 7.29195 146.401 7.29195H149.055L144.7 13.6715C144.677 13.6994 144.665 13.7345 144.665 13.7708V13.9599C144.665 13.9826 144.669 14.0052 144.677 14.0262C144.685 14.0473 144.698 14.0664 144.713 14.0824C144.729 14.0984 144.747 14.111 144.767 14.1195C144.787 14.1279 144.809 14.1321 144.831 14.1317H150.616C150.655 14.1307 150.692 14.1157 150.721 14.0893C150.751 14.0628 150.77 14.0265 150.776 13.9867L151.027 12.2531C151.031 12.2051 151.017 12.1574 150.989 12.1191C150.973 12.1012 150.954 12.0869 150.932 12.0774C150.911 12.0679 150.887 12.0633 150.864 12.064" fill="#111210"/>
</g>
<defs>
<clipPath id="clip0_36_5956">
<rect width="156" height="34" fill="white"/>
</clipPath>
</defs>
</svg>
