<svg width="226" height="48" viewBox="0 0 226 48" fill="none" xmlns="http://www.w3.org/2000/svg">
<g clip-path="url(#clip0_48_2)">
<path d="M219.165 12.9852H219.419C219.469 12.986 219.519 12.98 219.568 12.9674C219.605 12.9581 219.639 12.939 219.667 12.912C219.695 12.8851 219.715 12.8512 219.725 12.8139C219.746 12.7412 219.746 12.6641 219.725 12.5914C219.716 12.5539 219.697 12.5198 219.67 12.4927C219.643 12.4656 219.609 12.4466 219.572 12.4379C219.522 12.4226 219.47 12.4151 219.417 12.4156H219.161L219.165 12.9852ZM218.599 11.9862H219.518C219.645 11.9843 219.772 12.0016 219.894 12.0374C219.986 12.0594 220.072 12.1037 220.143 12.1664C220.216 12.2291 220.267 12.3143 220.288 12.409C220.324 12.5445 220.324 12.6873 220.288 12.8228C220.252 12.9398 220.174 13.0386 220.069 13.0987C220.016 13.132 219.96 13.1589 219.901 13.1788H219.887C219.974 13.205 220.05 13.2579 220.106 13.3301C220.167 13.402 220.218 13.4821 220.257 13.5681L220.572 14.2156C220.571 14.2192 220.571 14.223 220.572 14.2267H219.975C219.973 14.2281 219.971 14.2289 219.968 14.2289C219.966 14.2289 219.964 14.2281 219.962 14.2267L219.69 13.6638C219.662 13.6072 219.628 13.5536 219.59 13.5036C219.563 13.4708 219.529 13.4439 219.492 13.4248C219.454 13.4057 219.413 13.3946 219.371 13.3924C219.303 13.3924 219.235 13.3924 219.168 13.3924H219.139V14.2423H218.573L218.599 11.9862Z" fill="#FFFCF4"/>
<path fill-rule="evenodd" clip-rule="evenodd" d="M219.435 10.8337C219.877 10.8333 220.31 10.9664 220.679 11.2162C221.047 11.4661 221.334 11.8214 221.504 12.2373C221.674 12.6531 221.718 13.1108 221.632 13.5525C221.546 13.9941 221.333 14.3999 221.02 14.7185C220.707 15.037 220.308 15.254 219.874 15.342C219.44 15.43 218.99 15.3851 218.581 15.2128C218.172 15.0406 217.822 14.7489 217.576 14.3746C217.33 14.0002 217.199 13.5601 217.199 13.1098C217.198 12.811 217.256 12.5151 217.368 12.239C217.481 11.9628 217.645 11.7119 217.853 11.5005C218.06 11.2891 218.307 11.1214 218.578 11.007C218.85 10.8926 219.141 10.8337 219.435 10.8337ZM219.435 11.123C219.821 11.123 220.199 11.2395 220.52 11.4578C220.841 11.6761 221.092 11.9864 221.24 12.3495C221.388 12.7125 221.426 13.112 221.351 13.4974C221.275 13.8828 221.089 14.2369 220.816 14.5147C220.543 14.7926 220.195 14.9818 219.816 15.0585C219.437 15.1351 219.044 15.0958 218.687 14.9454C218.33 14.795 218.025 14.5404 217.81 14.2136C217.596 13.8869 217.481 13.5028 217.481 13.1098C217.482 12.5831 217.688 12.078 218.054 11.7056C218.42 11.3331 218.917 11.1236 219.435 11.123Z" fill="#FFFCF4"/>
<path d="M60.8976 21.7133H60.5935C60.5544 21.7134 60.5163 21.7262 60.4848 21.7498C60.4534 21.7734 60.4301 21.8066 60.4185 21.8446C60.2201 22.5269 60.0079 22.9719 59.7818 23.1795C59.563 23.362 59.1649 23.4577 58.607 23.4577H56.6007C56.0691 23.4577 55.8744 23.3575 55.811 23.2952C55.6705 23.1131 55.6054 22.8824 55.6294 22.6522V15.804C55.6294 15.2811 55.7125 14.8896 55.8678 14.6715C55.9537 14.5658 56.064 14.4834 56.1888 14.4318C56.3137 14.3801 56.4492 14.3608 56.5832 14.3756C56.6301 14.3745 56.6746 14.3547 56.7073 14.3206C56.74 14.2865 56.7583 14.2408 56.7583 14.1932V13.9017C56.7586 13.8781 56.7542 13.8548 56.7456 13.8329C56.7369 13.8111 56.7241 13.7912 56.7078 13.7744C56.6915 13.7576 56.6721 13.7443 56.6507 13.7352C56.6294 13.7262 56.6064 13.7215 56.5832 13.7215H52.9843C52.9608 13.7209 52.9374 13.7251 52.9155 13.7339C52.8936 13.7428 52.8737 13.756 52.8569 13.7728C52.8402 13.7896 52.8269 13.8097 52.818 13.8319C52.8091 13.854 52.8046 13.8778 52.8049 13.9017V14.2021C52.8049 14.2505 52.8238 14.2969 52.8575 14.3311C52.8911 14.3653 52.9367 14.3845 52.9843 14.3845C53.354 14.3845 53.61 14.4713 53.7369 14.6337C53.8638 14.7961 53.9448 15.0564 53.9448 15.6883V22.1405C53.9448 22.7212 53.8682 23.1306 53.7107 23.3642C53.6262 23.4752 53.5149 23.562 53.3876 23.6162C53.2603 23.6704 53.1213 23.6901 52.9843 23.6735C52.9602 23.6728 52.9362 23.6773 52.9139 23.6865C52.8915 23.6957 52.8713 23.7095 52.8545 23.7271C52.8376 23.7446 52.8245 23.7655 52.816 23.7884C52.8075 23.8114 52.8037 23.8359 52.8049 23.8604V24.1362C52.8043 24.1605 52.8085 24.1846 52.8173 24.2071C52.8261 24.2296 52.8393 24.2501 52.856 24.2674C52.8728 24.2846 52.8927 24.2982 52.9148 24.3074C52.9368 24.3166 52.9605 24.3212 52.9843 24.3209H60.2806C60.3202 24.3202 60.3585 24.3066 60.39 24.2822C60.4215 24.2578 60.4445 24.2238 60.4557 24.1852L61.0704 21.9603C61.0777 21.9328 61.079 21.9039 61.0741 21.8759C61.0692 21.8478 61.0582 21.8211 61.042 21.7979C61.0243 21.7759 61.0024 21.7578 60.9775 21.7448C60.9527 21.7318 60.9255 21.7241 60.8976 21.7222" fill="#FFFCF4"/>
<path d="M76.6432 13.7126H73.0858C73.0386 13.7126 72.9933 13.7316 72.9597 13.7653C72.9261 13.799 72.907 13.8449 72.9064 13.8929V14.1932C72.9069 14.2407 72.9254 14.2861 72.958 14.3201C72.9906 14.3541 73.0348 14.374 73.0814 14.3757C73.2131 14.3654 73.3453 14.3876 73.4667 14.4403C73.5882 14.4929 73.6954 14.5746 73.7793 14.6783C73.9135 14.874 73.9799 15.2567 73.9784 15.8263V21.9337C73.3024 22.9749 72.401 23.5067 71.2852 23.5067C70.5283 23.5067 69.9551 23.2842 69.535 22.8392C69.1149 22.3942 68.9137 21.7846 68.9137 20.9903V15.8041C68.9137 15.0965 69.0231 14.7806 69.1128 14.6493C69.2418 14.4624 69.5 14.3757 69.8894 14.3757C69.9367 14.3745 69.9816 14.355 70.0151 14.321C70.0485 14.287 70.0677 14.2413 70.0688 14.1932V13.9018C70.0682 13.8538 70.0491 13.8079 70.0155 13.7742C69.9819 13.7405 69.9366 13.7215 69.8894 13.7215H66.2402C66.2164 13.721 66.1928 13.7252 66.1707 13.7339C66.1486 13.7427 66.1284 13.7558 66.1113 13.7726C66.0942 13.7894 66.0805 13.8094 66.0711 13.8316C66.0617 13.8538 66.0567 13.8776 66.0564 13.9018V14.2021C66.0575 14.2509 66.0774 14.2973 66.1117 14.3314C66.1461 14.3655 66.1922 14.3846 66.2402 14.3846C66.6165 14.3846 66.8681 14.4802 66.9971 14.6605C67.089 14.8073 67.2006 15.1188 67.2006 15.8352V20.8657C67.2006 21.9781 67.5288 22.8815 68.1654 23.5556C68.8021 24.2298 69.6969 24.5791 70.8061 24.5791C71.4005 24.5775 71.9883 24.4528 72.5337 24.2126C73.0791 23.9723 73.5707 23.6216 73.9784 23.1818V24.1363C73.9781 24.1608 73.9827 24.1852 73.9918 24.2079C74.001 24.2305 74.0146 24.2511 74.0317 24.2684C74.0489 24.2856 74.0693 24.2991 74.0917 24.3082C74.1141 24.3172 74.1381 24.3216 74.1622 24.321H76.6432C76.6912 24.3204 76.737 24.3008 76.7709 24.2662C76.8049 24.2317 76.8242 24.1851 76.8248 24.1363V23.8426C76.8248 23.7932 76.8058 23.7458 76.7718 23.7104C76.7379 23.6751 76.6917 23.6547 76.6432 23.6535C76.2691 23.6535 76.0284 23.5645 75.8971 23.3709C75.7659 23.1774 75.6784 22.7769 75.6784 22.2095V15.8263C75.6784 15.2463 75.7513 14.8585 75.8971 14.6627C76.043 14.4669 76.2902 14.3712 76.6388 14.3757C76.6862 14.3746 76.7315 14.3551 76.7652 14.3211C76.799 14.2872 76.8187 14.2415 76.8204 14.1932V13.9018C76.8192 13.8536 76.7996 13.8077 76.7657 13.7741C76.7317 13.7404 76.6862 13.7215 76.6388 13.7215" fill="#FFFCF4"/>
<path d="M84.8236 12.3821C84.8393 12.4006 84.8588 12.4154 84.8807 12.4254C84.9026 12.4354 84.9265 12.4404 84.9505 12.44C84.9683 12.4369 84.9859 12.4324 85.003 12.4266L88.7354 11.1829C88.764 11.1726 88.7895 11.1552 88.8098 11.1323C88.83 11.1093 88.8443 11.0816 88.8513 11.0516C88.8612 11.021 88.8621 10.988 88.854 10.9568C88.8458 10.9256 88.829 10.8975 88.8054 10.8759L88.1053 10.1817C88.0775 10.1526 88.0413 10.1333 88.002 10.1265C87.9627 10.1197 87.9222 10.1258 87.8865 10.1439L84.6048 11.8437C84.5803 11.8585 84.5593 11.8785 84.5431 11.9023C84.5268 11.9261 84.5158 11.9531 84.5107 11.9816C84.5071 12.0108 84.5102 12.0405 84.5197 12.0682C84.5292 12.096 84.5448 12.1212 84.5654 12.1418L84.8236 12.3821Z" fill="#FFFCF4"/>
<path d="M89.9165 24.183L90.376 22.2673C90.382 22.2403 90.3824 22.2122 90.3772 22.185C90.3719 22.1578 90.361 22.132 90.3453 22.1094C90.3073 22.0674 90.2548 22.0419 90.1988 22.0382H89.9056C89.8704 22.0378 89.8359 22.0479 89.8063 22.0673C89.7768 22.0866 89.7535 22.1144 89.7393 22.1472C89.6137 22.4596 89.4442 22.7519 89.2361 23.0149C89.0943 23.1795 88.9078 23.2979 88.7001 23.3553C88.2917 23.4367 87.8754 23.4688 87.4596 23.451H85.6984C85.5417 23.4666 85.3843 23.4299 85.2499 23.3464C85.1628 23.232 85.1228 23.0876 85.1384 22.9437V19.464H87.4618C88.105 19.464 88.3019 19.5574 88.3632 19.593C88.4244 19.6286 88.5623 19.7866 88.6892 20.3116C88.6989 20.3521 88.7216 20.388 88.7537 20.4138C88.7858 20.4396 88.8255 20.4538 88.8664 20.454H89.1617C89.2113 20.4535 89.2586 20.433 89.2934 20.3972C89.3282 20.3614 89.3477 20.3131 89.3477 20.2627V17.7775C89.3477 17.7271 89.3282 17.6788 89.2934 17.643C89.2586 17.6071 89.2113 17.5867 89.1617 17.5861H88.8664C88.8226 17.5853 88.78 17.6009 88.7468 17.6301C88.7137 17.6593 88.6924 17.6999 88.687 17.7441C88.6677 17.9929 88.5831 18.2319 88.442 18.4361C88.3676 18.5028 88.1925 18.5873 87.7856 18.5873H85.1362V14.5692H87.86C88.6432 14.5692 88.9058 14.6915 88.9955 14.7627C89.0852 14.8339 89.2514 15.0765 89.374 15.6394C89.3834 15.6791 89.4059 15.7145 89.4377 15.7396C89.4695 15.7646 89.5087 15.7779 89.549 15.7773H89.7393C89.7632 15.7782 89.7871 15.7741 89.8094 15.7653C89.8317 15.7565 89.8519 15.7432 89.8689 15.7261C89.886 15.709 89.8994 15.6885 89.9083 15.6659C89.9172 15.6434 89.9215 15.6192 89.9209 15.5949V13.9017C89.9209 13.8777 89.9162 13.8539 89.907 13.8317C89.8978 13.8095 89.8844 13.7895 89.8675 13.7727C89.8505 13.7559 89.8305 13.7427 89.8085 13.7339C89.7865 13.7251 89.763 13.7209 89.7393 13.7215H82.4889C82.4651 13.7209 82.4414 13.7251 82.4191 13.7338C82.3969 13.7426 82.3765 13.7557 82.3592 13.7724C82.342 13.7892 82.3281 13.8092 82.3185 13.8314C82.3088 13.8536 82.3035 13.8775 82.303 13.9017V14.2043C82.3047 14.2531 82.3251 14.2993 82.3599 14.3329C82.3946 14.3666 82.4409 14.3851 82.4889 14.3845C82.8652 14.3845 83.1125 14.4713 83.235 14.6582C83.3575 14.8451 83.4538 15.2544 83.4538 15.8374V22.2406C83.4538 22.9392 83.3444 23.2485 83.2459 23.3887C83.1278 23.5756 82.8827 23.6646 82.4955 23.6646C82.4711 23.664 82.4468 23.6684 82.4242 23.6775C82.4015 23.6867 82.3808 23.7004 82.3635 23.7178C82.3461 23.7353 82.3324 23.7561 82.3231 23.7791C82.3139 23.802 82.3092 23.8266 82.3095 23.8515V24.1362C82.3098 24.1608 82.3149 24.185 82.3244 24.2076C82.3339 24.2302 82.3476 24.2506 82.3649 24.2678C82.3822 24.2849 82.4026 24.2984 82.425 24.3075C82.4474 24.3167 82.4714 24.3212 82.4955 24.3209H89.7459C89.7863 24.3213 89.8257 24.3079 89.8578 24.2829C89.8899 24.2579 89.9129 24.2227 89.9231 24.183" fill="#FFFCF4"/>
<path d="M105.625 13.7127H102.689C102.666 13.7121 102.642 13.7163 102.62 13.7251C102.598 13.7339 102.578 13.7471 102.561 13.7639C102.544 13.7807 102.531 13.8007 102.521 13.8229C102.512 13.8451 102.508 13.8689 102.508 13.8929V14.1933C102.508 14.2419 102.528 14.2883 102.562 14.3224C102.596 14.3566 102.641 14.3757 102.689 14.3757C103.328 14.3757 103.411 14.665 103.411 14.9186C103.398 15.1403 103.351 15.3586 103.273 15.566L101.101 21.4865L98.8036 15.3213C98.7438 15.1807 98.7118 15.0295 98.7095 14.8763C98.7095 14.6405 98.7905 14.3668 99.4009 14.3668C99.4489 14.3663 99.495 14.3471 99.5295 14.3132C99.5641 14.2793 99.5846 14.2332 99.5868 14.1844V13.9018C99.5851 13.853 99.5647 13.8069 99.53 13.7732C99.4952 13.7395 99.4489 13.721 99.4009 13.7216H95.7473C95.6995 13.721 95.6534 13.7396 95.619 13.7733C95.5846 13.8071 95.5646 13.8532 95.5635 13.9018V14.2022C95.5656 14.2499 95.5852 14.295 95.6184 14.3288C95.6516 14.3625 95.696 14.3825 95.7429 14.3846C96.0316 14.3694 96.3151 14.4673 96.5349 14.6583C96.7296 14.8385 96.9724 15.3035 97.2503 16.0399L100.357 24.341C100.37 24.3755 100.392 24.4051 100.422 24.4262C100.452 24.4472 100.487 24.4587 100.523 24.459H100.814C100.851 24.4593 100.886 24.4481 100.916 24.427C100.946 24.4059 100.968 24.3758 100.98 24.341L103.954 16.2647C104.391 15.0232 104.956 14.3913 105.616 14.3913C105.664 14.3908 105.709 14.3718 105.744 14.3383C105.778 14.3048 105.798 14.2593 105.8 14.2111V13.9018C105.799 13.8534 105.778 13.8076 105.744 13.774C105.71 13.7403 105.664 13.7216 105.616 13.7216" fill="#FFFCF4"/>
<path d="M112.245 19.177L113.411 15.6016L114.577 19.177H112.245ZM111.937 20.1782H114.912L115.805 22.8859C115.844 22.993 115.866 23.1056 115.87 23.2197C115.87 23.3509 115.87 23.6646 115.188 23.6646C115.164 23.6646 115.14 23.6695 115.118 23.6789C115.096 23.6884 115.076 23.7022 115.059 23.7196C115.043 23.737 115.03 23.7577 115.021 23.7803C115.012 23.803 115.008 23.8272 115.008 23.8515V24.1363C115.008 24.1605 115.013 24.1844 115.021 24.2068C115.03 24.2292 115.043 24.2496 115.06 24.2668C115.077 24.2839 115.097 24.2976 115.119 24.3069C115.141 24.3162 115.164 24.321 115.188 24.321H118.734C118.758 24.321 118.781 24.3162 118.803 24.3068C118.825 24.2975 118.845 24.2838 118.861 24.2666C118.878 24.2494 118.891 24.229 118.899 24.2066C118.908 24.1843 118.912 24.1603 118.911 24.1363V23.8404C118.912 23.8162 118.908 23.792 118.9 23.7694C118.891 23.7467 118.878 23.7261 118.862 23.7086C118.845 23.6912 118.826 23.6773 118.804 23.6678C118.782 23.6584 118.758 23.6535 118.734 23.6535C118.457 23.6763 118.18 23.6076 117.944 23.4577C117.839 23.3732 117.669 23.1485 117.472 22.5477L114.542 13.7193C114.53 13.6828 114.507 13.6511 114.476 13.6287C114.445 13.6064 114.408 13.5945 114.37 13.5947H113.335C113.297 13.5951 113.261 13.6073 113.231 13.6296C113.201 13.652 113.178 13.6833 113.166 13.7193L110.381 22.1739C110.18 22.7613 109.985 23.1574 109.795 23.3331C109.58 23.5232 109.311 23.6372 109.027 23.658C108.984 23.6662 108.945 23.6894 108.917 23.7235C108.889 23.7576 108.874 23.8005 108.874 23.8448V24.1363C108.873 24.1606 108.878 24.1848 108.887 24.2073C108.896 24.2299 108.909 24.2503 108.926 24.2676C108.943 24.2848 108.963 24.2983 108.986 24.3075C109.008 24.3167 109.031 24.3213 109.055 24.321H111.659C111.683 24.3213 111.707 24.3167 111.729 24.3076C111.751 24.2984 111.772 24.2849 111.789 24.2677C111.806 24.2505 111.819 24.23 111.829 24.2075C111.838 24.1849 111.843 24.1607 111.843 24.1363V23.8404C111.843 23.8164 111.839 23.7926 111.831 23.7702C111.822 23.7479 111.809 23.7274 111.793 23.7101C111.777 23.6927 111.757 23.6788 111.736 23.6691C111.714 23.6594 111.691 23.6541 111.668 23.6535C111.121 23.6424 111.042 23.4043 111.042 23.1752C111.077 22.8076 111.161 22.4467 111.294 22.1027L111.937 20.1782Z" fill="#FFFCF4"/>
<path d="M134.747 13.7126H131.704C131.657 13.7132 131.612 13.7323 131.579 13.766C131.546 13.7997 131.527 13.8452 131.527 13.8928V14.1932C131.528 14.2408 131.547 14.2862 131.58 14.3202C131.613 14.3541 131.657 14.3739 131.704 14.3756C132.109 14.3756 132.389 14.4757 132.533 14.6782C132.677 14.8806 132.752 15.2856 132.752 15.8707V21.3373L126.746 13.7727C126.73 13.7517 126.709 13.7349 126.685 13.7237C126.661 13.7125 126.635 13.7072 126.608 13.7081H124.031C124.007 13.7072 123.983 13.7112 123.961 13.7198C123.939 13.7285 123.918 13.7416 123.901 13.7584C123.884 13.7752 123.87 13.7953 123.86 13.8176C123.851 13.84 123.845 13.864 123.845 13.8883V14.1887C123.846 14.2337 123.863 14.2769 123.893 14.3103C123.923 14.3438 123.963 14.3653 124.007 14.3711C124.491 14.4134 124.832 14.5625 125.033 14.8161C125.234 15.0698 125.337 15.4969 125.337 16.091V22.0871C125.337 22.8458 125.219 23.1996 125.119 23.3464C124.981 23.5511 124.698 23.6579 124.281 23.6579C124.256 23.6579 124.232 23.6628 124.21 23.6723C124.187 23.6818 124.167 23.6958 124.15 23.7134C124.133 23.731 124.119 23.7519 124.11 23.7748C124.101 23.7977 124.097 23.8223 124.097 23.847V24.1362C124.097 24.1854 124.117 24.2324 124.151 24.267C124.186 24.3015 124.232 24.3209 124.281 24.3209H127.344C127.367 24.3209 127.39 24.3161 127.412 24.3067C127.434 24.2974 127.453 24.2837 127.47 24.2664C127.486 24.2492 127.499 24.2288 127.507 24.2064C127.516 24.184 127.519 24.1602 127.519 24.1362V23.8425C127.52 23.8183 127.516 23.7941 127.508 23.7714C127.5 23.7486 127.487 23.7278 127.471 23.7101C127.454 23.6925 127.435 23.6783 127.413 23.6686C127.391 23.6589 127.367 23.6537 127.344 23.6534C126.921 23.6534 126.626 23.5667 126.468 23.3798C126.311 23.1929 126.215 22.8814 126.215 22.4142V15.7395L133.023 24.243C133.039 24.2651 133.06 24.2829 133.084 24.2949C133.108 24.307 133.134 24.3128 133.161 24.312H133.476C133.5 24.312 133.523 24.3072 133.545 24.2979C133.567 24.2885 133.586 24.2749 133.603 24.2577C133.619 24.2404 133.632 24.2201 133.641 24.1977C133.65 24.1753 133.654 24.1514 133.653 24.1273V15.804C133.653 15.0965 133.787 14.7872 133.894 14.6515C134.045 14.4713 134.331 14.3756 134.769 14.3756C134.816 14.3744 134.86 14.3547 134.893 14.3206C134.926 14.2865 134.944 14.2408 134.944 14.1932V13.9017C134.944 13.8781 134.94 13.8548 134.931 13.8329C134.923 13.811 134.91 13.7912 134.893 13.7744C134.877 13.7576 134.858 13.7443 134.836 13.7352C134.815 13.7262 134.792 13.7215 134.769 13.7215" fill="#FFFCF4"/>
<path d="M150.042 19.0525C150.042 20.4185 149.696 21.571 149.003 22.4677C148.697 22.8808 148.302 23.2166 147.848 23.4489C147.394 23.6811 146.893 23.8035 146.385 23.8065C145.877 23.8095 145.375 23.6931 144.918 23.4662C144.461 23.2394 144.062 22.9083 143.752 22.4988C143.078 21.6089 142.741 20.4297 142.741 18.9835C142.741 17.5373 143.083 16.3737 143.763 15.5082C144.078 15.0921 144.486 14.7582 144.953 14.5338C145.42 14.3095 145.933 14.2012 146.45 14.2177C146.95 14.208 147.445 14.3215 147.893 14.5486C148.341 14.7756 148.729 15.1094 149.022 15.5215C149.692 16.3981 150.033 17.5907 150.033 19.0525M150.335 15.0588C149.821 14.538 149.208 14.1279 148.535 13.8527C147.861 13.5775 147.14 13.4429 146.415 13.4568C145.682 13.4369 144.953 13.5658 144.27 13.8359C143.587 14.106 142.964 14.5119 142.437 15.0298C141.916 15.537 141.504 16.1491 141.228 16.8272C140.952 17.5052 140.819 18.2343 140.836 18.9679C140.822 19.7079 140.958 20.4428 141.234 21.1274C141.511 21.812 141.923 22.4317 142.444 22.9482C143.499 23.9899 144.911 24.5726 146.382 24.5726C147.852 24.5726 149.265 23.9899 150.32 22.9482C150.845 22.4342 151.26 21.8153 151.539 21.1303C151.818 20.4454 151.955 19.7092 151.941 18.9679C151.952 18.2394 151.816 17.5163 151.541 16.8437C151.265 16.1711 150.856 15.5635 150.339 15.0588" fill="#FFFCF4"/>
<path d="M169.111 14.5424H169.929C170.539 14.5184 171.135 14.7263 171.603 15.1254C171.805 15.3129 171.964 15.5435 172.069 15.8008C172.174 16.0581 172.222 16.3357 172.209 16.6138C172.231 16.8988 172.191 17.1853 172.093 17.4531C171.994 17.7209 171.839 17.9634 171.638 18.1636C171.438 18.3639 171.196 18.5169 170.931 18.6121C170.666 18.7072 170.384 18.742 170.104 18.7141H169.113L169.111 14.5424ZM175.959 23.5377C175.663 23.5104 175.388 23.3724 175.186 23.1506C174.911 22.8925 174.53 22.3452 173.992 21.4686C173.656 20.857 173.273 20.2731 172.848 19.722C172.679 19.5122 172.492 19.3192 172.287 19.1458C173.464 18.6541 174.086 17.773 174.086 16.5805C174.09 16.1754 174.001 15.7748 173.828 15.4101C173.655 15.0454 173.401 14.7264 173.086 14.4779C172.445 13.9462 171.587 13.6814 170.52 13.6814H166.429C166.397 13.6811 166.366 13.6872 166.336 13.6995C166.307 13.7117 166.281 13.7297 166.258 13.7526C166.236 13.7754 166.219 13.8025 166.207 13.8323C166.195 13.8621 166.189 13.894 166.19 13.9261V14.2132C166.189 14.2453 166.195 14.2772 166.207 14.307C166.219 14.3368 166.236 14.3639 166.258 14.3868C166.281 14.4096 166.307 14.4276 166.336 14.4398C166.366 14.4521 166.397 14.4582 166.429 14.4579C166.803 14.4579 167.03 14.5313 167.133 14.6915C167.236 14.8517 167.326 15.1231 167.326 15.7862V22.1716C167.326 22.8502 167.225 23.155 167.133 23.2841C167.019 23.4532 166.781 23.5288 166.429 23.5288C166.397 23.5285 166.366 23.5346 166.336 23.5469C166.307 23.5591 166.281 23.5771 166.258 23.6C166.236 23.6228 166.219 23.6499 166.207 23.6797C166.195 23.7095 166.189 23.7414 166.19 23.7736V24.0695C166.189 24.1016 166.195 24.1335 166.206 24.1633C166.218 24.1932 166.236 24.2203 166.258 24.243C166.28 24.2657 166.307 24.2835 166.336 24.2954C166.366 24.3073 166.397 24.3129 166.429 24.312H170.019C170.05 24.314 170.082 24.3091 170.111 24.2976C170.141 24.286 170.168 24.2681 170.19 24.2451C170.212 24.222 170.229 24.1944 170.239 24.1641C170.25 24.1337 170.254 24.1015 170.251 24.0695V23.7736C170.252 23.7418 170.247 23.7102 170.236 23.6806C170.224 23.6509 170.208 23.6239 170.186 23.601C170.164 23.5782 170.138 23.56 170.11 23.5476C170.081 23.5352 170.05 23.5288 170.019 23.5288C169.671 23.5288 169.441 23.4532 169.323 23.2796C169.205 23.1061 169.104 22.7212 169.104 22.1672V19.6152H169.68C170.063 19.6132 170.435 19.7487 170.73 19.9979C171.064 20.2738 171.546 20.919 172.163 21.9402C172.621 22.7377 173.132 23.502 173.694 24.2274C173.717 24.2545 173.744 24.2764 173.776 24.2918C173.807 24.3071 173.841 24.3155 173.876 24.3164H175.926C175.957 24.3167 175.989 24.3107 176.018 24.2986C176.047 24.2866 176.073 24.2687 176.096 24.2462C176.118 24.2236 176.136 24.1968 176.148 24.1672C176.16 24.1377 176.166 24.1059 176.166 24.0739V23.778C176.167 23.7172 176.144 23.6587 176.104 23.6141C176.063 23.5695 176.007 23.5422 175.948 23.5377" fill="#FFFCF4"/>
<path d="M190.713 13.6792H187.191C187.159 13.6792 187.128 13.6856 187.1 13.6979C187.071 13.7103 187.045 13.7284 187.023 13.7513C187.001 13.7741 186.984 13.8011 186.973 13.8308C186.961 13.8604 186.956 13.8921 186.957 13.9239V14.211C186.955 14.2725 186.977 14.3322 187.018 14.3777C187.059 14.4232 187.115 14.4511 187.175 14.4557C187.499 14.4557 187.703 14.5514 187.812 14.7205C187.9 14.8539 188.009 15.1654 188.009 15.8329V21.8691C187.353 22.8947 186.491 23.3931 185.397 23.3931C184.662 23.3931 184.099 23.1884 183.695 22.7568C183.29 22.3252 183.089 21.72 183.089 20.9591V15.824C183.089 15.1254 183.198 14.8339 183.288 14.6915C183.419 14.5002 183.747 14.4579 184.003 14.4579C184.067 14.4573 184.127 14.4313 184.172 14.3855C184.217 14.3396 184.242 14.2777 184.242 14.2132V13.9262C184.242 13.8941 184.236 13.8624 184.224 13.8327C184.212 13.803 184.195 13.776 184.173 13.7532C184.15 13.7305 184.124 13.7124 184.095 13.7001C184.066 13.6878 184.035 13.6814 184.003 13.6814H180.393C180.33 13.6826 180.27 13.7089 180.226 13.7547C180.182 13.8004 180.157 13.862 180.157 13.9262V14.2132C180.158 14.2771 180.182 14.3384 180.227 14.3841C180.271 14.4297 180.33 14.4562 180.393 14.4579C180.759 14.4579 180.991 14.5447 181.096 14.7071C181.201 14.8695 181.295 15.1521 181.295 15.8196V20.8167C181.256 21.8152 181.608 22.7886 182.273 23.5244C182.929 24.2141 183.815 24.5612 184.926 24.5612C185.501 24.5624 186.071 24.4473 186.601 24.2227C187.132 23.9982 187.613 23.6685 188.018 23.253V24.065C188.017 24.0974 188.023 24.1296 188.035 24.1596C188.047 24.1896 188.065 24.2168 188.088 24.2395C188.111 24.2622 188.138 24.28 188.167 24.2917C188.197 24.3034 188.229 24.3088 188.261 24.3076H190.713C190.744 24.3079 190.775 24.3018 190.804 24.2896C190.833 24.2775 190.859 24.2596 190.881 24.2369C190.903 24.2143 190.92 24.1874 190.931 24.1579C190.943 24.1283 190.948 24.0967 190.947 24.065V23.7691C190.947 23.7053 190.923 23.6441 190.879 23.5984C190.835 23.5527 190.776 23.5261 190.713 23.5244C190.363 23.5244 190.133 23.4421 190.02 23.2685C189.93 23.1439 189.823 22.8413 189.823 22.1561V15.8285C189.823 15.2767 189.893 14.9029 190.02 14.716C190.098 14.6092 190.258 14.4579 190.713 14.4579C190.776 14.4567 190.836 14.4304 190.88 14.3845C190.924 14.3387 190.948 14.2771 190.947 14.2132V13.9262C190.948 13.8942 190.943 13.8625 190.931 13.8327C190.92 13.8029 190.903 13.7757 190.881 13.7527C190.859 13.7297 190.833 13.7114 190.804 13.6988C190.776 13.6861 190.745 13.6795 190.713 13.6792Z" fill="#FFFCF4"/>
<path d="M199.943 10.1951C199.908 10.1595 199.862 10.1363 199.812 10.1287C199.763 10.1211 199.712 10.1295 199.668 10.1528L196.401 11.8281C196.368 11.847 196.34 11.8733 196.318 11.9049C196.297 11.9365 196.283 11.9726 196.277 12.0106C196.271 12.0481 196.274 12.0865 196.286 12.1225C196.297 12.1585 196.318 12.1911 196.344 12.2175L196.576 12.4556C196.597 12.4781 196.623 12.4958 196.651 12.5077C196.679 12.5196 196.71 12.5253 196.74 12.5245C196.765 12.5267 196.791 12.5213 196.813 12.5089L200.532 11.2808C200.571 11.2679 200.606 11.2449 200.634 11.2141C200.662 11.1834 200.682 11.1458 200.692 11.105C200.699 11.0658 200.698 11.0254 200.688 10.9868C200.677 10.9482 200.659 10.9125 200.633 10.8825L199.943 10.1951Z" fill="#FFFCF4"/>
<path d="M199.974 13.6792H196.373C196.342 13.6798 196.311 13.6866 196.283 13.6992C196.255 13.7118 196.229 13.73 196.207 13.7527C196.186 13.7754 196.169 13.8023 196.158 13.8316C196.146 13.861 196.141 13.8924 196.141 13.9239V14.211C196.141 14.2425 196.146 14.2739 196.158 14.3032C196.169 14.3326 196.186 14.3594 196.207 14.3822C196.229 14.4049 196.255 14.4231 196.283 14.4357C196.311 14.4483 196.342 14.4551 196.373 14.4557C196.743 14.4557 196.97 14.5291 197.082 14.7049C197.169 14.825 197.279 15.1209 197.279 15.8173V22.1605C197.279 22.719 197.213 23.0928 197.082 23.273C196.951 23.4532 196.723 23.5222 196.373 23.5222C196.311 23.5239 196.251 23.5505 196.208 23.5963C196.165 23.6421 196.141 23.7033 196.141 23.7669V24.0628C196.14 24.0943 196.146 24.1257 196.157 24.1551C196.168 24.1845 196.185 24.2113 196.207 24.2339C196.228 24.2565 196.254 24.2745 196.283 24.2867C196.311 24.299 196.342 24.3053 196.373 24.3053H199.974C200.005 24.305 200.036 24.2985 200.064 24.2861C200.093 24.2738 200.118 24.2558 200.14 24.2332C200.161 24.2107 200.178 24.184 200.19 24.1548C200.201 24.1255 200.207 24.0943 200.206 24.0628V23.7669C200.206 23.7035 200.182 23.6426 200.139 23.5969C200.096 23.5513 200.037 23.5245 199.974 23.5222C199.736 23.5222 199.421 23.4799 199.279 23.273C199.184 23.1417 199.071 22.8391 199.071 22.1605V15.8285C199.071 15.161 199.184 14.8517 199.279 14.716C199.373 14.5803 199.626 14.4601 199.974 14.4601C200.037 14.4578 200.096 14.431 200.139 14.3854C200.182 14.3397 200.206 14.2788 200.206 14.2154V13.9284C200.207 13.8648 200.183 13.8036 200.139 13.7578C200.096 13.712 200.037 13.6854 199.974 13.6836" fill="#FFFCF4"/>
<path d="M214.238 21.3909H213.943C213.894 21.3889 213.846 21.4036 213.807 21.4327C213.767 21.4617 213.738 21.5034 213.724 21.5511C213.579 22.1041 213.253 22.5901 212.799 22.9283C212.388 23.2042 211.795 23.3466 211.022 23.3466H207.701L213.974 14.3758C214.002 14.3337 214.017 14.2842 214.018 14.2334V13.9264C214.018 13.8624 213.994 13.8009 213.95 13.755C213.906 13.7092 213.846 13.6828 213.783 13.6816H205.66C205.6 13.6814 205.542 13.7042 205.498 13.7455C205.454 13.7867 205.427 13.8433 205.422 13.9041L205.258 15.6329C205.255 15.7025 205.279 15.7704 205.325 15.822C205.348 15.8447 205.375 15.8623 205.405 15.8738C205.435 15.8853 205.466 15.8904 205.498 15.8887H205.783C205.832 15.8903 205.881 15.8747 205.921 15.8444C205.961 15.814 205.989 15.7708 206.001 15.7219C206.067 15.3787 206.258 15.0739 206.537 14.8697C206.688 14.7807 207.034 14.6584 207.765 14.6584H211.609L205.299 23.6648C205.267 23.7042 205.249 23.7537 205.249 23.8049V24.0719C205.248 24.104 205.255 24.1359 205.267 24.1656C205.279 24.1953 205.296 24.2223 205.319 24.2449C205.341 24.2675 205.368 24.2853 205.397 24.2972C205.426 24.3092 205.458 24.315 205.489 24.3144H213.871C213.927 24.3131 213.981 24.292 214.023 24.2546C214.065 24.2172 214.094 24.166 214.103 24.1097L214.466 21.6624C214.471 21.5946 214.452 21.5273 214.411 21.4732C214.388 21.4479 214.36 21.4278 214.329 21.4143C214.297 21.4009 214.264 21.3944 214.23 21.3954" fill="#FFFCF4"/>
<path d="M30.2789 4.85304C26.9302 1.34733 22.3588 -0.706355 17.5335 -0.872803H16.2203C13.1411 -0.763288 10.137 0.113988 7.4766 1.68052C7.13957 1.89981 6.76602 2.05595 6.37393 2.14144C6.04413 2.21458 5.70731 2.25075 5.36962 2.24927C5.11961 2.24903 4.86993 2.23101 4.62243 2.19536H4.56549C4.39293 2.18318 4.22036 2.17448 4.06506 2.16753C3.90975 2.16057 3.751 2.15883 3.61122 2.15883C2.95249 2.13339 2.29453 2.22645 1.66818 2.43365C1.16167 2.62263 0.715559 2.94664 0.377422 3.37114C-0.312824 4.19906 -0.578568 5.25308 -0.670026 6.15405C-0.731746 6.7599 -0.724799 7.37086 -0.649318 7.97512C-0.76666 10.104 -1.40341 11.5651 -2.02981 12.4974C-2.36518 13.0306 -2.79582 13.4965 -3.29986 13.8714C-3.80022 14.1894 -4.23402 14.603 -4.57682 15.0889C-4.88825 15.5404 -5.08984 16.0593 -5.16525 16.6039C-5.24591 17.2924 -5.16371 17.9903 -4.92539 18.6406C-4.65598 19.4024 -4.25329 20.1093 -3.73644 20.7278C-3.05257 21.3687 -2.42978 22.0727 -1.87623 22.8307C-1.21116 23.7312 -0.606425 24.6754 -0.0660607 25.657C1.05692 28.1457 2.70581 30.3571 4.76525 32.1363C6.82469 33.9156 9.24495 35.2198 11.8567 35.9578C14.4685 36.6958 17.2087 36.8497 19.8856 36.4088C22.5626 35.9678 25.1116 34.9427 27.3544 33.405C29.5972 31.8674 31.4796 29.8544 32.87 27.5069C34.2603 25.1594 35.125 22.534 35.4036 19.8145C35.6821 17.0949 35.3678 14.3469 34.4826 11.7626C33.5974 9.17825 32.1627 6.82009 30.2789 4.85304ZM29.9613 31.0559C27.8489 33.1837 25.2568 34.7643 22.4065 35.6626C19.5562 36.5609 16.5325 36.7503 13.5938 36.2144C10.6551 35.6786 7.88877 34.4335 5.53133 32.5856C3.1739 30.7377 1.29542 28.342 0.0564578 25.6031C-0.487638 24.6151 -1.097 23.665 -1.76752 22.7593C-2.32524 21.9942 -2.95326 21.2837 -3.64326 20.6374C-4.14617 20.0351 -4.53829 19.3471 -4.80115 18.6058C-5.03337 17.9752 -5.11323 17.2979 -5.0341 16.63C-4.96209 16.1054 -4.76816 15.6054 -4.4681 15.1707C-4.13524 14.6969 -3.71306 14.2938 -3.22566 13.9845C-2.70768 13.5995 -2.2648 13.1212 -1.91937 12.5739C-1.28779 11.6225 -0.638964 10.1388 -0.521623 7.9786V7.96643C-0.595457 7.36671 -0.602403 6.76054 -0.54233 6.15927C-0.452598 5.28961 -0.197208 4.24602 0.475782 3.44941C0.800881 3.04265 1.22896 2.73196 1.71477 2.55018C2.32695 2.34922 2.9696 2.25912 3.61295 2.28406C3.75617 2.28406 3.9063 2.28406 4.06161 2.29276C4.21691 2.30145 4.38257 2.30667 4.55858 2.32059H4.6069C4.85995 2.35881 5.11547 2.378 5.37135 2.37799C5.71941 2.37987 6.06663 2.34313 6.40672 2.26841C6.81194 2.17714 7.19805 2.01464 7.54735 1.78836C10.1887 0.234296 13.1707 -0.636344 16.2272 -0.745836H17.5352C21.1354 -0.62111 24.6209 0.561379 27.5631 2.65622C30.5054 4.75106 32.7762 7.66694 34.0962 11.0453C35.4162 14.4236 35.7279 18.1171 34.993 21.6717C34.2581 25.2262 32.5086 28.4868 29.9596 31.0524" fill="#FFFCF4"/>
<path d="M29.4428 5.24177C27.7969 3.57831 25.8414 2.25895 23.6885 1.35943C21.5355 0.459903 19.2276 -0.00207709 16.8971 7.02007e-06C15.324 -0.00127403 13.7577 0.206693 12.2386 0.618531C10.7326 1.02618 9.28766 1.63558 7.94234 2.43044C6.47097 3.41239 4.64951 3.11536 4.42421 3.07867H4.39822C4.26997 3.07867 4.12786 3.06469 3.98228 3.06294H3.56115C2.73794 3.06294 2.20762 3.16253 1.82808 3.31804C1.51881 3.44752 1.2474 3.65439 1.03953 3.91909C-0.097357 5.29942 0.192065 7.61104 0.218061 7.83294C0.221024 7.85459 0.226853 7.87575 0.235392 7.89584C0.230683 7.91058 0.227773 7.92583 0.226727 7.94127C-0.0211019 12.7287 -2.70562 14.5616 -2.85813 14.6682C-3.24637 14.9178 -3.58541 15.2377 -3.85811 15.6117C-4.09538 15.9439 -4.2483 16.3296 -4.30351 16.7352C-4.53401 18.4003 -3.16142 20.055 -3.14062 20.0759C-2.42384 20.7407 -1.77263 21.4739 -1.19612 22.2653C-0.496677 23.2188 0.140141 24.2174 0.710252 25.2548C1.78119 27.6445 3.35994 29.7676 5.3348 31.4741C7.30966 33.1805 9.63237 34.4286 12.1386 35.1299C14.6448 35.8312 17.2733 35.9687 19.838 35.5326C22.4027 35.0965 24.841 34.0974 26.9804 32.6061C29.1198 31.1148 30.908 29.1677 32.2184 26.9026C33.5289 24.6375 34.3295 22.1097 34.5638 19.4981C34.798 16.8865 34.4601 14.255 33.574 11.7896C32.6879 9.32422 31.2752 7.08531 29.4358 5.23128M29.3422 30.4302C27.3271 32.4587 24.8546 33.965 22.1363 34.8202C19.4179 35.6754 16.5345 35.8541 13.7327 35.341C10.9309 34.828 8.29402 33.6383 6.04761 31.8739C3.8012 30.1095 2.0121 27.8228 0.8333 25.2094C0.258026 24.163 -0.385188 23.1562 -1.09214 22.1954C-1.67319 21.4003 -2.32839 20.6631 -3.04877 19.9938C-3.11636 19.9134 -4.39883 18.3357 -4.18219 16.7562C-4.12828 16.372 -3.98257 16.0068 -3.75759 15.6921C-3.49499 15.3307 -3.16829 15.0215 -2.79401 14.78C-2.6415 14.6752 0.0984792 12.8091 0.348041 7.96573L0.361906 7.89934L0.341109 7.83993V7.82945C0.31338 7.61803 0.0291566 5.35184 1.13139 4.01519C1.32638 3.76064 1.583 3.56089 1.87661 3.43511C2.23535 3.28834 2.74314 3.19224 3.55421 3.19224H3.97188C4.11053 3.19224 4.24917 3.20097 4.37915 3.20971H4.39995C4.63218 3.2464 6.49523 3.54693 8.00473 2.54226C9.33965 1.75414 10.7728 1.14892 12.2663 0.74259C13.775 0.335169 15.3301 0.12898 16.8919 0.129302C20.3766 0.127021 23.7836 1.16724 26.6816 3.11825C29.5796 5.06927 31.8382 7.84334 33.1715 11.0893C34.5048 14.3352 34.8528 17.9069 34.1714 21.3524C33.4901 24.7978 31.81 27.9619 29.344 30.4441" fill="#FFFCF4"/>
<path d="M16.8902 1.74536C13.7217 1.74431 10.624 2.71597 7.98891 4.53745C5.35386 6.35892 3.29985 8.94839 2.08667 11.9783C0.873479 15.0083 0.555616 18.3426 1.17328 21.5595C1.79094 24.7765 3.31638 27.7316 5.55667 30.051C7.79696 32.3705 10.6514 33.9502 13.7591 34.5902C16.8668 35.2302 20.088 34.9019 23.0154 33.6468C25.9428 32.3916 28.4448 30.266 30.205 27.5388C31.9653 24.8116 32.9046 21.6053 32.9043 18.3254C32.9011 13.9297 31.213 9.71496 28.2106 6.60641C25.2082 3.49786 21.1368 1.74957 16.8902 1.74536ZM16.8902 33.9399C13.9073 33.9392 10.9916 33.023 8.5117 31.3071C6.03181 29.5912 4.09911 27.1527 2.95799 24.2999C1.81687 21.4471 1.51856 18.3081 2.10079 15.2798C2.68302 12.2515 4.11963 9.46987 6.22899 7.28667C8.33834 5.10347 11.0257 3.61672 13.9513 3.01438C16.8769 2.41205 19.9094 2.72118 22.6653 3.90271C25.4211 5.08423 27.7767 7.08509 29.4341 9.65228C31.0915 12.2195 31.9763 15.2377 31.9766 18.3254C31.9739 22.4661 30.3835 26.4363 27.5548 29.3641C24.7261 32.2918 20.8904 33.9376 16.8902 33.9399Z" fill="#FFFCF4"/>
<path d="M26.7196 18.1041L29.3014 15.4157C29.3447 15.37 29.3787 15.3161 29.4014 15.257C29.4242 15.1978 29.4352 15.1347 29.434 15.0712C29.4327 15.0077 29.4191 14.9451 29.394 14.887C29.3689 14.8288 29.3327 14.7764 29.2876 14.7326C29.2446 14.6873 29.1931 14.6513 29.1362 14.6267C29.0793 14.6021 29.0181 14.5894 28.9563 14.5894C28.8945 14.5894 28.8333 14.6021 28.7764 14.6267C28.7195 14.6513 28.668 14.6873 28.625 14.7326L25.7626 17.7055L21.5509 18.4079L17.3788 16.0215V10.9624L21.8693 6.04561C21.953 5.95138 21.9967 5.82719 21.9909 5.70018C21.9851 5.57317 21.9302 5.45367 21.8384 5.36779C21.7937 5.32427 21.7411 5.29026 21.6835 5.26773C21.6258 5.24519 21.5644 5.2346 21.5027 5.23656C21.441 5.23852 21.3803 5.253 21.3242 5.27915C21.268 5.3053 21.2176 5.3426 21.1757 5.38886L16.9055 10.0651L12.6404 5.39237C12.5978 5.34584 12.5466 5.30836 12.4897 5.28209C12.4328 5.25583 12.3714 5.2413 12.309 5.23934C12.2467 5.23739 12.1845 5.24804 12.1262 5.27068C12.0678 5.29333 12.0144 5.32753 11.9691 5.3713C11.9234 5.41392 11.8865 5.46542 11.8605 5.5228C11.8346 5.58017 11.8202 5.64226 11.8181 5.7054C11.816 5.76855 11.8263 5.83149 11.8484 5.89052C11.8705 5.94954 11.9039 6.00346 11.9467 6.04912L16.439 10.9554V15.9916L12.1963 18.4061L7.99663 17.7037L5.13087 14.7414C5.08786 14.6961 5.03637 14.66 4.97946 14.6354C4.92254 14.6108 4.86136 14.5982 4.79954 14.5982C4.73773 14.5982 4.67655 14.6108 4.61963 14.6354C4.56271 14.66 4.51122 14.6961 4.46822 14.7414C4.38105 14.8328 4.33229 14.9553 4.33229 15.0829C4.33229 15.2105 4.38105 15.333 4.46822 15.4244L7.04998 18.1094L4.51469 20.0041C4.41783 20.0822 4.35364 20.1949 4.33511 20.3194C4.31658 20.4439 4.34508 20.571 4.41486 20.6749C4.46258 20.7365 4.52321 20.7865 4.5923 20.8211C4.66139 20.8558 4.7372 20.8742 4.81417 20.8751C4.91074 20.8733 5.00422 20.8401 5.08096 20.7803L7.8882 18.6731L11.47 19.2648L8.54397 23.4336L5.63173 25.7849C5.58228 25.8231 5.54079 25.871 5.50971 25.9258C5.47863 25.9806 5.45857 26.0412 5.45072 26.104C5.44286 26.1668 5.44737 26.2305 5.46397 26.2915C5.48057 26.3525 5.50893 26.4095 5.5474 26.4592C5.59318 26.5155 5.65051 26.5609 5.71534 26.5921C5.78016 26.6233 5.85092 26.6397 5.92261 26.6401C6.02805 26.6372 6.12988 26.6003 6.21349 26.5347L8.72813 24.5048L10.0947 27.288C10.1341 27.3671 10.1946 27.4331 10.2692 27.4785C10.3439 27.5239 10.4296 27.5467 10.5164 27.5444C10.5878 27.5477 10.6588 27.5326 10.723 27.5005C10.7782 27.4727 10.8275 27.434 10.868 27.3867C10.9085 27.3394 10.9395 27.2844 10.9592 27.2248C10.9788 27.1653 10.9868 27.1024 10.9826 27.0397C10.9784 26.977 10.9621 26.9158 10.9347 26.8596L9.4407 23.8006L12.5973 19.2877L16.439 17.0821V24.8191L11.9467 29.7359C11.8606 29.8301 11.8146 29.9552 11.8188 30.0839C11.823 30.2126 11.8771 30.3344 11.9691 30.4225C12.0579 30.5003 12.1706 30.5438 12.2875 30.5454C12.4171 30.544 12.5408 30.4903 12.6318 30.3962L16.9003 25.7129L21.1705 30.3962C21.2615 30.4903 21.3852 30.544 21.5148 30.5454C21.6316 30.5456 21.7443 30.5018 21.8315 30.4225C21.9231 30.3346 21.9776 30.2138 21.9834 30.0856C21.9892 29.9574 21.9458 29.832 21.8624 29.7359L17.3719 24.8191V17.1172L21.1585 19.2841L24.3186 23.8111L22.8263 26.8648C22.7989 26.9212 22.7827 26.9825 22.7787 27.0453C22.7746 27.108 22.7827 27.171 22.8025 27.2305C22.8223 27.2901 22.8535 27.3451 22.8942 27.3923C22.9349 27.4395 22.9844 27.4781 23.0397 27.5058C23.1032 27.5382 23.1737 27.5533 23.2446 27.5497C23.3315 27.5513 23.4172 27.5281 23.492 27.4829C23.5667 27.4376 23.6277 27.3719 23.668 27.2933L25.0329 24.5065L27.5561 26.54C27.6364 26.608 27.7375 26.6453 27.8418 26.6453C27.9147 26.6477 27.9871 26.6326 28.0532 26.6012C28.1192 26.5698 28.1771 26.5229 28.2222 26.4645C28.2989 26.364 28.3335 26.2367 28.3183 26.1103C28.3032 25.9839 28.2395 25.8687 28.1413 25.7901L25.2153 23.4301L22.3013 19.2648L25.8866 18.6731L28.6869 20.7803C28.7699 20.8394 28.868 20.8724 28.9692 20.8751C29.0434 20.8737 29.1163 20.855 29.1823 20.8203C29.2482 20.7856 29.3055 20.7358 29.3496 20.6749C29.3861 20.6241 29.4125 20.5664 29.4272 20.5052C29.4419 20.4439 29.4446 20.3803 29.4352 20.318C29.4258 20.2557 29.4044 20.1959 29.3723 20.142C29.3401 20.0882 29.2979 20.0413 29.248 20.0041L26.7196 18.1041Z" fill="#FFFCF4"/>
</g>
<defs>
<clipPath id="clip0_48_2">
<rect width="226" height="48" fill="white"/>
</clipPath>
</defs>
</svg>
